<?xml version="1.0" encoding="UTF-8" standalone="no"?>
<svg
   xmlns:dc="http://purl.org/dc/elements/1.1/"
   xmlns:cc="http://creativecommons.org/ns#"
   xmlns:rdf="http://www.w3.org/1999/02/22-rdf-syntax-ns#"
   xmlns:svg="http://www.w3.org/2000/svg"
   xmlns="http://www.w3.org/2000/svg"
   xmlns:sodipodi="http://sodipodi.sourceforge.net/DTD/sodipodi-0.dtd"
   xmlns:inkscape="http://www.inkscape.org/namespaces/inkscape"
   inkscape:version="1.0 (4035a4fb49, 2020-05-01)"
   sodipodi:docname="brand eins (2020-06-26).svg"
   id="svg2105"
   version="1.2"
   viewBox="0 0 300 57.869298"
   height="57.869297pt"
   width="300pt">
  <metadata
     id="metadata2109">
    <rdf:RDF>
      <cc:Work
         rdf:about="">
        <dc:format>image/svg+xml</dc:format>
        <dc:type
           rdf:resource="http://purl.org/dc/dcmitype/StillImage" />
        <dc:title></dc:title>
      </cc:Work>
    </rdf:RDF>
  </metadata>
  <sodipodi:namedview
     inkscape:current-layer="svg2105"
     inkscape:window-maximized="1"
     inkscape:window-y="-8"
     inkscape:window-x="-8"
     inkscape:cy="497.71386"
     inkscape:cx="372.1465"
     inkscape:zoom="0.648229"
     fit-margin-bottom="0"
     fit-margin-right="0"
     fit-margin-left="0"
     fit-margin-top="0"
     showgrid="false"
     id="namedview2107"
     inkscape:window-height="837"
     inkscape:window-width="1600"
     inkscape:pageshadow="2"
     inkscape:pageopacity="0"
     guidetolerance="10"
     gridtolerance="10"
     objecttolerance="10"
     borderopacity="1"
     bordercolor="#666666"
     pagecolor="#ffffff" />
  <defs
     id="defs434" />
  <path
     id="path3795"
     d="M 9.272997,0 C 5.650732,2.013979 4.013469,2.608031 0,3.941024 V 4.824857 C 3.419417,6.15785 3.868578,6.751901 3.941023,10.533545 V 41.8444 c -0.07244,1.854599 -0.07244,3.781644 -0.231825,5.708688 -0.07244,2.825367 -0.362226,5.563799 -0.594051,8.389165 0.08693,0.362226 0.15938,0.449161 0.594051,0.666497 l 2.680476,-1.405439 c 3.115148,1.101168 6.30274,2.216826 9.635224,2.216826 8.012449,0 14.242744,-4.969747 16.995665,-12.243254 0.362226,-1.101168 1.260548,-3.709199 1.260548,-6.969237 0,-1.927045 -0.376716,-7.780624 -4.969747,-11.938984 -3.115148,-2.825366 -6.30274,-3.187592 -7.867559,-3.187592 -4.752411,0 -8.012449,2.361716 -11.576757,5.114637 V 0.376716 Z m 0.231825,30.267642 c 2.30376,-1.695219 4.44814,-3.187592 6.969236,-3.187592 3.115148,0 5.563799,1.782154 6.375186,2.376205 5.129126,4.085914 5.491353,10.823326 5.491353,12.76486 -0.07245,4.810367 -1.99949,9.780114 -6.447631,12.083874 -1.927045,1.043213 -3.564308,1.115658 -4.375695,1.115658 -3.781645,0 -5.868069,-2.376206 -6.679456,-3.564308 C 9.794603,50.233564 9.649712,48.29203 9.504822,46.220095 Z m 0,0"
     style="fill:#000000;fill-opacity:1;stroke:none;stroke-width:0.9273" />
  <path
     id="path3791"
     d="m 42.957159,49.335243 c -0.07245,4.679965 -1.260548,5.274017 -5.708689,5.491353 v 1.854599 H 56.750742 V 54.75415 C 54.084755,54.68171 52.01282,54.60926 51.042053,54.232544 48.520957,53.421157 48.825227,49.856849 48.825227,49.480133 V 37.396259 c 0,-2.086425 0,-4.013469 1.188103,-5.868069 1.477884,-2.376205 3.709199,-2.738432 4.737922,-2.738432 1.115657,0 1.927044,0.449161 2.30376,0.666497 0.956278,0.594051 1.115657,1.115658 2.231315,1.115658 2.071935,0 3.622264,-1.782155 3.709199,-3.941024 0,-3.260038 -3.419418,-3.622265 -4.30325,-3.622265 -3.709199,-0.08693 -6.824347,3.549819 -7.273508,4.143871 -0.898321,0.970767 -1.709708,1.99949 -2.521096,3.115147 v -7.853069 l -0.521606,-0.449161 c -3.926534,2.448651 -4.969747,3.042702 -9.272997,4.824856 v 1.188103 c 3.636754,1.260548 3.781644,2.144381 3.85409,4.375696 z m 0,0"
     style="fill:#000000;fill-opacity:1;stroke:none;stroke-width:0.9273" />
  <path
     id="path3787"
     d="m 75.525084,41.105458 c -5.346463,2.216826 -7.940004,3.187592 -9.649713,5.418907 -0.811387,1.101169 -1.332993,2.361717 -1.332993,3.709199 0,2.738432 1.927044,5.708689 4.535075,6.737412 1.260548,0.449161 2.521096,0.521606 3.042702,0.521606 5.331973,0 9.417889,-3.549819 10.605989,-4.520586 0.28978,-0.289781 0.6665,-0.594051 0.95628,-0.883832 0.37671,1.99949 0.6665,3.477374 2.3762,4.665476 0.37672,0.217336 1.333,0.811388 2.5211,0.811388 2.66599,0 5.20157,-2.071936 7.12862,-3.54982 l -0.23183,-0.970767 c -1.26055,0.376716 -1.8546,0.521607 -2.52109,0.521607 -2.28927,0 -2.81088,-1.405439 -3.04271,-2.231315 -0.14489,-0.434672 -0.14489,-0.811388 -0.14489,-1.8546 V 30.499467 c -0.0724,-1.115657 -0.0724,-4.375695 -3.11514,-6.157849 -1.333,-0.825877 -4.23081,-1.637264 -5.70869,-1.637264 -1.49238,0 -3.11515,0.666497 -3.564311,0.811387 l -3.187593,1.492373 c -3.419417,1.8546 -5.274017,2.810878 -6.46212,4.143871 -1.260548,1.492373 -1.622774,3.129636 -1.622774,3.868578 0,1.028723 0.362226,1.55033 1.260548,1.55033 0.521606,0 1.709709,-0.289782 2.216826,-0.521607 1.941534,-0.811387 1.492373,-2.14438 2.086424,-4.071425 1.115658,-3.260038 4.665477,-3.636753 5.708689,-3.636753 2.897811,0 5.563801,1.637263 6.302741,4.44814 0.23182,0.811388 0.23182,1.260548 0.23182,2.071936 v 5.491353 z m 8.38916,8.534055 c -2.44865,2.14438 -3.94102,3.404928 -5.346458,3.99898 -0.883833,0.376715 -1.709709,0.376715 -2.071936,0.376715 -2.30376,0 -4.679965,-1.260548 -5.563798,-3.419417 -0.376715,-0.811388 -0.449161,-1.622775 -0.449161,-1.927045 0,-1.550329 0.883833,-2.665987 1.260548,-3.042702 1.709709,-2.071936 4.15836,-2.897812 6.679456,-3.781644 l 5.491349,-1.709709 z m 0,0"
     style="fill:#000000;fill-opacity:1;stroke:none;stroke-width:0.9273" />
  <path
     id="path3783"
     d="m 102.01455,50.4509 c -0.0724,3.115148 -0.37671,3.781644 -2.231306,4.085914 -0.97077,0.144891 -1.8546,0.217336 -2.82537,0.289782 v 1.782154 h 16.256716 v -1.709709 c -0.82587,-0.07245 -3.34697,-0.362227 -4.01346,-0.666497 -1.02873,-0.449161 -1.26055,-1.332993 -1.26055,-3.636753 V 30.340088 c 2.68047,-1.69522 5.49135,-3.54982 8.91077,-3.54982 2.81087,0 5.33197,1.477884 6.23029,4.071426 0.43467,1.332993 0.52161,3.187592 0.52161,3.636753 v 15.141066 c -0.30427,5.114637 0.14489,4.810367 -4.96975,5.259528 v 1.782154 h 15.72063 v -1.709709 c -4.15836,-0.434672 -4.52059,-0.217336 -4.75241,-3.042702 v -18.76333 c -0.14489,-2.521096 -0.21734,-4.969747 -1.69522,-7.128617 -1.56482,-2.216825 -4.01347,-3.028213 -6.53457,-3.028213 -4.96974,0 -9.57726,2.883323 -13.43135,5.404419 v -5.781134 l -0.73894,-0.30427 c -2.82537,1.260548 -3.92654,1.854599 -9.200556,3.564308 v 1.115657 c 2.970256,1.188103 3.564306,1.709709 4.013466,4.969747 z m 0,0"
     style="fill:#000000;fill-opacity:1;stroke:none;stroke-width:0.9273" />
  <path
     id="path3779"
     d="m 163.65565,24.341618 c -2.37621,-0.825877 -3.7092,-1.260548 -6.37519,-1.260548 -7.12861,0 -14.0254,4.520586 -16.99566,10.823326 -1.26055,2.521096 -1.78215,5.201572 -1.78215,8.084894 0,2.15887 0.44916,9.722158 6.82434,13.576248 0.89832,0.594051 3.49186,1.927044 6.7519,1.927044 4.82486,0 8.17183,-2.593541 9.43238,-3.549819 0.73894,-0.594051 1.47788,-1.188103 2.21683,-1.854599 v 5.187082 l 0.59405,0.376716 c 1.56481,-0.449161 3.18759,-0.970767 4.75241,-1.419928 1.8546,-0.434672 3.78164,-0.883832 5.70869,-1.260548 v -1.477884 h -3.04271 c -1.40543,0 -1.92704,0 -2.07193,-2.521096 V 0.521606 L 169.21945,0 c -4.52059,2.086425 -5.70869,2.448651 -10.4611,3.564308 v 1.260549 c 1.78215,0.521606 4.15836,1.260548 4.75241,3.419417 0.21734,0.666497 0.14489,1.332994 0.14489,1.550329 z m 0.21734,22.472529 c -0.0725,1.637263 -0.21734,2.376205 -0.59406,3.042702 -1.10116,2.521096 -4.30325,3.636753 -6.82434,3.636753 -1.26055,0 -3.33249,-0.231825 -5.85358,-1.99949 -2.30376,-1.637263 -5.86807,-5.418907 -5.86807,-12.475079 0,-7.331463 3.94102,-11.040662 6.46212,-12.46059 1.92704,-1.115657 3.85409,-1.260548 4.75241,-1.332993 4.52059,0 6.30274,2.752921 7.04168,4.15836 0.28978,0.449161 0.59405,0.956278 0.88384,1.477884 z m 0,0"
     style="fill:#000000;fill-opacity:1;stroke:none;stroke-width:0.9273" />
  <path
     id="path3811"
     d="m 212.16965,36.135711 c 0.0725,0 0.59405,0 0.89832,-0.144891 0.6665,-0.30427 0.6665,-1.419927 0.6665,-1.492373 0,-0.362226 -0.15938,-1.550329 -0.23182,-1.854599 -0.21734,-1.332994 -0.95628,-4.665477 -4.30325,-7.273507 -2.73844,-2.144381 -5.99847,-2.216826 -7.18658,-2.216826 -1.41992,0 -4.53507,0.217336 -7.86755,1.99949 -7.70818,4.30325 -8.38917,13.358911 -8.38917,15.880007 0,1.332994 0.30427,8.15734 4.08591,12.46059 1.26055,1.477884 4.52059,4.375696 10.08439,4.375696 4.60752,0 7.65022,-1.99949 8.91077,-2.970257 1.47788,-1.188103 2.5211,-2.30376 4.96975,-5.114638 l -0.73895,-1.260548 c -3.0427,2.593542 -5.72317,4.824857 -9.86704,4.824857 -7.20107,0 -9.79461,-6.534565 -10.4611,-8.534055 -0.44916,-1.492373 -0.73895,-3.042703 -1.04322,-6.302741 v -2.376205 z m -20.40059,-2.15887 c 1.04321,-3.115147 1.92704,-5.853579 4.8973,-7.635733 1.78216,-1.115658 3.26004,-1.260548 4.15836,-1.260548 3.7092,0 6.60701,3.115147 6.60701,6.751901 0,1.709708 -0.75343,1.927044 -2.3762,2.14438 z m 0,0"
     style="fill:#000000;fill-opacity:1;stroke:none;stroke-width:0.9273" />
  <path
     id="path3807"
     d="m 222.70667,51.044951 c 0,1.115658 -0.0725,2.738432 -1.1881,3.332484 -0.59406,0.376715 -2.14439,0.376715 -4.08592,0.594051 l -0.0724,1.637264 h 16.40161 v -1.637264 c -1.8546,-0.217336 -3.18759,-0.362226 -3.78164,-0.594051 -1.70971,-0.738942 -1.333,-3.332484 -1.333,-3.709199 V 22.414573 l -0.59405,-0.449161 c -4.01347,1.99949 -4.8973,2.376206 -9.43238,3.636754 v 1.028723 c 1.41993,0.825876 2.15887,1.347482 2.75292,1.854599 1.04322,0.970767 1.18811,2.15887 1.333,3.636754 z M 222.48933,6.46212 c -0.37671,1.477884 0.28978,3.187593 1.47789,3.926535 0.5216,0.376715 0.97076,0.449161 1.63726,0.449161 1.92704,0 3.78164,-1.405439 3.78164,-3.419418 0,-1.927045 -1.56481,-3.477374 -3.49186,-3.477374 -1.70971,0 -3.0427,0.956278 -3.40493,2.521096 z m 0,0"
     style="fill:#000000;fill-opacity:1;stroke:none;stroke-width:0.9273" />
  <path
     id="path3803"
     d="m 240.59022,50.4509 c -0.0724,3.115148 -0.37671,3.781644 -2.23131,4.085914 -0.97077,0.144891 -1.8546,0.217336 -2.82537,0.289782 v 1.782154 h 16.25672 v -1.709709 c -0.82587,-0.07245 -3.34697,-0.362227 -4.01346,-0.666497 -1.02873,-0.449161 -1.26055,-1.332993 -1.26055,-3.636753 V 30.340088 c 2.68047,-1.69522 5.49135,-3.54982 8.91077,-3.54982 2.81087,0 5.33197,1.477884 6.23029,4.071426 0.43467,1.332993 0.52161,3.187592 0.52161,3.636753 v 15.141066 c -0.30427,5.114637 0.14489,4.810367 -4.96975,5.259528 v 1.782154 h 15.72063 v -1.709709 c -4.15836,-0.434672 -4.52059,-0.217336 -4.75241,-3.042702 v -18.76333 c -0.14489,-2.521096 -0.21734,-4.969747 -1.69522,-7.128617 -1.56482,-2.216825 -4.01347,-3.028213 -6.53457,-3.028213 -4.96974,0 -9.57726,2.883323 -13.43135,5.404419 v -5.781134 l -0.73894,-0.30427 c -2.82537,1.260548 -3.92654,1.854599 -9.20056,3.564308 v 1.115657 c 2.97026,1.188103 3.56431,1.709709 4.01347,4.969747 z m 0,0"
     style="fill:#000000;fill-opacity:1;stroke:none;stroke-width:0.9273" />
  <path
     id="path3799"
     d="m 298.37723,24.558953 c -4.30325,-1.405438 -6.01296,-1.782154 -8.46161,-1.782154 -1.04321,0 -5.63624,0.07245 -8.67895,2.665987 -1.85459,1.637264 -3.0427,4.30325 -3.0427,6.983726 0,5.042192 4.30325,7.708179 5.5638,8.447121 1.99949,1.260548 4.01347,2.013979 4.75241,2.376205 2.30376,1.043212 4.44814,2.086425 5.41891,4.448141 0.28978,0.898322 0.36223,1.941534 0.36223,2.15887 0,1.405438 -0.52161,2.521096 -0.73895,2.897811 -0.66649,1.101169 -2.23131,2.883323 -5.4189,2.883323 -0.73895,0 -2.37621,-0.07245 -4.23081,-1.101169 -3.18759,-1.782154 -4.30325,-5.129126 -5.25953,-8.389164 l -1.26054,0.289781 0.73894,8.534055 c 3.18759,1.782154 5.41891,2.752921 9.27299,2.752921 6.82435,0 10.4611,-3.709199 11.64921,-6.012959 C 299.92756,50.001739 300,48.45141 300,47.697979 c 0,-4.969747 -3.47737,-7.490843 -4.88281,-8.374675 -1.27503,-0.738942 -2.23131,-1.188103 -3.56431,-1.782155 -2.30376,-0.970766 -4.30325,-1.550329 -6.15785,-3.332483 -0.59405,-0.521606 -2.23131,-2.086424 -2.30376,-4.375695 0,-2.086425 1.63727,-4.085915 3.63676,-4.824857 0.88383,-0.376715 1.92704,-0.376715 2.23131,-0.376715 0.73894,0 2.21683,0.07245 3.85409,0.970767 2.44865,1.477884 3.33249,3.781644 3.63676,4.665476 0.21733,0.666497 0.43467,1.419928 0.59405,2.086425 l 1.33299,0.07245 z m 0,0"
     style="fill:#000000;fill-opacity:1;stroke:none;stroke-width:0.9273" />
</svg>
