<?xml version="1.0" encoding="UTF-8"?>
<svg id="Layer_1" xmlns="http://www.w3.org/2000/svg" version="1.1" viewBox="0 0 295 42.4">
  <!-- Generator: Adobe Illustrator 29.8.2, SVG Export Plug-In . SVG Version: 2.1.1 Build 3)  -->
  <defs>
    <style>
      .st0 {
        fill: none;
      }
    </style>
  </defs>
  <rect id="backgroundrect" class="st0" width="295" height="42"/>
  <g id="svg_1">
    <path id="svg_2" d="M259.5,5.5c0-2.9.9-3.9,2.4-3.9s2.7.6,4.1,3.9l8.5,19.3v12.2c0,2.9-1.2,3.7-4.5,4.1v.8h15.7v-.8c-3.4-.4-4.5-1.3-4.5-4.1v-12.2l8.2-18.6c1.6-3.6,3.2-4.4,5.6-4.8v-.8h-11.5v.8c3.9.4,5.3,1.5,4.2,4.1l-7.2,16.5-7.4-16.9c-1-2.3-.4-3,3.9-3.6v-.8h-24.7v.8c3.9.6,5.1,1.3,5.1,4.1v22.6L239.3.7h-8.9v.8c2.9.4,3.8,1.3,3.8,4.1v31.5c0,2.9-.8,3.9-1.8,3.9-.9,0-1.4-.4-2.7-3.9L216.3.5h-.8l-12.9,35c-1.4,3.9-3.6,5.2-5.8,5.7v.8h11.8v-.8c-4.1-.4-5.4-2-4.5-4.6l2.9-8h12.2l2.8,7.5c1.2,3.4.5,4.4-3,5v.8h22.4v-.8c-3.9-.6-5.1-1.3-5.1-4.1V8.8l21.9,33.2h1.3V5.5h0ZM101.6,21.2c0-12.8,6.1-19.5,13.2-19.5,4.2,0,6.9.9,8.5,2.6,1.2,1.2,2.1,2.9,3.1,5.6h.8V1.3C123.1.5,119.4,0,115.7,0,105,0,93.9,6.9,93.9,21.2s11.1,21.2,21.1,21.2c4.4,0,8.3-.7,12-1.8l1.2-8.1-.7-.2c-.9,1.7-2,3.2-3.2,4.5-2.6,2.6-6.1,4-9.6,4-6.8-.1-13.1-6.6-13.1-19.6ZM190.3,22.4c-.9,0-2.1-.1-3.3-.3V2.1h3.3c5.5,0,7.9,2.9,7.9,10.1s-2.5,10.2-7.9,10.2ZM61.8.6v9.9h.8c1.2-6.3,3.7-8.3,7.9-8.3h2v34.8c0,2.9-1.2,3.7-4.5,4.1v.8h15.7v-.8c-3.4-.4-4.5-1.3-4.5-4.1V2.1h2c4.2,0,6.7,2,7.9,8.3h.8V.5h-28.1v.1ZM49.3,42.4c6.8,0,14-3.9,14-11.9,0-4.7-2.5-8.6-6.9-11l-7.8-4.3c-4.1-2.3-5.3-4.4-5.3-7.4,0-3.4,2.5-6.1,7.2-6.1,2.3,0,4,.6,5.4,1.9,1.2,1.2,2.4,3.2,3.5,6.8h.7V1.3C57.3.5,54.4,0,51,0,44.3,0,39.3,4.2,39.3,11.3c0,4.5,2.5,8.6,6.6,11l7.2,4c4.1,2.3,5.4,4.5,5.4,7.8,0,3.9-4,6.7-8.4,6.7-2.9,0-5.3-1-7-2.7-1.1-1.1-2.3-2.8-3.1-5h4.7v-.8c-1.3-.3-2.1-.5-3.2-3.1l-9.2-21.9h-.8l-9,21.4c-1.2,2.9-2,3.4-3.4,3.6v.8h8v-.8c-2.9-.3-3.7-1.7-3-3.5l1.4-3.4h8.1l1.8,4.2c.8,1.9-.4,2.4-3.3,2.6v.8h6.4v7.9c3.2.9,7.3,1.5,10.8,1.5ZM150.9,42l11.9-33.1.9,28.2c.1,2.8-1,3.6-4.4,4v.8h32.8v-.8c-3.9-.6-5.1-1.3-5.1-4.1v-13.3c1.3.2,2.6.3,3.6.3,7.9,0,14.7-2.9,14.7-11.7s-6.8-11.7-14.7-11.7h-14.1v.8c2.9.4,3.8,1.3,3.8,4.1v31.5c0,2.9-1.2,4.1-4.5,4.1h-.1c-3.5,0-5-1.3-5.1-4l-1.2-31.5c-.1-2.9.9-3.8,4-4.2v-.8h-9.7l-10.6,29.7L142.5.6h-10.4v.8c3.1.4,4.1,1.4,4,4.2l-1.1,30.2c-.1,3-1.7,4.8-4.6,5.3v.8h11v-.8c-2.8-.4-4.4-2.2-4.3-5.3l.9-27.5,12.1,33.6.8.1h0ZM119,33.3c5.3,0,12.1-4.7,12.1-12.1s-6.7-12.1-12.1-12.1-12.1,4.7-12.1,12.1c0,7.3,6.7,12.1,12.1,12.1ZM119,10.8c3.4,0,5.7,2.8,5.7,10.4s-2.4,10.4-5.7,10.4-5.7-2.8-5.7-10.4,2.3-10.4,5.7-10.4ZM218.7,26.9h-11.1l5.5-15.2,5.6,15.2ZM33.1,23.8h-6.8l3.4-8.3,3.4,8.3ZM20.1,25.9h.8v-12.4h-.8c-1.3,4.4-2.6,5.4-5,5.4h-4.6V2.1h7.3c4.2,0,6.7,2,7.9,8.3h.8V.5H0v.8c2.9.4,3.8,1.3,3.8,4.1v31.5C3.8,39.8,2.9,40.6,0,41v.8h15.6v-.8c-3.9-.6-5.1-1.3-5.1-4.1v-16.5h4.6c2.3.1,3.7,1.1,5,5.5Z"/>
  </g>
</svg>