<?xml version="1.0" encoding="UTF-8"?>
<svg id="svg2" xmlns="http://www.w3.org/2000/svg" xmlns:svg="http://www.w3.org/2000/svg" xmlns:sodipodi="http://sodipodi.sourceforge.net/DTD/sodipodi-0.dtd" xmlns:rdf="http://www.w3.org/1999/02/22-rdf-syntax-ns#" xmlns:inkscape="http://www.inkscape.org/namespaces/inkscape" xmlns:dc="http://purl.org/dc/elements/1.1/" xmlns:cc="http://creativecommons.org/ns#" version="1.1" viewBox="0 0 3096 433.28">
  <!-- Generator: Adobe Illustrator 29.8.2, SVG Export Plug-In . SVG Version: 2.1.1 Build 3)  -->
  <defs>
    <style>
      .st0 {
        fill: #e41d22;
      }
    </style>
  </defs>
  <sodipodi:namedview id="namedview4" bordercolor="#666666" borderopacity="1" gridtolerance="10" guidetolerance="10" inkscape:current-layer="svg2" inkscape:cx="1576.1567" inkscape:cy="316.40329" inkscape:pageopacity="0" inkscape:pageshadow="2" inkscape:window-height="737" inkscape:window-maximized="1" inkscape:window-width="1366" inkscape:window-x="0" inkscape:window-y="0" inkscape:zoom="0.32" objecttolerance="10" pagecolor="#ffffff" showgrid="false" showguides="true"/>
  <path id="path176" d="M711,134.17v257h89V134.17h-89Z" inkscape:connector-curvature="0" sodipodi:nodetypes="ccccc"/>
  <path id="path174" d="M435,46.15l-139.5.51-76.51,227.5L144.76,46.17H0v345h90.23l-1.52-261,83.88,260.5,85.11.52,87.1-261.52.2,261.5h90V46.15Z" inkscape:connector-curvature="0" sodipodi:nodetypes="cccccccccccccc"/>
  <path id="path199" d="M2458,132.17v258h89V132.17h-89Z" inkscape:connector-curvature="0" sodipodi:nodetypes="ccccc"/>
  <path id="path197" d="M1428,132.17v86.25c.01,69.76.29,88.07,1.45,95.75,6.89,45.69,35.83,74.96,80.05,80.94,10.12,1.37,33.39.41,44-1.82,27.64-5.8,49.47-20.79,62.61-43l3.59-6.07.65,10.63c.67,12.06.65,35.32.65,35.32h81V132.17h-88.9l-.37,66.75c-.35,63.34-.47,67.21-2.45,75.75-4.17,18.04-10.31,29.35-20.13,37.05-13.28,10.42-35.97,13.14-50.06,6-8.93-4.53-16.22-14.94-19.57-27.98-3.13-12.18-3.54-22.62-3.54-89.8v-67.78h-89Z" inkscape:connector-curvature="0" sodipodi:nodetypes="cccssccccccccccscscc"/>
  <path id="path195" d="M574.5,128.74c-28.21.03-39.52,1.07-60.47,5.59-9.11,1.96-35.29,10.01-37.69,11.58-.87.57-.97,8.2-.4,30.03.42,16.1,1.01,29.51,1.31,29.81.3.3,3.63-1,7.4-2.88,31.22-15.6,84.26-20.25,109.17-9.57,13.59,5.82,21.48,16.96,23.56,33.21l.62,4.85-4.74-.49c-24.6-2.56-37.95-3.02-54.93-1.92-26.07,1.7-42.33,4.79-59.95,11.41-27.9,10.48-45.77,28.68-52.56,53.51-1.71,6.28-2.13,10.6-2.13,22.29,0,17.08,1.83,25.42,8.34,37.93,11.37,21.85,35.8,37.3,66.48,42.03,3.3.51,13.88.78,23.5.61,15.47-.28,18.52-.62,26.31-2.95,19.23-5.76,33.51-16.09,46.74-33.81l5.75-7.7.56,3.2c.31,1.76,1.1,10.51,1.76,19.45l1.2,16.25h40.91c39.77,0,40.31-1.9,40.31-1.9l-2.2-12.75s-1.74-25.36-2.34-85.85c-.79-80.33-.69-78.76-6.15-95.5-9.61-29.46-32.96-50.8-66.11-60.41-18.24-5.28-25.16-6.05-54.23-6.02ZM583.61,276.22c5.65-.04,11.85.1,18.66.42l15.77.74-.61,5.14c-3,25.43-17.51,45.55-38.01,52.7-7.79,2.71-21.06,3.38-28.68,1.45-10.8-2.74-17.12-7.12-21.29-14.75-5.75-10.51-2.91-25.75,6.29-33.83,9.15-8.04,23.37-11.7,47.86-11.87Z"/>
  <path id="path193" d="M1842.51,126.65c-23.5-.17-49.19,2.62-71.01,8.1-9.66,2.43-26.48,7.81-29.45,9.43-1.57.85-1.69,14.64-.42,45.62l.62,15.12,8.12-3.8c15.99-7.49,32.66-11.91,52.99-14.06,13.76-1.46,38.06-.63,46.13,1.57,19.56,5.33,29.85,16.1,32.66,34.15.56,3.6.85,6.71.64,6.92-.21.21-6.21-.32-13.34-1.17-18.1-2.16-55.16-1.37-71.96,1.53-31.22,5.39-50.77,13.77-66.14,28.37-17.48,16.6-25.44,39.96-22.48,65.96,2.08,18.25,7.74,31.07,19.03,43.09,14.13,15.04,34.12,24.28,59.59,27.54,40.79,5.22,72.29-7.54,93.76-38,2.24-3.17,4.38-5.58,4.76-5.34.38.24,1.28,8.99,2,19.46l1.3,19.03h81.89l-.54-2.25c-.3-1.24-1.04-6.08-1.64-10.75s-1.35-9.85-1.64-11.5-.89-36.52-1.32-77.5c-.84-79.89-.8-79.27-6.28-95.5-10.95-32.42-38.51-54.32-78.64-62.47-11.22-2.28-24.54-3.45-38.64-3.55ZM1846.18,274.81c1.77,0,3.7.01,5.82.03,11.28.09,22.9.47,25.84.83l5.34.67-.7,6.17c-.91,7.98-4.69,19.83-8.35,26.18-6.88,11.92-18.82,21.76-30.91,25.5-7.52,2.32-21.94,2.57-29.44.51-9.58-2.64-17.15-8.7-20.31-16.26-.82-1.97-1.46-6.61-1.45-10.63.02-16.36,9.95-26.21,31.49-31.25,5.79-1.36,10.29-1.75,22.68-1.74Z"/>
  <path id="path219" d="M2134.42,126.61c-10.34-.08-18.7,1.29-27.67,4.26-16.46,5.44-31.77,18.86-42.58,37.33l-5.93,10.14c-.49-15.39-1.47-46.17-1.47-46.17h-80.77v258h89v-59.75c.02-73.16.62-78.87,10.3-97.75,7.88-15.37,21.42-26.1,37.79-29.96,7.75-1.83,31.96-2.07,40.27-.4,3.13.63,5.88.95,6.11.72.43-.43,4.53-64.17,4.53-70.36v-3.3l-8.25-1.07c-8.2-1.07-15.12-1.64-21.33-1.69h0Z"/>
  <path id="path191" d="M2687,126.87c-33.22,0-59.59,3.91-86.97,12.89l-14.13,4.63.69,30.14c.38,16.57.74,30.22.81,30.31s3.27-1.31,7.12-3.14c23.42-11.13,50.2-16.3,78.93-15.24,16.39.6,24.61,2.2,33.28,6.44,11.77,5.76,19.71,17.41,20.96,30.75l.63,6.79-3.41-.62c-15.19-2.76-47.61-3.53-67.48-1.6-38.28,3.72-68.47,15.85-84.85,34.07-6.54,7.28-11.03,15.16-14.74,25.92-3.16,9.16-3.26,9.95-3.29,25.95-.03,17.61.9,22.84,6.23,35,10.67,24.36,37.86,41.66,72.22,45.95,11.38,1.42,33.06.46,42.73-1.9,20.04-4.89,36.55-16.51,50.87-35.84,2.56-3.46,4.82-6.13,5.01-5.94.26.26,3.39,35.64,3.39,38.31,0,.23,18.23.42,40.5.42,37.92,0,40.5-.11,40.46-1.75-.02-.96-.74-5.8-1.6-10.75-1.27-7.3-1.7-23.15-2.31-84-.64-64-1-76.31-2.44-83.94-4.25-22.48-12.46-38.48-26.8-52.2-22.1-21.16-51.8-30.66-95.82-30.66ZM2691.37,274.86c1.67,0,3.47,0,5.4,0,11.15.04,22.74.39,25.75.76l5.48.69v4.27c0,5.68-3.27,18.22-6.33,24.24-6.62,13.04-17.52,23.48-29.69,28.42-6.85,2.78-26.05,3.72-32.48,1.58-15.99-5.31-23.79-16.04-22.1-30.43,1.67-14.2,12.31-23.56,31.77-27.96,4.9-1.11,10.5-1.53,22.2-1.58Z"/>
  <path id="path189" d="M2998.17,126.55c-25.08-.13-50.58,6.98-68.67,20.88-8.07,6.2-18.27,17.88-22.25,25.49-1.51,2.89-3.08,5.25-3.48,5.25s-.85-10.24-1-22.75l-.27-22.75-81.5-.52v258.02h88.8l.5-64.25c.4-51.18.81-65.91,2.01-72.43,4.55-24.74,13.3-39.49,27.73-46.71,9.06-4.53,16.19-5.92,27.89-5.44,8.57.36,10.23.75,15.94,3.81,9.58,5.13,15.86,14.38,19.56,28.8,2.97,11.57,3.57,26.77,3.57,91.31v64.89h89v-83.75s-.43-87.35-1.04-92.75c-3.7-32.72-19.3-59.51-42.74-73.44-15.3-9.09-34.55-13.58-54.05-13.68h0Z" inkscape:connector-curvature="0" sodipodi:nodetypes="cccscccccccccsssccccccc"/>
  <path id="path170" d="M1306.99,39.24c-33.92-.17-68.48,3.68-96.99,11.59-40.03,8.39-110.27,51.99-130.88,124.43-14.3,77.07,8.09,129.31,57.78,172.41,28.5,21.16,53.82,33.98,88.28,41.88,43.87,9.75,105.78,8.47,164.82-3.41,10.72-2.16,21.19-4.41,23.25-5l3.75-1.07v-191.91h-143v66h54v67.92l-6.52,2.01c-3.59,1.11-9.55,2.27-13.25,2.58s-8.3.7-10.23.87c-6.77.59-25.91-1.3-35.15-3.46-42.32-8.79-60.97-36.61-68.6-48.54-16.08-24.11-19.19-59.86-12.25-84.33,3.85-15.82,15.76-37.7,27.66-49.11,11.66-11.18,23.46-18.18,42.07-24.96,42.4-15.91,103.04-9.55,139.27,7.69,4.68,2.29,8.71,3.97,8.95,3.73.24-.24,1.9-15.39,3.68-33.66,1.78-18.27,3.45-34.91,3.71-36.96l.47-3.74-7.65-2.41c-25.96-8.18-59.24-12.37-93.17-12.54h0Z" inkscape:connector-curvature="0" sodipodi:nodetypes="sccccscccccccccccccccccccccs"/>
  <path id="path168" d="M800,26.15l-88.5.52-.53,65.5h89.03V26.15Z" inkscape:connector-curvature="0" sodipodi:nodetypes="ccccc"/>
  <path id="path166" d="M2458,24.17v66h89V24.17h-89Z" inkscape:connector-curvature="0" sodipodi:nodetypes="ccccc"/>
  <path id="path164" d="M2351.5,24.17l.53,141.37-5.47-6.05c-10.61-11.72-25.1-21.2-40.11-26.23-13.75-4.61-25.77-6.39-42.94-6.38-16.45,0-23.75,1.21-37.24,6.14-35.19,12.84-61.75,47.38-71.23,92.65-2.72,12.97-3.68,36.35-2.1,51,3.95,36.55,16.1,65.15,36.8,86.63,17.25,17.9,38.14,28.32,63.77,31.8,9.41,1.28,29.33.59,38.2-1.33,27.23-5.88,50.49-21.34,62.41-41.48l3.59-6.07.65,12.13c.6,10.61.65,21.2.65,31.81h82V24.17h-89.5ZM2297.58,195.28c6.4.08,13.1.99,17.59,2.62,22.4,8.14,36.83,32.94,36.83,63.27s-16.74,57.71-41,64.33c-7.46,2.04-12.31,2.41-20,1.55-21.64-2.42-37.17-17.73-44.15-43.5-2.92-10.78-3.2-35.64-.5-45.38,5.98-21.63,19.23-36.09,38.04-41.52,3.43-.99,8.22-1.43,13.19-1.37Z" inkscape:connector-curvature="0" sodipodi:nodetypes="ccccccsccsccccccccczcsssscsz"/>
  <path id="path37" d="M810,21.17v370h88.99V21.17h-88.99Z" inkscape:connector-curvature="0" sodipodi:nodetypes="ccccc"/>
  <path id="path12" class="st0" d="M997.88,432.87c-56.72-2.87-92-14.25-117.66-37.96-16.57-15.3-26.6-37.08-29.64-64.33-3.48-31.25,2.54-57.91,18.44-81.61,16-28.81,52.85-47.77,82.73-58.24,5.36-1.84,9.72-3.56,9.69-3.84-.03-.27-4.19-2.49-9.24-4.93-7.54-3.63-10.62-5.88-17.21-12.5-9.12-9.17-14.07-17.62-17.65-30.12-1.91-6.67-2.28-10.38-2.29-22.95-.02-20.05,2.76-30.38,12.96-48.07,5.65-9.8,24.25-28.33,36.5-36.37,19.53-12.82,45.45-23.25,71-28.58,21.75-4.54,57.31-4.49,83.92.1,9.61,1.66,22.86,5.04,25.05,6.39,1.22.75.42,6.75-5.17,39.2-3.64,21.07-6.94,39.44-7.34,40.82l-.73,2.5-.69,1.5h-24.21l.55-3.75c.3-2.06.83-10.73,1.18-19.25l.63-15.5-3.34-3.19c-11.6-11.06-30.45-17.37-51.91-17.39-31.54-.02-57.99,13.94-69.26,36.57-4.65,9.34-6.1,16.13-6.09,28.5.01,9.13.49,13.05,2.31,19,8.04,26.25,31.62,40.83,66.86,41.32,7.29.1,13.25.18,13.25.18-.12,0-4.99,37.18-4.99,38.11,0,1.08-1.87,1.39-8.26,1.39-12.23,0-31.71,2.54-44.75,5.83-33.17,8.38-56.6,25.3-69.43,50.15-8.29,16.05-10.99,32.82-8.68,53.89,3.82,34.86,18.61,58.92,45.19,73.5,8.43,4.63,24.94,10.03,37.43,12.25,14.3,2.54,49.06,2.53,63-.01,30.59-5.58,50.63-15.52,67.9-33.67,6.41-7.19,11.64-15.37,14.88-21.94,7.42-15.16,9.19-22.86,9.21-40,.02-16.63-1.11-21.21-7.57-30.89-4.36-6.52-11.42-11.94-19.94-15.27-7.89-3.09-27.27-3.79-35.57-1.28-3.25.98-6.43,1.89-7.08,2.02-2.33.46-10.23,6.5-13.15,10.03-6.71,8.14-12.18,22.99-12.18,33.06v4.34h-8c-7.35,0-8-.16-8-2.01,0-2.37,6.71-61.02,7.52-65.68.69-3.97,8.77-10.64,22.49-18.56,18.73-10.8,40.92-16.56,75.99-19.71,35.5-3.19,43.07-4.3,62.19-9.1,38.41-9.65,57.81-23.91,57.81-42.48,0-11.95-5.47-25.62-12.22-30.5-2.22-1.61-4.43-2.68-4.91-2.38-1.88,1.16.3-6.67,4.11-14.75l1.26-2.67,4.13,2.12c6.83,3.6,13.07,8.56,17.63,13.46,8.23,8.9,15.12,21.81,17.06,31.96,1.95,10.22.8,29.32-2.29,38.03-2.58,10.6-10.62,20.69-14.85,25.11-1.34,1.39-4.53,4.14-10.63,9.16-2.77,1.7-5.72,3.12-7.99,4.48-13.86,8.26-41.25,15.88-61.44,17.08-15.65.94-15.25.21-5.62,10.33,14.13,14.85,20.76,30.77,20.76,49.81,0,38.26-24.43,74.9-67.59,101.36-17.75,10.46-37.59,19.28-55.6,24.5-32.5,9.36-66.02,13.17-100.44,11.43h0Z" inkscape:connector-curvature="0" sodipodi:nodetypes="ccsccccccccssccccccccccccccsccsssccccccccccccccscsscccsscccccccccccccscccc"/>
</svg>