<?xml version="1.0" encoding="UTF-8" standalone="no"?>
<!-- Created with Inkscape (http://www.inkscape.org/) -->

<svg
   xmlns:dc="http://purl.org/dc/elements/1.1/"
   xmlns:cc="http://creativecommons.org/ns#"
   xmlns:rdf="http://www.w3.org/1999/02/22-rdf-syntax-ns#"
   xmlns:svg="http://www.w3.org/2000/svg"
   xmlns="http://www.w3.org/2000/svg"
   xmlns:sodipodi="http://sodipodi.sourceforge.net/DTD/sodipodi-0.dtd"
   xmlns:inkscape="http://www.inkscape.org/namespaces/inkscape"
   version="1.1"
   id="svg2"
   width="3238"
   height="670"
   viewBox="0 0 3238 670"
   sodipodi:docname="Mail_and_Guardian_logo.svg"
   inkscape:version="0.92.5 (2060ec1f9f, 2020-04-08)">
  <metadata
     id="metadata8">
    <rdf:RDF>
      <cc:Work
         rdf:about="">
        <dc:format>image/svg+xml</dc:format>
        <dc:type
           rdf:resource="http://purl.org/dc/dcmitype/StillImage" />
        <dc:title></dc:title>
      </cc:Work>
    </rdf:RDF>
  </metadata>
  <defs
     id="defs6" />
  <sodipodi:namedview
     pagecolor="#ffffff"
     bordercolor="#666666"
     borderopacity="1"
     objecttolerance="10"
     gridtolerance="10"
     guidetolerance="10"
     inkscape:pageopacity="0"
     inkscape:pageshadow="2"
     inkscape:window-width="1366"
     inkscape:window-height="737"
     id="namedview4"
     showgrid="false"
     showguides="true"
     inkscape:zoom="0.32"
     inkscape:cx="1576.1567"
     inkscape:cy="316.40329"
     inkscape:window-x="0"
     inkscape:window-y="0"
     inkscape:window-maximized="1"
     inkscape:current-layer="svg2" />
  <g
     id="g41"
     transform="translate(-8.3333333,588.88889)" />
  <g
     id="g12"
     transform="translate(-88.672644,701.32)" />
  <path
     style="fill:#000000"
     d="m 794,264.81836 v 257 h 89 v -257 z"
     id="path176"
     inkscape:connector-curvature="0"
     sodipodi:nodetypes="ccccc" />
  <path
     style="fill:#000000"
     d="m 518,176.80469 -139.5,0.51367 -76.50977,227.5 -74.22851,-228 H 83 v 345 h 90.23047 l -1.51758,-261 83.87891,260.5 85.10547,0.52148 87.10351,-261.52148 0.19922,261.5 h 90 z"
     id="path174"
     inkscape:connector-curvature="0"
     sodipodi:nodetypes="cccccccccccccc" />
  <path
     style="fill:#000000"
     d="m 2541,262.81836 v 258 h 89 v -258 z"
     id="path199"
     inkscape:connector-curvature="0"
     sodipodi:nodetypes="ccccc" />
  <path
     style="fill:#000000"
     d="m 1510.9961,262.81836 0.01,86.25 c 0,69.75514 0.2807,88.06737 1.4394,95.75391 6.8879,45.69067 35.8346,74.95871 80.0547,80.9414 10.1209,1.36929 33.3867,0.40783 44,-1.81836 27.6429,-5.79823 49.4667,-20.787 62.6074,-43 l 3.5918,-6.07422 0.6504,10.62891 c 0.6743,12.06099 0.6504,35.31836 0.6504,35.31836 h 81 v -258 h -88.9004 l -0.3652,66.75 c -0.3472,63.33728 -0.4729,67.21014 -2.4473,75.75 -4.1717,18.04445 -10.3114,29.34732 -20.1289,37.05273 -13.2764,10.42026 -35.9673,13.1396 -50.0566,6 -8.9345,-4.52747 -16.22,-14.9433 -19.5664,-27.97656 -3.1284,-12.18388 -3.5391,-22.62253 -3.5391,-89.80078 v -67.77539 z"
     id="path197"
     inkscape:connector-curvature="0"
     sodipodi:nodetypes="cccssccccccccccscscc" />
  <path
     style="fill:#000000"
     d="M 657.5 259.38867 C 629.28526 259.41697 617.98477 260.46054 597.02539 264.98047 C 587.92005 266.94405 561.73864 274.99202 559.33984 276.56445 C 558.47471 277.13155 558.37397 284.76216 558.94336 306.5918 C 559.36321 322.68857 559.95274 336.10313 560.25195 336.40234 C 560.55115 336.70155 563.87957 335.40613 567.64844 333.52344 C 598.87022 317.92704 651.90927 313.27752 676.81445 323.95312 C 690.40119 329.77708 698.29745 340.91044 700.37109 357.16797 L 700.98828 362.01758 L 696.24414 361.52539 C 671.64003 358.96971 658.29851 358.50431 641.31836 359.60938 C 615.25042 361.30584 598.99193 364.40063 581.36523 371.02148 C 553.4689 381.49977 535.59566 399.69766 528.80859 424.53125 C 527.09361 430.80629 526.68164 435.13333 526.68164 446.81836 C 526.68164 463.89779 528.51394 472.23583 535.02148 484.74414 C 546.39155 506.59887 570.82612 522.04525 601.5 526.76953 C 604.8 527.27778 615.375 527.55228 625 527.38086 C 640.47253 527.1053 643.51956 526.76414 651.30664 524.43164 C 670.53339 518.67257 684.81304 508.34285 698.04688 490.61914 L 703.79688 482.91992 L 704.35547 486.11914 C 704.6632 487.87877 705.45477 496.63085 706.11328 505.56836 L 707.31055 521.81836 L 748.22266 521.81836 C 787.99445 521.81836 788.53125 519.91406 788.53125 519.91406 L 786.33008 507.16406 C 786.33008 507.16406 784.59249 481.80218 783.99414 421.31836 C 783.19948 340.98981 783.30016 342.56004 777.83984 325.81836 C 768.23094 296.35688 744.87857 275.01805 711.73047 265.41211 C 693.49539 260.12779 686.56589 259.35957 657.5 259.38867 z M 666.60742 406.86719 C 672.2596 406.82669 678.45893 406.97168 685.26953 407.29102 L 701.04102 408.03125 L 700.43359 413.17383 C 697.43617 438.6054 682.92129 458.7282 662.41992 465.87109 C 654.63228 468.58439 641.35528 469.25603 633.74219 467.32227 C 622.94037 464.57856 616.62157 460.20248 612.44922 452.57227 C 606.70297 442.06375 609.53904 426.82047 618.74414 418.73828 C 627.89742 410.7016 642.11464 407.04282 666.60742 406.86719 z "
     id="path195" />
  <path
     style="fill:#000000"
     d="M 1925.5078 257.29688 C 1902.0039 257.12815 1876.3169 259.91258 1854.5 265.39844 C 1844.8424 267.82685 1828.0219 273.2128 1825.0547 274.82812 C 1823.4876 275.68126 1823.3614 289.46671 1824.6348 320.44336 L 1825.2559 335.56836 L 1833.3789 331.76562 C 1849.3717 324.27916 1866.0341 319.85827 1886.3652 317.70508 C 1900.1276 316.24756 1924.4259 317.07387 1932.5 319.27539 C 1952.0592 324.60851 1962.3506 335.37073 1965.1621 353.42969 C 1965.7222 357.02769 1966.0102 360.14012 1965.8027 360.34766 C 1965.5952 360.55519 1959.5924 360.02966 1952.4629 359.17969 C 1934.3604 357.02154 1897.3028 357.80918 1880.5 360.70898 C 1849.2779 366.09727 1829.7278 374.48343 1814.3633 389.07812 C 1796.8851 405.68072 1788.9241 429.03815 1791.8809 455.04102 C 1793.9566 473.29507 1799.6173 486.11381 1810.9102 498.13281 C 1825.0416 513.17291 1845.0288 522.40991 1870.5 525.66992 C 1911.2948 530.89115 1942.7859 518.12926 1964.2637 487.67383 C 1966.5011 484.50111 1968.6455 482.09801 1969.0273 482.33398 C 1969.4091 482.56996 1970.3064 491.32599 1971.0234 501.79102 L 1972.3281 520.81836 L 2013.2715 520.81836 L 2054.2168 520.81836 L 2053.6758 518.56836 C 2053.3785 517.33086 2052.6393 512.49336 2052.0312 507.81836 C 2051.4232 503.14336 2050.6846 497.96836 2050.3906 496.31836 C 2050.0966 494.66836 2049.5033 459.79336 2049.0723 418.81836 C 2048.232 338.92516 2048.2737 339.5447 2042.793 323.31836 C 2031.8423 290.89713 2004.28 269.00159 1964.1504 260.84375 C 1952.9266 258.56209 1939.6102 257.3981 1925.5078 257.29688 z M 1929.1797 405.45508 C 1930.9497 405.45708 1932.8814 405.46903 1935 405.48633 C 1946.275 405.57873 1957.9016 405.95264 1960.8379 406.31836 L 1966.1777 406.98438 L 1965.4766 413.15039 C 1964.5699 421.13302 1960.7888 432.98481 1957.123 439.33398 C 1950.2427 451.25051 1938.3054 461.09823 1926.2168 464.83203 C 1918.6965 467.15481 1904.2758 467.40249 1896.7754 465.33789 C 1887.1987 462.7018 1879.622 456.63509 1876.4629 449.07422 C 1875.6386 447.10148 1874.9998 442.46126 1875.0098 438.44531 C 1875.0318 422.08516 1884.9551 412.23701 1906.5 407.19141 C 1912.2873 405.83607 1916.7899 405.43971 1929.1797 405.45508 z "
     id="path193" />
  <path
     style="fill:#000000"
     d="m 2217.4238,257.26367 c -10.344,-0.0811 -18.7024,1.29273 -27.6738,4.25781 -16.4601,5.44013 -31.7669,18.85903 -42.5762,37.32618 l -5.9336,10.14062 c -0.4928,-15.38993 -1.4746,-46.16992 -1.4746,-46.16992 H 2059 v 258 h 89 l 0.01,-59.75 c 0.012,-73.16484 0.6082,-78.86873 10.2929,-97.75 7.8826,-15.36781 21.4201,-26.10058 37.7891,-29.95898 7.7549,-1.82795 31.9583,-2.06757 40.2695,-0.39844 3.1299,0.62852 5.8801,0.9519 6.1133,0.71875 0.4254,-0.42543 4.5293,-64.17297 4.5293,-70.35742 v -3.29688 l -8.25,-1.07422 c -8.1983,-1.06667 -15.1198,-1.63887 -21.3262,-1.6875 z"
     id="path219" />
  <path
     style="fill:#000000"
     d="M 2770 257.52344 C 2736.7802 257.52644 2710.4089 261.43667 2683.0293 270.41406 L 2668.8965 275.04688 L 2669.582 305.18359 C 2669.9596 321.75798 2670.3255 335.39935 2670.3965 335.49805 C 2670.4675 335.59675 2673.6707 334.18352 2677.5137 332.35742 C 2700.9329 321.2291 2727.7134 316.05747 2756.4434 317.11719 C 2772.831 317.72166 2781.0537 319.31385 2789.7266 323.56055 C 2801.4962 329.32357 2809.4364 340.97483 2810.6816 354.30859 L 2811.3164 361.09961 L 2807.9082 360.47852 C 2792.7201 357.71387 2760.2995 356.94676 2740.4238 358.88086 C 2702.1441 362.60583 2671.9563 374.72637 2655.5723 392.94922 C 2649.0314 400.22435 2644.5469 408.10997 2640.832 418.87305 C 2637.6713 428.02999 2637.5719 428.82292 2637.5469 444.81836 C 2637.5189 462.42948 2638.4495 467.65498 2643.7793 479.81836 C 2654.4521 504.17512 2681.6424 521.47394 2716 525.76562 C 2727.3816 527.18733 2749.0583 526.22271 2758.7266 523.86523 C 2778.7711 518.97763 2795.2756 507.3504 2809.5938 488.0293 C 2812.157 484.57019 2814.4127 481.89706 2814.6055 482.08984 C 2814.8644 482.34874 2818 517.73396 2818 520.39648 C 2818 520.62823 2836.225 520.81836 2858.5 520.81836 C 2896.4183 520.81836 2898.9978 520.7068 2898.9648 519.06836 C 2898.9448 518.10586 2898.2271 513.26836 2897.3691 508.31836 C 2896.1034 501.01643 2895.6671 485.16775 2895.0566 424.31836 C 2894.4144 360.31433 2894.0569 348.00789 2892.6152 340.38281 C 2888.3649 317.90303 2880.1511 301.90402 2865.8184 288.18164 C 2843.7194 267.02374 2814.0165 257.51944 2770 257.52344 z M 2774.3711 405.51172 C 2776.0422 405.50472 2777.8379 405.50567 2779.7734 405.51367 C 2790.9235 405.55797 2802.511 405.90097 2805.5234 406.27734 L 2811 406.96289 L 2811 411.23047 C 2811 416.9099 2807.7252 429.45477 2804.6719 435.47266 C 2798.0563 448.51184 2787.1486 458.95038 2774.9785 463.89062 C 2768.1288 466.67116 2748.9251 467.60749 2742.5 465.47461 C 2726.5052 460.16502 2718.7112 449.43334 2720.4023 435.04492 C 2722.0708 420.84896 2732.7146 411.48334 2752.1719 407.08789 C 2757.0695 405.9815 2762.6733 405.55895 2774.3711 405.51172 z "
     id="path191" />
  <path
     style="fill:#000000"
     d="m 3081.1699,257.19727 c -25.0756,-0.13408 -50.5769,6.98042 -68.6699,20.88281 -8.069,6.20006 -18.2681,17.88111 -22.252,25.48633 -1.5118,2.8862 -3.0764,5.249 -3.4785,5.25 -0.4022,10e-4 -0.8522,-10.23555 -1,-22.74805 l -0.2695,-22.75 -81.5,-0.52344 v 258.02344 h 88.8047 l 0.5019,-64.25 c 0.4002,-51.1775 0.8089,-65.91466 2.0059,-72.42774 4.5468,-24.74106 13.3042,-39.48983 27.7305,-46.70703 9.0613,-4.53315 16.1886,-5.92313 27.8906,-5.43554 8.5741,0.35727 10.2268,0.75416 15.9375,3.81445 9.578,5.13273 15.8575,14.37765 19.5625,28.80273 2.9718,11.57042 3.5664,26.77083 3.5664,91.3086 v 64.89453 h 89 l -0.01,-83.75 c 0,0 -0.4159,-87.34964 -1.0273,-92.75 -3.7038,-32.71688 -19.2977,-59.50938 -42.7422,-73.4375 -15.301,-9.09012 -34.5458,-13.57874 -54.0488,-13.68359 z"
     id="path189"
     inkscape:connector-curvature="0"
     sodipodi:nodetypes="cccscccccccccsssccccccc" />
  <path
     style="fill:#000000"
     d="m 1389.9863,169.88867 c -33.9229,-0.16961 -68.4825,3.68381 -96.9863,11.5918 -40.0319,8.38548 -110.2719,51.99022 -130.875,124.42578 -14.2999,77.07039 8.0885,129.31384 57.7773,172.41211 28.4976,21.15672 53.8245,33.97638 88.2813,41.88281 43.867,9.74633 105.7814,8.46752 164.8164,-3.40625 10.725,-2.15713 21.1875,-4.40528 23.25,-4.99609 l 3.75,-1.07422 V 318.81836 h -143 v 66 h 54 v 67.91992 l -6.5234,2.01367 c -3.5875,1.10806 -9.55,2.26966 -13.25,2.58008 -3.7,0.31041 -8.3016,0.70076 -10.2266,0.86719 -6.7736,0.5856 -25.9083,-1.30126 -35.1523,-3.46484 -42.3201,-8.78725 -60.9715,-36.60885 -68.6016,-48.54102 -16.0757,-24.11188 -19.1859,-59.8615 -12.2539,-84.33398 3.8491,-15.81982 15.7632,-37.69644 27.6601,-49.10938 11.6552,-11.18097 23.456,-18.18179 42.0743,-24.95898 42.4001,-15.90928 103.0409,-9.54602 139.2675,7.6875 4.6783,2.29153 8.7057,3.96844 8.9493,3.72656 0.2435,-0.24187 1.9003,-15.39091 3.6836,-33.66406 1.7832,-18.27314 3.4535,-34.90554 3.7109,-36.96094 l 0.4687,-3.73633 -7.6543,-2.41211 c -25.9567,-8.18071 -59.243,-12.37336 -93.166,-12.54297 z"
     id="path170"
     inkscape:connector-curvature="0"
     sodipodi:nodetypes="sccccscccccccccccccccccccccs" />
  <path
     style="fill:#000000"
     d="m 883,156.79688 -88.5,0.52148 -0.52734,65.5 H 883 Z"
     id="path168"
     inkscape:connector-curvature="0"
     sodipodi:nodetypes="ccccc" />
  <path
     style="fill:#000000"
     d="m 2541,154.81836 v 66 h 89 v -66 z"
     id="path166"
     inkscape:connector-curvature="0"
     sodipodi:nodetypes="ccccc" />
  <path
     style="fill:#000000"
     d="m 2434.5,154.81836 0.5273,141.36914 -5.4746,-6.04883 c -10.6064,-11.72045 -25.1022,-21.19743 -40.1132,-26.22656 -13.7522,-4.60743 -25.7728,-6.39477 -42.9395,-6.38477 -16.4464,0.009 -23.7479,1.21316 -37.2441,6.13868 -35.1918,12.84342 -61.7462,47.38489 -71.2286,92.65234 -2.7171,12.97098 -3.6779,36.3534 -2.0957,51 3.9484,36.54817 16.1019,65.15499 36.8028,86.62891 17.2544,17.89867 38.1442,28.31683 63.7656,31.80078 9.4051,1.27889 29.3336,0.58753 38.1992,-1.32617 27.2319,-5.87828 50.4949,-21.34014 62.4082,-41.47852 l 3.5879,-6.06641 0.6524,12.12696 c 0.5966,10.60732 0.6523,21.19869 0.6523,31.81445 h 82 v -183 -183 z m -53.9238,171.11133 c 6.3955,0.079 13.0963,0.98542 17.5918,2.61914 22.395,8.1387 36.832,32.93889 36.832,63.26953 0,31.44599 -16.7382,57.7065 -41,64.32617 -7.4631,2.03625 -12.3085,2.41412 -20,1.55469 -21.6351,-2.41744 -37.1699,-17.72707 -44.1484,-43.50391 -2.9182,-10.77913 -3.195,-35.64298 -0.5039,-45.37695 5.981,-21.63367 19.2259,-36.09043 38.039,-41.52148 3.4254,-0.98886 8.2152,-1.42867 13.1895,-1.36719 z"
     id="path164"
     inkscape:connector-curvature="0"
     sodipodi:nodetypes="ccccccsccsccccccccczcsssscsz" />
  <path
     style="fill:#000000"
     d="m 893,151.81836 v 370 h 88.99023 v -370 z"
     id="path37"
     inkscape:connector-curvature="0"
     sodipodi:nodetypes="ccccc" />
  <path
     style="fill:#e41d22;fill-opacity:1"
     d="m 1080.8754,563.51831 c -56.7161,-2.8728 -91.99839,-14.2547 -117.65727,-37.9556 -16.56878,-15.3045 -26.60259,-37.0802 -29.64085,-64.32761 -3.48442,-31.2485 2.54107,-57.91479 18.44146,-81.61379 15.99873,-28.80896 52.85346,-47.77011 82.73116,-58.2443 5.3598,-1.8363 9.7187,-3.5638 9.6863,-3.8388 -0.032,-0.275 -4.1915,-2.4917 -9.2425,-4.926 -7.535,-3.6314 -10.6249,-5.8756 -17.211,-12.5 -9.1218,-9.17499 -14.0722,-17.62349 -17.648,-30.11899 -1.90839,-6.6685 -2.27943,-10.3805 -2.29459,-22.9549 -0.0242,-20.0545 2.76019,-30.37783 12.96449,-48.06653 5.6546,-9.8022 24.2523,-28.3341 36.5002,-36.3711 19.5323,-12.817 45.4452,-23.2469 71,-28.5775 21.7451,-4.5359 57.3071,-4.493 83.9168,0.1012 9.6058,1.6585 22.8634,5.0423 25.05,6.3937 1.2151,0.7509 0.4231,6.7508 -5.1748,39.2033 -3.6351,21.0743 -6.9397,39.4419 -7.3433,40.8169 l -0.734,2.50003 -0.6853,1.5 h -12.1026 -12.1026 l 0.5512,-3.75 c 0.3031,-2.06253 0.834,-10.72503 1.1797,-19.25003 l 0.6285,-15.5001 -3.3418,-3.1852 c -11.603,-11.0598 -30.4523,-17.3734 -51.9144,-17.3887 -31.5419,-0.022 -57.9867,13.9419 -69.2611,36.574 -4.6509,9.3362 -6.103,16.1337 -6.0881,28.50003 0.011,9.1253 0.4882,13.0488 2.3113,19 8.0429,26.2548 31.6223,40.826 66.8581,41.3159 7.2861,0.1012 13.2469,0.1841 13.2462,0.1841 -0.121,0 -4.9938,37.18389 -4.9938,38.10689 0,1.0782 -1.8659,1.393 -8.2561,1.393 -12.2348,0 -31.7149,2.5389 -44.7511,5.8326 -33.1658,8.3797 -56.5972,25.3041 -69.4287,50.1483 -8.292,16.0547 -10.9932,32.8168 -8.6837,53.88529 3.8215,34.8612 18.6102,58.91581 45.1898,73.50281 8.4322,4.6276 24.9417,10.0296 37.4298,12.2472 14.2995,2.5392 49.0631,2.5334 63,-0.01 30.5863,-5.5829 50.627,-15.5206 67.8975,-33.6688 6.4133,-7.19411 11.6365,-15.36689 14.8785,-21.93701 7.4185,-15.1556 9.1917,-22.8577 9.2092,-40 0.017,-16.62769 -1.1061,-21.20929 -7.5724,-30.89259 -4.3562,-6.5234 -11.4227,-11.9372 -19.9356,-15.273 -7.8855,-3.0899 -27.2714,-3.7894 -35.5736,-1.2836 -3.247,0.98 -6.4325,1.8873 -7.0789,2.0161 -2.3255,0.4637 -10.2319,6.4973 -13.1452,10.0316 -6.7092,8.1394 -12.1795,22.9886 -12.1795,33.06149 v 4.34 h -8 c -7.3461,0 -8,-0.1642 -8,-2.0096 0,-2.3675 6.7134,-61.02139 7.5177,-65.68139 0.6856,-3.9719 8.7695,-10.6411 22.4943,-18.5576 18.7255,-10.801 40.9219,-16.5579 75.988,-19.7087 35.5032,-3.19 43.0654,-4.297 62.1878,-9.1032 38.409,-9.6537 57.8122,-23.91139 57.8122,-42.48099 0,-11.9502 -5.474,-25.616 -12.2175,-30.501 -2.2178,-1.6066 -4.4261,-2.6776 -4.9074,-2.3802 -1.8847,1.1648 0.301,-6.6732 4.1123,-14.7466 l 1.2602,-2.6694 4.1262,2.1246 c 6.8304,3.60071 13.0672,8.56436 17.6253,13.4642 8.2285,8.8989 15.1191,21.8085 17.0587,31.9592 1.9518,10.2155 0.8042,29.31659 -2.2851,38.03289 -2.5766,10.60475 -10.6175,20.69405 -14.8548,25.1092 -1.3377,1.394 -4.5256,4.141 -10.6257,9.1558 -2.7687,1.70278 -5.7178,3.12223 -7.995,4.4754 -13.8645,8.2591 -41.2533,15.8753 -61.4386,17.0846 -15.6509,0.9377 -15.2529,0.2067 -5.6225,10.3266 14.1274,14.8454 20.7639,30.765 20.7639,49.80839 0,38.262 -24.4323,74.90271 -67.5861,101.35721 -17.752,10.46022 -37.588,19.27971 -55.6042,24.4954 -32.5045,9.3558 -66.0224,13.1686 -100.4391,11.4253 z"
     id="path12"
     inkscape:connector-curvature="0"
     sodipodi:nodetypes="ccsccccccccssccccccccccccccsccsssccccccccccccccscsscccsscccccccccccccscccc" />
</svg>
