<?xml version="1.0" encoding="UTF-8"?>
<svg id="Layer_1" xmlns="http://www.w3.org/2000/svg" version="1.1" viewBox="0 0 582.69 582.69">
  <!-- Generator: Adobe Illustrator 29.8.2, SVG Export Plug-In . SVG Version: 2.1.1 Build 3)  -->
  <defs>
    <style>
      .st0, .st1, .st2, .st3, .st4, .st5, .st6, .st7, .st8, .st9, .st10, .st11 {
        stroke-miterlimit: 10;
      }

      .st0, .st1, .st4, .st5, .st6, .st7, .st10 {
        stroke: #000;
      }

      .st0, .st1, .st4, .st5, .st6, .st7, .st10, .st11 {
        stroke-width: 2.02px;
      }

      .st12 {
        fill: #e9cc1b;
      }

      .st1 {
        fill: #4da7d3;
      }

      .st13 {
        fill: #ce171e;
      }

      .st14 {
        fill: #ffd400;
      }

      .st15, .st7 {
        fill: #f2c007;
      }

      .st2 {
        stroke: #e9cc1b;
        stroke-width: 5.77px;
      }

      .st2, .st16, .st5, .st9, .st11 {
        fill: #fff;
      }

      .st3 {
        stroke: #fff;
        stroke-width: 1.17px;
      }

      .st4, .st17 {
        fill: #bcbdbf;
      }

      .st18 {
        fill: #81572e;
      }

      .st6 {
        fill: #069c42;
      }

      .st8 {
        stroke: #d1d3d4;
        stroke-width: 2.57px;
      }

      .st8, .st10 {
        fill: none;
      }

      .st9 {
        stroke: #005696;
        stroke-width: 57.69px;
      }

      .st19 {
        fill: #fd0;
      }

      .st11 {
        stroke: #e8cc0c;
      }

      .st20 {
        fill: #005696;
      }
    </style>
  </defs>
  <circle class="st2" cx="291.35" cy="291.35" r="288.46"/>
  <circle class="st9" cx="291.35" cy="291.35" r="249.23"/>
  <path class="st12" d="M538.27,334.1l-14.65,3.52,12.79,8.01,1.86-11.52ZM553.21,323.26l-2.05,12.69-.98-.2c.29-1.76.49-3.51-1.37-3.71-.78-.2-2.44.2-3.22.39l-5.18,1.27-2.05,13.08,5.47,3.22c.59.39,1.27.59,1.86.68,2.05.39,2.44-2.05,2.54-3.03l.98.1-1.56,9.86-.98-.1c.1-.88.1-1.66-.68-2.73-1.07-1.37-4.49-3.52-6.44-4.78l-22.85-14.35.2-.98,30.27-7.81c3.91-.98,4.59-1.66,5.08-3.81l.98.19ZM523.53,359.1l-.49-.1h-1.46l-.49.1h-.49l-.49.1-.49.1-.49.1-.39.1-.49.1-.49.2-.39.1-.49.2-.39.2-.39.29-.39.2-.39.29-.39.29-.39.29-.29.29-.39.29-.29.39-.29.39-.39.39-.29.39-.2.49-.29.49-.2.39-.29.59-.2.49-.2.49c-.78,2.44-.68,5.57.59,8.2,1.27,2.44,3.71,5.57,10.54,7.81,10.25,3.32,16.31-1.07,18.26-7.13,1.86-5.86-.39-10.45-1.37-12.4l1.17-.59c0,.1,4.69,6.15,1.86,14.94-2.54,7.71-9.86,14.55-21.77,10.64-10.74-3.42-13.96-13.38-11.33-21.58,1.46-4.3,4-6.93,4.39-8.01,0-.2.49-1.76-.88-2.73l.29-.98,10.94,3.03-.39,1.17ZM526.85,411.82l.1-.2.1-.1v-.2l.1-.2.1-.2v-.1l.1-.2v-.2l.1-.1v-.2l.1-.2.1-.29.1-.29v-1.46l-.1-.2-.1-.1-.1-.2-.1-.1-.1-.2-.1-.1-.1-.2-.2-.1-.2-.2-.2-.1-.2-.1-.2-.2-.29-.1-.2-.1-.29-.2-.29-.1-.29-.2-20.41-9.18c-3.42-1.56-4.3-1.17-6.15,2.54l-.88-.39,6.15-13.57.88.39c-1.37,3.42-1.56,4.69,2.15,6.35l20.41,9.18c3.61,1.66,4.49.78,6.15-2.64l.88.49-6.15,13.67-.88-.49ZM499.31,427.54l.2-.39.29-.29.2-.39.2-.39.2-.39.29-.49.2-.39.2-.49.2-.39.2-.49.2-.49.2-.49.1-.39.2-.49.1-.49.1-.49.1-.49v-1.46l-.1-.49v-.39l-.2-.49v-.2l-.1-.29-.1-.2-.1-.2-.2-.2-.1-.29-.1-.2-.2-.2-.2-.2-.1-.2-.2-.2-.2-.2-.29-.2-.2-.2-.29-.2-.2-.2-.29-.2-.29-.1c-5.76-3.51-9.28,2.15-10.35,3.91-1.37,2.34-1.27,2.83,0,3.61l10.64,6.35ZM525.97,416.6l-4.1,7.03-19.53,2.44-1.37,2.44,8.59,5.08c2.93,1.66,4,1.76,6.25-1.66l.78.59-7.13,12.01-.88-.59c1.95-3.61,1.07-4.3-2.15-6.25l-18.84-11.13c-3.22-1.95-4-1.46-6.15,1.37l-.78-.49,7.13-12.01c2.25-3.81,7.52-10.45,14.16-6.44,5.86,3.42,3.52,9.67,2.64,12.2l16.31-2.44c1.76-.29,3.12-.88,4.3-2.64l.78.49ZM504.68,450.87l-16.99,21.29-.78-.59c1.86-2.64,2.25-3.91-.78-6.35l-17.57-13.86c-3.12-2.54-4.1-1.76-6.25.49l-.78-.59,16.79-20.89,5.76,4.39-.78.98c-4-2.25-5.47-1.66-8.98,2.64l-4.3,5.37c-.59.78-.98,1.27.29,2.34l8.79,7.03,4.88-6.05c2.83-3.51,2.15-4.69-.29-7.32l.78-.98,9.08,7.32-.68.98c-3.52-2.05-4.59-1.95-7.23,1.27l-4.98,6.05,9.86,7.81q1.56,1.27,6.35-4.59c3.91-4.88,4.3-7.81,1.76-12.79l.88-1.07,5.18,7.13ZM461.82,453.22l-.29.2-.1.2-.2.2-.2.2-.2.2-.1.2-.2.2-.1.1-.1.2-.1.2-.1.2-.1.1-.1.2v.2l-.1.2v.88l.1.2v.2l.1.2.1.2.1.2.1.1.1.1v.1l.1.1.1.1.1.2.1.1.1.1.1.1.1.2.1.1.1.1.1.2.2.1,14.94,16.7c2.64,2.83,3.81,2.44,6.35.39l.68.78-10.54,9.37-.68-.68c2.83-2.83,2.83-3.81,0-6.83l-15.13-16.89-.1.1,9.67,29.88-.49.49-27.83-12.01h-.1l13.57,15.04c3.42,3.81,4.98,3.91,7.81,1.56l.59.68-8.79,8.01-.59-.68c2.64-2.83,2.93-4.1-.68-8.1l-13.77-15.23c-2.64-2.93-3.71-2.54-6.64-.2l-.59-.68,7.42-6.74,25.78,11.13-8.79-26.36,7.42-6.74.68.78ZM428.23,505.55l-12.3-8.69,2.44,14.84,9.86-6.15ZM446.2,509.55l-10.94,6.83-.49-.78c1.56-.98,2.93-1.95,1.95-3.52-.39-.68-1.86-1.76-2.44-2.15l-4.39-3.03-11.13,7.03,1.07,6.15c.2.68.39,1.37.68,1.86,1.17,1.76,3.12.59,4.1,0l.49.78-8.49,5.27-.49-.78c.68-.49,1.37-.98,1.56-2.34.29-1.66-.29-5.57-.68-8.01l-4.2-26.56.88-.49,25.87,17.57c3.32,2.34,4.2,2.44,6.15,1.37l.49.78ZM392.5,526.25l-.1-.1-.1-.2-.2-.29-.2-.29-.2-.29-.2-.29-.1-.2-.2-.29-.2-.2-.2-.2-.2-.1-.2-.2-.1-.1-.2-.1-.2-.1-.2-.1-.2-.1h-.2l-.2-.1h-1.07l-.29.1h-.2l-.29.1-.29.1-.29.1h-.29l-.29.1-.29.2-.29.1-6.83,2.64,4,10.25c1.37,3.52,2.54,3.71,5.86,2.54l.39.88-13.18,5.18-.29-.88c3.42-1.56,3.71-2.54,2.25-6.35l-8.01-20.41c-1.46-3.71-2.64-3.52-5.76-2.64l-.39-.88,25.09-9.67,2.73,6.64-1.17.39c-2.34-3.91-3.91-4.1-9.08-2.15l-6.44,2.54c-1.17.39-1.37.78-.88,2.15l4.1,10.45,6.83-2.64c3.81-1.46,4.3-2.73,3.42-6.44l1.07-.49,4.3,10.94-1.07.39ZM360.28,532.4l-.29-.98-.2-.98-.29-.98-.39-.88-.29-.78-.39-.78-.39-.78-.39-.68-.39-.68-.39-.59-.39-.59-.49-.49-.39-.49-.49-.49-.49-.39-.49-.39-.49-.39-.49-.29-.49-.29-.49-.2-.49-.2-.49-.2-.49-.1-.59-.2h-.49l-.49-.1h-1.46l-.49.1h-.49l-.49.1c-4.98,1.17-9.57,6.44-6.93,17.67,2.54,10.74,8.69,13.96,14.06,12.69,5.47-1.27,9.47-6.83,6.93-17.67h0ZM333.72,538.75l-.2-1.07-.2-.98-.1-1.07-.1-.98v-1.85l.1-.88.1-.88.2-.88.2-.88.29-.78.29-.78.29-.78.29-.68.39-.78.49-.68.39-.59.49-.68.59-.59.49-.59.59-.49.59-.49.59-.49.68-.49.68-.39.59-.39.78-.39.68-.29.68-.29.78-.29.68-.2.78-.2c8.01-1.86,17.48,1.95,20.11,13.18,2.44,10.45-3.22,18.65-12.11,20.7-8.98,2.15-17.67-2.64-20.11-13.08ZM311.66,534.26h-1.27c-.98-4.1-4.3-8.49-9.67-8.4-2.54.1-5.08,1.76-4.88,4.88.2,7.62,17.09,8.01,17.48,18.36.1,4.3-3.12,9.28-10.35,9.47-3.81.2-6.44-1.46-7.91-1.46-1.07,0-1.56.88-1.46,1.76h-1.17l-1.86-10.64h1.17c.98,2.34,3.81,8.79,10.64,8.59,4.1-.2,5.96-3.12,5.86-5.86-.1-2.83-.98-4.49-8.49-8.59-4.78-2.54-8.1-4.69-8.2-9.67-.2-5.76,4.3-8.69,8.79-8.88,3.03-.1,5.86,1.56,7.13,1.46,1.46,0,1.56-1.17,1.66-1.76h1.07l1.46,10.74ZM281.97,558.08l-27.14-2.54.1-.98c3.22.1,4.49-.2,4.78-4.1l2.05-22.26c.39-4-.78-4.39-3.91-4.98l.1-.98,26.65,2.54-.49,7.13-1.27-.1c-.29-4.49-1.56-5.47-7.13-5.96l-6.74-.59c-1.07-.2-1.76-.2-1.86,1.46l-1.07,11.23,7.81.68c4.39.39,5.08-.78,5.96-4.3l1.17.1-1.17,11.72-1.07-.1c-.29-4.1-.98-4.88-5.08-5.27l-7.81-.88-1.17,12.5q-.2,2.05,7.32,2.83c6.25.49,8.98-.68,11.62-5.56l1.46.1-3.12,8.3ZM242.43,553l-14.35-3.32.2-.88c4.59.78,4.98-.29,5.86-3.91l5.66-24.6-2.73-.59c-5.37-1.27-6.93-.68-9.28,4.49l-1.17-.29,2.25-8.3,27.73,6.44-1.56,8.4-1.27-.29c.29-5.56-.88-6.83-6.35-8.1l-2.64-.59-5.76,25.09c-.78,3.32-.39,4.39,3.61,5.57l-.2.88ZM213.33,531.62l-.68-15.04-10.25,11.03,10.94,4ZM221.15,548.32l-12.11-4.39.39-.88c1.76.59,3.32,1.07,3.91-.68.39-.78.29-2.54.2-3.32l-.2-5.27-12.5-4.49-4.2,4.78c-.49.49-.88,1.07-1.07,1.66-.68,1.95,1.56,2.73,2.54,3.12l-.29.88-9.37-3.42.29-.88c.78.2,1.56.49,2.83-.2,1.46-.78,4.2-3.71,5.86-5.47l18.45-19.63.98.39,1.86,31.15c.29,4.1.78,4.78,2.83,5.66l-.39.98ZM180.72,532.21l-13.08-6.83.49-.78c4.1,1.95,4.78.98,6.54-2.34l11.62-22.36-2.34-1.27c-4.98-2.54-6.64-2.34-10.15,2.05l-1.07-.59,4.2-7.42,25.29,13.08-3.71,7.81-.98-.59c1.56-5.47.78-6.93-4.2-9.47l-2.44-1.27-11.91,22.85c-1.56,3.12-1.46,4.2,2.25,6.35l-.49.78ZM166.96,497.94l-.98-.68c1.66-3.91,1.56-9.47-2.73-12.5-2.05-1.46-5.08-1.66-6.93.98-4.3,6.15,8.98,16.7,3.03,25.09-2.44,3.61-8.01,5.56-13.96,1.46-3.12-2.25-4.2-4.98-5.47-5.86-.88-.68-1.76-.2-2.25.39l-.88-.59,4.88-9.67.98.68c-.59,2.54-2.25,9.37,3.42,13.28,3.32,2.25,6.54,1.07,8.1-1.17,1.66-2.34,1.95-4.2-1.66-12.01-2.25-4.88-3.61-8.59-.78-12.6,3.32-4.78,8.69-4.49,12.4-1.86,2.54,1.76,3.81,4.69,4.78,5.37,1.17.88,2.05,0,2.44-.39l.88.59-5.27,9.47ZM104.18,470.01l-.1.1-.1.2-.1.1-.1.1-.1.1-.1.1v.1l-.1.1v.1l-.1.1v.78l.1.1v.1l.1.1.1.1v.2l.1.1.1.1.1.1.1.2.2.1.1.2.1.1.2.2.1.1c2.25,2.34,10.84,11.33,21.48,1.17,3.03-2.93,5.17-6.64,4.98-11.33-.1-3.22-1.07-6.25-5.47-10.84-1.66-1.66-2.34-1.07-3.03-.29l-18.55,17.67ZM95.39,465.23l.1.1.1.1.29.2.2.29.29.1.2.2.2.2.2.1.29.2.2.1.1.1.2.1h.2l.2.1h.39l.1.1.2-.1h.39l.2-.1h.1l.2-.1.2-.1.2-.1.2-.2.2-.1.2-.2.2-.1.2-.2.2-.2.29-.2.2-.29,16.21-15.52c2.64-2.54,2.64-3.32.2-6.35l.68-.59,9.47,9.76c8.3,8.69,9.96,18.36,1.76,26.17-4.78,4.69-14.74,8.59-25.39-2.44l-9.96-10.35.68-.68ZM89.82,459.47l-15.91-22.16.78-.59c2.05,2.54,3.12,3.22,6.35.98l18.16-13.08c3.22-2.25,2.83-3.42,1.17-6.15l.78-.59,15.62,21.77-5.76,4.3-.78-.98c3.22-3.22,3.12-4.78-.1-9.28l-4-5.57c-.59-.88-.98-1.37-2.34-.39l-9.18,6.54,4.49,6.35c2.64,3.61,3.91,3.32,7.23,1.66l.68.98-9.57,6.83-.68-.98c2.93-2.83,3.12-3.91.68-7.32l-4.49-6.35-10.15,7.23c-1.66,1.27-1.76,1.27,2.64,7.42,3.71,5.08,6.35,6.25,11.81,5.08l.88,1.17-8.3,3.12ZM67.76,426.37l-6.93-13.08.88-.39c2.34,3.91,3.42,3.52,6.74,1.76l22.36-11.81-1.27-2.34c-2.64-4.98-4.2-5.66-9.57-4.1l-.49-1.07,7.71-3.71,13.38,25.09-7.52,4.3-.59-1.07c4.39-3.52,4.59-5.18,1.95-10.15l-1.27-2.34-22.75,12.01c-3.12,1.66-3.71,2.64-1.76,6.44l-.88.49ZM50.96,388l.1.2.1.1.1.2v.2l.1.1.1.2.1.2v.1l.2.29.1.2.2.29.1.2.2.2.1.2.2.2.1.1.2.2.2.1.1.1.2.1h.2l.1.1h1.27l.2-.1h.2l.29-.1.2-.1.29-.1.29-.1.29-.1.29-.1,20.89-8.4c3.42-1.37,3.71-2.25,2.34-6.25l.88-.29,5.57,13.86-.88.39c-1.46-3.32-2.34-4.39-6.05-2.93l-20.8,8.4c-3.71,1.46-3.71,2.73-2.34,6.25l-.98.39-5.57-13.96.88-.29ZM79.28,375.11l-.1-.29-.2-.29-.1-.2-.1-.29-.1-.2-.1-.2-.1-.29-.1-.2-.1-.2-.2-.2-.1-.1-.1-.2-.2-.2-.2-.1-.1-.1-.2-.1-.2-.1-.2-.1-.29-.1-.2-.1h-2.05l-.2.1h-.39l-.29.1h-.2l-.2.1h-.29l-.2.1-.29.1h-.2l-.29.1-25.68,6.93-.2-.88,20.89-28.61v-.1l-19.04,5.18c-5.08,1.37-5.86,2.64-4.98,6.25l-.98.2-3.12-11.42.98-.2c1.27,3.61,2.25,4.49,7.52,3.03l21.48-5.86c1.95-2.64,1.95-3.52,1.37-5.37l.98-.29,2.25,8.3-18.36,25v.1l16.31-4.39c5.66-1.56,5.66-3.03,4.98-6.35l.88-.29,3.12,11.42-.88.29ZM69.91,340.35l-.1-.29v-.39l-.1-.29-.1-.29-.1-.29-.1-.29-.1-.2-.1-.29-.1-.2-.1-.2-.1-.2-.2-.2-.1-.1-.2-.2-.1-.1-.2-.1-.2-.1-.2-.1-.29-.1-.2-.1h-.2l-.29-.1h-.59l-.29-.1h-.39l-.39.1h-1.46l-.2.1h-.49l-13.08,1.46c-4.1.39-13.47,1.37-14.94-11.62-1.27-12.4,8.49-13.47,11.52-13.77l15.72-1.66c3.71-.49,4.2-1.17,4-5.08l.98-.1,1.46,14.26-.88.1c-.78-3.91-1.46-4.49-5.08-4.1l-16.01,1.76c-3.22.29-10.25,1.07-9.28,9.76.39,3.91,2.34,6.64,4.78,7.81,1.17.59,2.93.88,7.03.39l13.47-1.37c5.47-.59,6.15-1.95,5.96-5.47l.98-.1,1.27,11.62-.98.1ZM512.49,205.51l-12.4-24.31.78-.39c1.76,2.83,2.64,3.61,6.05,1.86l20.02-10.15c3.52-1.86,3.32-3.12,2.05-6.05l.88-.39,12.2,23.82-6.35,3.42-.59-1.07c3.61-2.73,3.71-4.3,1.17-9.28l-3.03-6.05c-.49-.98-.78-1.46-2.34-.68l-9.96,5.08,3.51,6.93c2.05,4,3.42,3.91,6.83,2.73l.49,1.07-10.45,5.27-.49-.98c3.32-2.34,3.61-3.42,1.76-7.13l-3.51-7.03-11.13,5.76c-1.85.88-1.85.98,1.56,7.62,2.83,5.66,5.37,7.23,10.94,6.83l.59,1.27-8.59,1.86ZM495.8,174.95l-8.3-12.2.78-.49c2.83,3.71,3.81,3.12,6.93,1.07l20.89-14.16-1.56-2.25c-3.03-4.59-4.59-5.17-9.86-3.03l-.68-.98,7.32-4.59,16.01,23.53-6.93,5.08-.68-1.07c4-3.91,4-5.56.78-10.25l-1.46-2.25-21.38,14.55c-2.83,1.86-3.32,2.93-1.07,6.54l-.78.49ZM487.89,142.24l6.74-13.47-14.35,4.69,7.62,8.79ZM486.52,160.6l-8.3-9.76.68-.59c1.17,1.37,2.34,2.64,3.71,1.37.68-.49,1.46-2.05,1.86-2.73l2.34-4.78-8.59-9.96-6.05,2.05c-.68.2-1.27.59-1.76.98-1.56,1.37-.1,3.12.59,4l-.68.59-6.44-7.62.68-.59c.59.59,1.17,1.17,2.54,1.17,1.66.1,5.47-1.07,7.81-1.86l25.68-8.1.68.68-13.57,28.22c-1.76,3.61-1.76,4.59-.39,6.35l-.78.59ZM460.75,131.89l-10.84-9.96.68-.78c3.51,3.03,4.39,2.25,6.93-.49l17.09-18.55-2.05-1.86c-4.1-3.81-5.76-4-10.25-.68l-.88-.78,5.96-6.15,21.09,19.23-5.66,6.54-.88-.88c3.03-4.78,2.54-6.35-1.56-10.15l-1.95-1.85-17.48,19.04c-2.34,2.44-2.54,3.61.49,6.64l-.68.68ZM454.79,95.67l-.98-.78c1.66-3.91,1.66-9.47-2.54-12.5-2.05-1.56-5.08-1.76-6.93.78-4.39,6.15,8.69,16.79,2.64,25.19-2.54,3.52-8.2,5.37-14.06,1.27-3.03-2.34-4.1-5.17-5.27-6.05-.88-.59-1.86-.2-2.25.49l-.98-.68,5.08-9.57.88.68c-.59,2.54-2.34,9.37,3.22,13.28,3.22,2.34,6.64,1.27,8.2-.98,1.66-2.34,2.05-4.2-1.46-12.01-2.15-4.88-3.52-8.59-.59-12.69,3.42-4.69,8.79-4.3,12.4-1.66,2.54,1.86,3.71,4.78,4.78,5.57s1.95,0,2.44-.39l.78.59-5.37,9.47ZM412.9,82.2l.1-.29.2-.39.1-.29v-.39l.1-.29.1-.29v-.49l.1-.29v-.2l-.1-.29v-.39l-.1-.2v-.2l-.1-.2-.1-.2-.1-.2-.1-.2-.2-.1-.1-.2-.2-.1-.2-.2-.2-.2-.2-.1-.2-.2-.29-.1-.2-.2-.29-.2-.29-.1-.29-.2-.29-.1-6.54-3.32-4.88,9.86c-1.76,3.42-1.07,4.39,2.05,6.15l-.39.88-12.69-6.35.39-.78c3.52,1.46,4.39,1.07,6.25-2.64l9.76-19.63c1.76-3.51.78-4.3-1.95-5.96l.49-.88,24.02,11.91-3.12,6.54-1.07-.59c1.27-4.3.49-5.66-4.59-8.2l-6.15-3.03c-1.07-.59-1.56-.49-2.25.88l-4.98,10.06,6.64,3.22c3.71,1.86,4.88,1.27,7.03-1.86l1.07.49-5.18,10.54-1.07-.59ZM386.54,64.43l.39-.98.2-.98.29-.98.2-.88.2-.88.1-.88.1-.88v-3.03l-.1-.68-.2-.59-.1-.68-.2-.59-.2-.59-.2-.59-.29-.49-.2-.49-.29-.49-.39-.39-.29-.39-.39-.39-.29-.39-.39-.39-.39-.29-.49-.29-.39-.2-.39-.29-.49-.2-.39-.2-.49-.2c-4.88-1.66-11.52.39-15.23,11.33-3.61,10.45-.2,16.4,5.08,18.16,5.37,1.86,11.72-.78,15.23-11.23h0ZM360.77,55.64l.39-.98.39-.98.39-.98.49-.78.49-.88.49-.78.59-.68.59-.68.59-.68.59-.59.68-.59.68-.49.68-.49.68-.39.68-.39.68-.39.78-.29.68-.29.78-.2.78-.2.78-.2.78-.1h.68l.78-.1h1.56l.78.1.78.1.78.1.78.2.68.2.78.29c7.81,2.64,13.77,10.84,9.96,21.87-3.52,10.06-12.6,13.96-21.28,11.03-8.69-2.93-13.47-11.62-9.96-21.77h0ZM335.77,67.55l-14.65-2.15.2-.98c4.59.49,4.88-.68,5.37-4.39l3.71-24.9-2.64-.39c-5.57-.88-7.03-.1-8.98,5.17l-1.17-.2,1.56-8.4,28.22,4.1-.98,8.59-1.17-.2c-.29-5.66-1.56-6.74-7.03-7.62l-2.73-.39-3.71,25.58c-.49,3.42,0,4.39,4.1,5.18l-.1.98ZM313.9,31.62l-.29.1h-.49l-.29.1h-.29l-.2.1h-.29l-.2.1h-.2l-.2.1-.29.1-.2.1-.1.1-.2.1-.2.1-.2.2-.1.1-.1.2-.2.2-.1.29-.1.2-.1.1v.2l-.1.1v.2l-.1.1v.29l-.1.2v.39l-.1.2v.59l-.1.2v1.46l-.1.29-.29,26.56h-.88l-21.87-27.92h-.1l-.2,19.72c-.1,5.17.98,6.25,4.69,6.44v.98l-11.91-.1v-.98c3.81-.2,4.88-.98,4.98-6.44l.2-22.26c-1.95-2.54-2.83-2.73-4.78-2.73v-.98l8.59.1,19.14,24.41h.1l.1-16.79c.1-5.86-1.27-6.25-4.69-6.54v-.98l11.81.2v.88ZM275.92,64.23l-27.05,3.32-.1-.98c3.12-.59,4.3-1.17,3.81-5.08l-2.83-22.16c-.49-4-1.66-4.1-4.88-4l-.1-.88,26.65-3.32.98,7.13-1.17.1c-1.37-4.3-2.83-4.98-8.4-4.3l-6.74.88c-1.07.1-1.56.2-1.46,1.86l1.46,11.13,7.71-.98c4.49-.49,4.78-1.76,4.88-5.37l1.17-.2,1.46,11.62-1.17.2c-1.07-3.91-1.95-4.59-6.05-4.1l-7.81.88,1.56,12.4q.29,2.05,7.71,1.17c6.25-.78,8.59-2.64,10.15-7.91l1.46-.2-1.27,8.79ZM239.4,36.01l-.29.1-.29.1-.2.1-.29.1-.2.1-.2.1-.29.1-.2.1-.1.1-.2.1-.2.1-.1.1-.2.1-.1.2-.1.1-.1.2-.1.1-.1.2-.1.1v.2l-.1.2v1.37l.1.2v.39l.1.2v.2l.1.1v.39l.1.2,6.15,21.48c.98,3.81,2.25,3.91,5.47,3.22l.2.88-13.57,3.91-.29-.98c3.81-1.27,4.2-2.15,3.03-6.15l-6.15-21.77h-.1l-4.49,31.15-.68.2-19.63-23.04h-.1l5.47,19.33c1.46,4.98,2.73,5.76,6.35,4.88l.29.98-11.42,3.22-.29-.88c3.61-1.37,4.49-2.34,2.93-7.62l-5.56-19.72c-1.07-3.71-2.25-3.81-5.86-3.03l-.29-.88,9.67-2.73,18.16,21.28,3.81-27.53,9.67-2.73.29.98ZM200.35,82.49l-13.38,6.15-.49-.88c4.2-2.15,3.81-3.22,2.25-6.64l-10.54-22.94-2.44,1.17c-5.08,2.25-5.96,3.71-4.59,9.18l-1.17.49-3.32-7.91,25.97-11.81,3.81,7.62-1.07.59c-3.32-4.69-4.98-4.88-9.96-2.64l-2.54,1.17,10.74,23.43c1.46,3.12,2.44,3.81,6.35,2.15l.39.88ZM154.07,87.37l.39-.2.39-.2.29-.29.39-.2.39-.29.39-.29.39-.29.39-.29.39-.29.39-.29.39-.29.39-.39.39-.29.29-.39.29-.39.39-.29.2-.39.29-.49.29-.39.2-.39.1-.49.2-.39.1-.49v-.2l.1-.29v-1.27l-.1-.2v-.29l-.1-.2-.1-.29v-.29l-.1-.29-.2-.29-.1-.2-.1-.29-.2-.29-.2-.29c-3.42-5.76-9.18-2.44-10.94-1.37-2.34,1.46-2.54,1.95-1.76,3.22l6.44,10.54ZM182.77,90.2l-6.93,4.2-18.45-6.93-2.34,1.56,5.17,8.49c1.86,2.83,2.73,3.42,6.25,1.46l.49.88-11.91,7.23-.49-.78c3.32-2.34,3.03-3.42,1.07-6.64l-11.42-18.65c-1.95-3.22-2.83-3.22-6.05-1.56l-.49-.88,11.81-7.23c3.91-2.34,11.52-5.76,15.62.88,3.52,5.76-1.46,10.15-3.32,11.91l15.43,5.56c1.76.49,3.22.68,5.08-.29l.49.78ZM136.3,105.53l-13.38-6.93,4.3,14.35,9.08-7.42ZM154.65,107.29l-9.96,8.2-.59-.78c1.37-1.17,2.64-2.25,1.46-3.71-.49-.68-2.05-1.46-2.73-1.86l-4.69-2.44-10.25,8.4,1.95,6.05c.29.68.59,1.37.98,1.76,1.27,1.66,3.12.1,4-.59l.59.78-7.71,6.35-.68-.78c.68-.49,1.27-1.17,1.37-2.44,0-1.76-1.07-5.57-1.76-7.91l-7.62-25.78.78-.68,27.92,14.16c3.61,1.86,4.49,1.86,6.35.49l.59.78ZM106.91,127.5l.29-.2.2-.29.29-.2.29-.29.29-.29.29-.2.29-.29.2-.29c1.37-1.37,6.05-6.25.59-11.52-5.27-5.08-10.45.2-12.01,1.76-1.07,1.07-1.37,1.56-.2,2.64l9.47,9.18ZM88.36,122.62l9.28-9.57c4.88-4.98,11.13-7.62,15.72-3.12,2.83,2.73,2.83,5.76,2.73,6.93,0,3.03-1.56,5.96-5.27,9.76-.88.88-1.56,1.46-2.44,2.34l6.54,6.35c2.64,2.54,3.81,2.54,6.54-.29l.68.68-9.86,10.15-.68-.68c2.73-3.22,1.95-4-.68-6.54l-15.62-15.23c-2.64-2.54-3.42-2.54-6.25-.1l-.68-.68ZM110.52,148l-16.6,21.68-.68-.68c1.76-2.64,2.15-3.81-.98-6.25l-17.87-13.57c-3.12-2.44-4.1-1.66-6.25.78l-.78-.59,16.31-21.28,5.86,4.2-.78,1.07c-4-2.15-5.47-1.66-8.88,2.83l-4.1,5.47c-.68.78-1.07,1.27.29,2.34l8.98,6.74,4.69-6.15c2.73-3.52,2.05-4.69-.39-7.32l.68-.88,9.28,7.13-.68.88c-3.61-1.95-4.59-1.76-7.23,1.46l-4.78,6.15,9.96,7.62q1.66,1.27,6.25-4.69c3.81-4.98,4.2-7.91,1.46-12.79l.88-1.17,5.37,7.03ZM77.72,189.7l.2.1.1.1h.1l.2.1h.1l.1.1h.29l.1.1h.1l.1-.1h.29l.1-.1h.1l.1-.1.1-.1h.1l.1-.1.1-.1.1-.1.1-.1.1-.2.1-.1.1-.1.1-.2.1-.2.1-.1.1-.2.1-.2c1.66-2.83,7.81-13.67-4.98-20.89-3.71-2.05-7.91-3.12-12.3-1.56-3.12.98-5.66,2.83-8.88,8.3-1.17,2.05-.29,2.54.59,3.03l22.26,12.69ZM75.57,199.56l.1-.2.1-.2v-.1l.1-.2.2-.29.1-.2.1-.29.1-.29.1-.2v-.2l.1-.29v-.2l.1-.2v-.39l-.1-.2v-.29l-.1-.2-.1-.1v-.2l-.1-.1-.2-.2-.1-.2-.1-.1-.2-.1-.2-.2-.2-.1-.2-.2-.2-.1-.2-.2-.29-.2-.29-.1-.2-.2-19.53-11.13c-3.32-1.76-4-1.56-6.15,1.66l-.88-.49,6.74-11.81c5.96-10.54,14.74-14.84,24.6-9.18,5.86,3.32,12.5,11.62,4.78,25.09l-7.03,12.4-.88-.39Z"/>
  <path class="st14" d="M537.29,243.79l2.93,8.69,9.28-.2-6.44,5.57,3.12,9.76-8.01-5.17-8.4,5.37,3.12-9.28-7.32-5.66,9.08-.2,2.64-8.88ZM44.81,243.79l2.93,8.69,9.18-.2-6.44,5.57,3.12,9.76-7.91-5.17-8.49,5.37,3.22-9.28-7.32-5.66,8.98-.2,2.73-8.88Z"/>
  <path class="st6" d="M174.08,372.28c-.29,2.73-1.46,6.44-3.12,8.4M152.31,387.8c-5.63-1.3-13.02.75-19.92,4.79l3.32-1.56.39-.2.39-.29.39-.2.39-.2.39-.2.39-.2.39-.2.39-.2.29-.1.39-.2.39-.1.29-.2.39-.1.29-.1c3.42-1.07,8.3-.78,11.42-.78-1.56-1.86-10.45-4.88-12.79-5.95M129.95,360.95l.39.1.39.2.39.1.2.1.2.1.2.1.2.1.2.1.1.1.2.1.2.1.2.2.2.1.2.2.2.1.2.2.2.1.2.2.2.2.2.2.2.2.2.2.1.2.2.2.2.2.1.2.2.29.2.2.1.29c1.66,2.64,4.78,6.35,5.37,7.32-2.15-1.56-9.28-8.2-14.35-9.28-1.37-.2-2.73-.29-4.3-.29M127.22,362.12h.29l.2-.1h.29l.1-.1h.1l.2-.1h.1l.1-.1h.2l.1-.1.1-.1.1-.1.1-.1.1-.1.1-.1.1-.1.1-.1.1-.1v-.1l.1-.2.1-.1v-.1l.1-.1v-.2l.1-.1v-.29l.1-.2v-.2c0-1.66-1.37-2.93-2.93-2.93s-2.83,1.27-2.83,2.93c0,1.56,1.27,2.83,2.83,2.83h0ZM170.57,381.26l-.2.2-.2.2-.2.2-.1.29-.2.2-.2.2-.2.2-.1.2-.2.1-.1.2-.2.2-.1.2-.2.1-.1.2-.2.29-.29.29-.2.29-.2.29-.29.29-.2.39-.2.29-.2.29-.1.2v.2c-1.37,2.64.78,4.78,1.86,4.49,1.07-.2.78-1.46,1.07-3.22.2-1.07.39-1.76.49-2.83.39-1.37.68-2.44.68-2.44v-1.46ZM174.08,371.2l.1-.1.1-.2.2-.2.1-.2.2-.2.1-.29.2-.2.2-.29.2-.2.2-.29.2-.2.2-.29.39-.59.49-.49.39-.59.49-.49.2-.29.2-.29.29-.2.2-.29.2-.2.2-.2.2-.2.29-.2.2-.2.2-.2.1-.1.2-.2c1.86-1.27,6.15-1.86,8.01-2.64,1.86-.78,1.37-1.66,4.2-2.64,0,0-1.76,4.78-2.64,6.05-.78,1.37-.78,3.71-2.34,7.71-1.66,4-9.37,8.98-10.35,9.28-1.07.29-3.81,2.73-4.59,4.59,3.03-1.95,4.69.1,4.49,1.86-.29,3.61-4.1,2.83-4.49,1.56-.59-2.05-2.34,2.05-1.56,3.22,1.07,1.56,1.95,1.56,4.3,3.12l-3.81,4c-.49-1.27-4.2-3.42-5.57-4.3l-2.44,1.37c.29.78,1.07,7.13,0,15.72-.98,8.4-8.69,15.33-11.91,18.26.29-1.07.29-2.34-.49-4-.59-1.07-.68-3.71-.2-11.13v-1.76c-4.49,3.03-10.54,5.47-12.6,5.47,1.07-.78,1.37-5.56,1.86-9.57.49-3.91,7.62-7.91,8.69-8.69-.88-.59-1.85.49-2.64-.88-1.07-1.66-.29-2.54.98-3.61,1.37-.98,4,.78,3.61,2.73,1.39-1.31,3.12-1.76,4.49-2.83-2.15-1.27-1.56-3.91,1.07-4.49,2.44-.49,2.93,1.56,2.93,3.22,0,.78,2.15-1.07,3.71-1.95-1.07-.98-2.05-.68-3.42-1.76-1.37-1.07-3.52-1.37-5.37-.29-2.73,1.56-8.69,7.23-12.5,9.28-4.49,2.44-13.57,1.37-15.43.49.59-.68,3.22-1.27,4-4.98.29-1.46,1.95-2.44,3.52-3.61l-1.37-.1c-5.08.98-10.35-4-12.2-5.57.78-.29,3.91-.1,5.57-2.15,2.54-3.22,11.33-3.03,13.77-3.03l-2.83-1.17c-1.66-1.95.39-4.39,2.64-4.39,2.25-.1,2.73,1.27,2.54,3.32,1.37.59,3.52,1.27,5.96,2.64-1.37-1.76-4.39-9.37-11.72-7.23-6.15,1.86-14.65-1.56-16.21-2.34-1.56-.78-4.3-3.71-6.15-4.49-1.86-.78-5.86.49-2.64-1.95,2.15-1.56,4.88-2.34,8.79-2.64l-2.54-1.66c-1.37-.59-2.25-.39-3.81-2.05-1.66-1.56-4.78-4.49-6.74-6.64,1.37-.98,6.74-2.83,10.15-2.34,3.42.49,2.93.78,4.78,1.56-.49-.78-1.37-.78-1.07-2.34.29-1.66,2.54-2.83,4.3-2.25,1.66.68.59,4.39,0,4.98,1.27,0,4-.39,5.57-.39-.59-1.95,1.07-5.56-6.15-8.49-12.11-4.98-10.06-3.12-16.7-11.42-2.15-2.64-3.51-9.57-4-12.99,1.37,1.56,2.05,1.07,4,3.71,1.86,2.64,5.57,3.22,10.06,5.56,4.59,2.44,9.57,10.64,11.42,13.86,0-2.73-3.22-12.01-5.56-14.16-2.34-2.05-5.57-10.64-5.86-14.55-.29-4,2.93-13.28,4.3-15.91,0,1.27,1.37.78,6.93,11.13,5.57,10.35,1.46,13.38.98,17.97l-.59,3.81c.29-1.56.59-3.52,1.17-5.57.59-2.05,1.17-4.2,1.07-7.71,1.07-5.86,8.2-12.01,10.94-14.06,3.12,13.57-3.52,21.97-5.08,23.92-2.64.39-2.73,1.86-2.54,3.03l-.29,2.64c-3.22,3.22-3.03,8.3-2.34,13.86l1.46,5.37c-.29-.78-1.86-5.56-1.37-8.2.59-2.64.59-3.71,2.15-5.57,1.56-1.86,3.32-4.49,3.61-6.05-.29-.1-3.22.59-3.22-2.05,0-2.15,1.17-3.32,2.54-3.03,1.27.2,2.44,1.46,2.73,3.32,1.07-1.37,4.98-4.98,7.62-7.03,1.07,3.91,0,12.2-1.07,14.84-1.07,2.64-8.79,12.2-9.86,13.28-1.07.98-2.15,4.49-1.27,7.13.78,2.64,2.64,3.71,4.2,6.15l1.37-1.07c0-1.85.78-2.44,2.05-2.64,1.37-.29,2.15.2,3.03,1.56.78,1.37-.59,3.12-1.37,4.49-.78,1.37,0,2.44.78,5.27.78,2.93,3.22,4.59,5.08,7.71-.49-1.76-.29-2.05-1.07-4.2-.78-2.15-1.37-4.78-2.15-9.86-.78-4.98,1.86-12.2,4.3-15.13,2.34-2.93,4.2-5.86,6.35-7.91,0,1.56,3.52,15.62,2.73,18.84-.88,3.22-2.73,9.86-4.59,11.42-1.86,1.56-2.15,2.44-2.64,5.08.49-1.27,1.76-2.64,3.61-2.44,0,0,4.39,0,1.46,4.88l-2.34,1.46c-.39,3.03,5.96,4.69,5.86,4.69.73.21,1.66-3.03,1.66-3.81-1.37,1.86-5.37,1.56-5.17-1.07.29-2.64,1.95-3.03,4.88-2.34,0-2.15-2.54-5.18-2.25-10.15.29-5.08,4.49-11.13,6.35-13.08,1.86-1.86,4.59-5.27,6.15-7.91,0,1.07-.29,2.64.49,4.49.78,1.86,1.46,11.23.59,13.86l-.88,3.81ZM194.59,421.19c5.53,8.12,6.23,16.74,5.37,26.07-.59,5.56,3.71,7.23,5.57,7.71,1.85.49,5.08,2.34,5.86,3.42.78,1.07,2.34,2.25,2.34-.78,0-3.42-4.49-17.48-6.64-24.41-2.15-6.93-7.71-15.43-9.76-16.79-.88,2.44-2.73,4.78-2.73,4.78h0ZM142.35,357.63h.29l.2-.1h.29l.1-.1h.2l.1-.1h.2l.1-.1.1-.1.1-.1h.2l.1-.1.1-.1.1-.1.1-.1.1-.1.1-.2.1-.1.1-.1.1-.1v-.2l.1-.1v-.1l.1-.2v-.1l.1-.2v-.59c0-1.76-1.37-3.03-3.03-3.03s-3.03,1.27-3.03,3.03c0,1.66,1.37,3.03,3.03,3.03h0ZM125.66,382.24h.29l.1-.1h.29l.2-.1h.1l.1-.1h.2l.1-.1.1-.1h.1l.1-.1.2-.1.1-.1.1-.1.1-.1.1-.1v-.1l.1-.1.1-.1.1-.2v-.1l.1-.1.1-.2v-.2l.1-.2v-.59c0-1.56-1.27-2.83-2.83-2.83s-2.93,1.27-2.93,2.83,1.37,2.93,2.93,2.93h0ZM162.86,396.92l-.98.94-.29.29-.29.2-.39.29-.29.29-.29.39-.29.29-.2.29-.29.39-.29.29-.2.39-.29.29-.2.39-.2.39-.29.39-.39.78-.39.78-.29.78-.29.78-.29.88-.3.52-.29.78-.52.89c-.39,1.37-2.6,4.16-4.45,5.53"/>
  <path class="st4" d="M474.32,342.69l-48.03,53.06M444.15,345.23l10.35-13.57-2.44,17.48-3.32-4-4.59.1ZM455.86,339.76l11.72-9.57-5.47,14.26-2.05-3.91-4.2-.78ZM422.77,358.02l7.23-15.33,1.27,17.48-4-3.22-4.49,1.07ZM427.26,356.95l-6.83,35.64M426.77,397.37l25.39-16.6M430.48,401.08l31.63-30.56M457.92,368.47l14.74-8.49-8.98,15.13-1.46-4.98-4.3-1.66ZM453.91,359.1l-28.07,35.51M442,334.3l9.37-14.16-1.27,17.48-3.52-3.71-4.59.39ZM432.14,346.79l8.69-14.65-.49,17.57-3.61-3.52-4.59.59ZM461.14,321.51l11.42-12.6-3.91,17.18-2.83-4.2-4.69-.39ZM469.24,327.66l11.91-12.2-4.59,16.99-2.73-4.3-4.59-.49ZM470.41,340.64l13.57-10.25-7.03,16.11-2.05-4.69-4.49-1.17ZM471.78,350.21l12.4-8.59-6.64,13.67-1.76-4.1-4-.98ZM446.98,334.39l-23.43,59.17M465.34,321.9l-40.81,73.03M424.52,394.93l48.82-66.88M450.3,357.63l11.72-9.57-5.47,14.16-2.05-3.91-4.2-.68ZM460.16,358.9l11.62-9.57-5.47,14.26-2.05-3.91-4.1-.78ZM448.35,378.62l15.52-7.03-10.45,14.16-.98-4.98-4.1-2.15ZM392.6,430.27l1.76,4.49-6.83,13.28-2.15-6.15-6.44.88,8.98-11.81,4.69-.68ZM398.16,430.37l1.95,4.3-5.66,13.57-2.34-5.96-5.96,1.17,7.62-12.3,4.39-.78ZM410.95,437.69l2.93,3.81-3.22,14.55-3.61-5.27-5.96,2.54,5.47-13.86,4.39-1.76ZM392.5,443.26l-3.22,6.35h5.86l5.86-11.13,1.07-.2-2.15-3.03-5.47,12.99-1.95-4.98ZM405.48,437.21l2.54,4.1-4.69,14.16-3.03-5.66-6.15,1.95,6.83-13.18,4.49-1.37ZM386.84,429.98l.88,4.78-9.18,11.72-.98-6.35-6.44-.29,10.84-10.15,4.88.29ZM386.84,423.44l-8.2,6.64M381.66,434.37l22.26-18.45M387.13,423.05l.39,4.78-2.05,2.25-3.32-.39-7.03,6.54-.68.39.68-3.42-6.05-.59,13.08-10.54,4.98.98,16.21-11.52M413.69,425.49l-4.3,19.23M410.56,423.63l-8.69,22.46M405.48,418.07l-11.91,20.02M392.6,430.27l12.2-13.47"/>
  <path class="st7" d="M192.73,408.99h0l-.1-.1v-.1h-.2l-.1-.1h-.78l-.2.1h-.2l-.2.1h-.1l-.2.1-.2.1-.2.1-.29.1-.2.2-.2.1-.2.2-.29.1-.2.2-.29.2-.2.2-.29.2-.2.29-.29.2-.2.29-.29.29c-3.22,3.42-7.42,6.83-8.01,9.28-.49,2.34,1.95,7.71,7.52,5.86,5.57-1.86,8.01-7.13,9.47-9.28.59-1.46,1.37-5.66,1.07-6.64M187.75,403.42h-.29l-.2-.1h-.1l-.1-.1h-.2l-.1-.1h-.1l-.2-.1-.2-.1-.2-.1h-.1l-.2-.1h-.2l-.1-.1h-1.07l-.1.1h-.29l-.1.1h-.2l-.1.1h-.29l-.1.1h-.1c-2.64,1.07-9.08,7.32-9.57,8.4-.49,1.07-2.05,4.49-.49,6.35,1.56,1.86,4.98,2.15,6.35,1.86M183.65,394.64l-.2-.1-.1-.1-.2-.1-.2-.1h-.29l-.2-.1h-.2l-.2-.1h-1.76l-.2.1h-.29l-.29.1-.2.1h-.29l-.29.1-.2.1-.29.1-.2.1-.29.2-.2.1-.29.1-.2.2-.2.2-.29.1-.2.2-.2.2c-2.34,2.44-7.32,7.32-8.2,9.28-1.95,4.39,1.95,7.71,5.08,6.83M182.87,393.85c.41-1.19,1.26-2.24,2.05-3.03,1.27-1.3,3.48-2.16,5.08-2.54M215.09,411.72c.68.49-17.48-1.07-18.06-1.17M185.8,402.64c.88-.68,1.17-2.93.78-3.91M415.05,401.67c-2.05-.78-2.05-3.22-1.17-3.52-3.18,3.84,4.09.2,13.96,12.89,3.12.78,7.03-2.44,4.98-6.83-.88-2.05-5.86-6.93-8.3-9.28l-.29-.29-.39-.39-.2-.1-.2-.2-.2-.1-.2-.2-.29-.1-.2-.2-.2-.1-.2-.1-.29-.1-.2-.1-.29-.1-.2-.1h-.29l-.2-.1h-.29l-.2-.1h-.78l-.29.1h-.29l-.29.1-.29.1-.29.1-.29.1-.29.2-.29.1-.29.2v-.68s-.1-.29-.1-.29v-.29l-.1-.29-.1-.29-.2-.29-.1-.39-.2-.29-.1-.29-.2-.29-.2-.29-.29-.39-.2-.29-.29-.2-.29-.29-.29-.29-.29-.2-.29-.29-.39-.2-.39-.2-.39-.1-.39-.2h-.2l-.2-.1h-.49l-.29-.1h-1.27l-.2.1h-.59l-.29.1-.29.1h-.29l-.29.1-.29.1-.29.1-.39.2-.29.1-.39.1c-7.13,3.32-2.83,12.2-1.46,12.5-3.03.1-13.47-.29-15.04-.29-12.91.73-9.48,5.31-2.44,10.74,3.91,0,16.11-.88,16.6-.98l.49,1.37-.1.1v.1l-.1.1v.1l-.1.2-.1.1v.1l-.1.1v.2l-.1.1v.29l-.1.1v.49l-.1.1v.39l.1.1v.39l.1.1v.2l.1.2.1.2v.1l.1.1.1.1v.1l.1.1v.1l.1.1.1.1h.1l.1.1v.1c1.95,1.85,4.3,7.91,9.96,9.76,5.56,1.85,7.91-3.52,7.42-5.86-.59-2.44-4.88-5.86-8.1-9.28-2.83-2.93-4.88-3.81-6.25-2.73,3.52-3.31,9.29,6.6,14.06,10.64,1.27.29,4.78,0,6.35-1.86,1.56-1.85,0-5.27-.59-6.35-.49-1.07-6.93-7.32-9.57-8.3l-.2-.1h-.1l-.1-.1h-.2l-.1-.1h-.2l-.1-.1h-.49l-.2-.1h-.39l-.2.1h-.29l-.1.1h-.2l-.1.1-.2.1-.2.1-.2.1h-.1l-.1.1h-.2l-.1.1h-.29l-.1.1h-.2M211.48,401.47l-16.5-.88c4.78-8.3,1.17-9.18-.29-10.94-1.46-1.76-7.03-3.52-11.72,4.39-7.63.48-14.98,9.82-15.04,13.86,0,4.39,3.52,4.69,4.98,4.1-1.17,3.81-.29,7.91,6.44,7.62-1.37,4.49,2.93,9.18,7.42,7.13,4.39-2.15,8.2-6.83,9.37-9.18,1.17-2.34.88-5.27.88-5.27v-1.76s5.37.88,8.01.88c3.52.29,8.2.29,9.67.29-.59-1.76,4.2-8.79,7.71-8.79-5.57.88-10.94.29-10.94-1.46h0Z"/>
  <path class="st0" d="M405.09,396.88l.1.2v.1l.1.1.1.1v.2l.1.1v.1l.1.1.1.1v.1l.1.1.1.1.1.1.1.2.2.2.2.1v.1l.1.1.1.1.1.1.1.1h.1l.1.1.2.1.1.1.1.1.1.2.2.1c.1-1.66.1-2.73.49-4.49l1.46-1.95c.1-.29-.2-2.44-1.76-3.03-2.54-.78-2.93.78-3.52,2.73l.68,3.61ZM403.43,408.7v-1.37l.1-.1v-.49l.1-.2.1-.2v-.1l.1-.1v-.2l.1-.1v-.2l.1-.2.1-.1v-.1l.1-.2v-.1l.1-.2c.88,1.27,1.37,2.25,2.54,3.61l2.25,1.07c.2.2.98,2.25-.2,3.52-1.76,1.86-2.93.68-4.3-.78l-1.17-3.52ZM403.43,408.7v-1.37l.1-.1v-.49l.1-.2.1-.2v-.1l.1-.1v-.2l.1-.1v-.2l.1-.2.1-.1v-.1l.1-.2v-.1l.1-.2c.88,1.27,1.37,2.25,2.54,3.61l2.25,1.07c.2.2.98,2.25-.2,3.52-1.76,1.86-2.93.68-4.3-.78l-1.17-3.52ZM405.87,402.35h-.2v-.1h-.1v-.1h-.1v-.1h0v-.1h.1v-.1h.1l.1-.1h.1l.1-.1h.2l.2-.1h.2l.2-.1h.29l.2-.1h.68l.39-.1h1.66l.39.1h.39l.39.1.39.1h.2l.2.1.2.1h.2l.2.1.1.1h.2l.2.1.1.1.2.1.1.1.1.1.2.2.1.1.1.1.1.2c1.86,2.83-.49,5.18-2.83,4.98-1.07-.1-1.17-.68-1.95-2.05-.68-1.17-2.54-3.32-3.32-3.61h0ZM415.93,399.13h.39l.1-.1h.1l.1-.1h.1l.1-.1.2-.1.1-.1.1-.1.1-.2.2-.1.1-.1.1-.2.1-.2.1-.1.1-.2.1-.2.1-.2v-.1h0l.1-.1v-.59l.1-.1v-.1l-.1-.1v-.39l-.1-.1v-.2l-.1-.2v-.1l-.1-.1-.1-.1c-2.64-4.39-8.98,1.76-8.59,1.37-.49.59,3.03.2,4.59,1.95l2.05.98ZM415.93,399.13h.39l.1-.1h.1l.1-.1h.1l.1-.1.2-.1.1-.1.1-.1.1-.2.2-.1.1-.1.1-.2.1-.2.1-.1.1-.2.1-.2.1-.2v-.1h0l.1-.1v-.59l.1-.1v-.1l-.1-.1v-.39l-.1-.1v-.2l-.1-.2v-.1l-.1-.1-.1-.1c-2.64-4.39-8.98,1.76-8.59,1.37-.49.59,3.03.2,4.59,1.95l2.05.98ZM188.92,400.69v.1l-.1.1v.2h0v.1h0l.1.1h.29l.1-.1h.2l.2-.1.1-.1h.1l.1-.1.2-.1h.1l.1-.1.2-.1.29-.2.29-.2.29-.29.29-.2.29-.29.29-.29.29-.29.29-.29.29-.29.2-.29.29-.29.1-.2.1-.2.1-.1.1-.2.1-.2.1-.1v-.2l.1-.2v-.1l.1-.2v-.29l.1-.2v-.29l-.1-.2c-.49-3.42-3.91-2.83-4.49-1.95-.68.88-.59,1.07-.29,2.64.29,1.37-.29,4.3-.78,4.98h0ZM195.95,413.58h-.1v.1h-.2v.1h-.1l-.1.1h-.1l-.1.1h-.2l-.1.1h-.2l-.1.1h-1.27l-.1-.1h0c-1.56-.29-2.25-1.95-.88-3.52,1.37-1.66,1.95-1.56,3.42-4.3.78,1.66,1.37,3.22.78,5.56l-.68,1.76ZM195.17,403.42h.2v-.1h.1l.1-.1h0v-.1h0v-.1h-.1v-.1h-.1l-.1-.1h-.1l-.1-.1h-.2l-.1-.1h-.29l-.2-.1h-.49l-.29-.1h-.78l-.39-.1h-.39l-.39.1h-.78l-.39.1-.49.1-.39.1h-.1l-.2.1h-.2l-.2.1-.2.1h-.1l-.2.1-.2.1-.1.1-.2.1-.1.1-.1.1-.2.1-.1.2-.1.1-.1.1c-1.86,2.93,1.27,4.69,2.25,4.49,1.07-.29,1.07-.39,1.86-1.86.68-1.17,3.03-3.03,3.91-3.32h0ZM185.41,399.13l-.1.1v.1l-.1.1-.1.1-.1.1h-.1v.1l-.1.1h-.1l-.1.1h0l-.1.1h-.1l-.1.1h-.1l-.1.1h-.88l-.1-.1h-.29l-.1-.1h-.1l-.1-.1-.1-.1h-.1l-.1-.1h-.1v-.1h-.1l-.1-.1h0l-.1-.1h0c-.49-.2-1.46-1.76.88-3.91,2.44-2.15,5.47.39,6.93,2.34,1.66,2.25-.59.39-3.12.88l-1.17.39ZM185.41,399.13l-.1.1v.1l-.1.1-.1.1-.1.1h-.1v.1l-.1.1h-.1l-.1.1h0l-.1.1h-.1l-.1.1h-.1l-.1.1h-.88l-.1-.1h-.29l-.1-.1h-.1l-.1-.1-.1-.1h-.1l-.1-.1h-.1v-.1h-.1l-.1-.1h0l-.1-.1h0c-.49-.2-1.46-1.76.88-3.91,2.44-2.15,5.47.39,6.93,2.34,1.66,2.25-.59.39-3.12.88l-1.17.39Z"/>
  <path class="st17" d="M278.65,408.89l-.29.2-.39.29-.29.2-.29.29-.29.2-.29.29-.49.39-.49.39-.59.49-.49.39-.39.39-.98.88-.49.39-.49.39-.49.49-.49.39-.49.49-.29.2-.29.29c-2.93,2.64-7.91,6.44-4.98,5.57,2.93-.88,6.44-.88,8.3-.88,1.76,0,2.25,1.17,2.25,1.17,0,0-2.93,4.39-3.81,5.57-.88,1.17-1.76,2.05-1.76,2.05,0,0,1.46-1.17,3.32-2.05,1.76-.88,5.86-2.05,5.86-2.05l3.22-1.17c-2.34,3.22-2.34,5.27-3.22,7.03-.88,1.86-1.76,4.1-1.76,4.1,3.51-2.05,2.64-2.93,4.98-3.42,2.34-.68,4.98-1.27,4.98-1.27h1.46c-1.76,3.81-2.93,8.3-2.93,8.3,0,.88-.59,2.64-.59,2.64,2.64-2.34,3.81-4.39,5.27-5.27,1.56-.98,3.61-1.86,3.61-1.86h1.17s-.88,4.78-.88,7.13c1.46,3.22,8.2,2.93,10.25.29.29-1.76-.29-6.54-.29-6.54,2.93,2.15,8.59,2.44,9.47,5.37-.59-2.34-2.93-9.67-2.93-9.67,4.39,1.37,5.27,2.05,6.44,3.42,1.17,1.56,4.39,1.56,4.39,1.56-.88-3.32-2.93-8.59-2.93-8.59,4.1,1.86,5.57,1.86,7.62,3.22,2.05,1.56,3.61.39,3.61.39,0,0-.98-2.73-3.61-6.25s-2.05-2.05-2.05-2.05c5.27.59,5.66.29,7.42.59,1.76.29,4.1.29,4.1.29,0,0,.88,1.17-.88-1.76-1.76-2.93-11.81-11.42-12.99-12.69-3.22,0-4.69-.2-5.57-.88,2.64,4.49,4.04,5.6,2.28,7.36-1.76,1.76-6.09-1.11-6.09-1.11,1.66,4.1,1.46,7.62-.59,8.79-2.05,1.17-8.3-6.44-8.59-7.91.59,4.69-.29,10.54-3.22,11.42-2.93.88-3.81-1.17-4.39-3.81-.59-2.64-.59-4.98-.59-4.98-3.61,4.39-4.78,5.57-7.71,4.69-2.93-.88-2.05-4.39-1.76-5.27.29-.88,2.64-5.27,2.64-5.27-4.1,4.39-4.98,4.39-6.74,2.93-1.76-1.46-1.76-3.51-.59-4.69,1.17-1.27,2.05-3.51,2.05-3.51,0,0-3.51.88-4.98,2.05Z"/>
  <path class="st10" d="M296.52,425.39l-.1.29v.39l-.1.39v.39l-.2.88-.1,1.07-.1,1.07-.2,1.17-.1,1.37-.2,1.27-.1,1.46-.2,1.37-.1,1.56-.1,1.46-.29,3.12-.29,3.12-.1,1.56-.1,1.56-.1,1.56v1.46l-.1,1.37-.1,1.37v1.37l-.1,1.17v3.61l.1.49v1.07l.1.29c.78,5.76,2.83,20.5,6.05,21.38,3.22-.88,5.47-16.11,6.25-21.97.78-5.86-1.86-34.47-2.93-38.18M293.59,419.93l-1.17,2.25-1.07,2.25-.98,2.34-.88,2.34-.88,2.34-.68,2.34-.68,2.25-.59,2.34-.59,2.25-.49,2.25-.39,2.25-.39,2.25-.29,2.15-.2,2.05-.29,2.05-.2,1.95-.1,1.95-.1,1.86-.1,1.76v1.76l-.1,1.56v1.46l.1,1.46v2.54l.1,1.07v.88l.1.88v.68l.1.49v.49l.1.2c1.07,9.28,8.98-13.47,10.06-15.43M285.88,419.63l-1.17,1.66-1.07,1.66-.98,1.76-.98,1.86-.88,1.86-.88,1.95-.78,2.05-.78,1.95-.68,2.05-.68,2.05-.68,2.05-.59,1.95-.49,2.05-.59,1.95-.49,1.95-.39,1.95-.39,1.86-.39,1.76-.29,1.76-.29,1.66-.29,1.46-.29,1.46-.2,1.37-.2,1.17-.1,1.07-.2.98v.39l-.1.39v.39l-.1.29v.68l-.1.1v.1h0v-.1c-.2,9.37,12.11-14.45,13.38-16.21M281.58,415.73l-1.46,1.46-1.46,1.66-1.37,1.56-1.37,1.66-1.27,1.76-1.17,1.66-1.17,1.76-1.07,1.76-1.07,1.66-.98,1.76-.88,1.76-.88,1.76-.88,1.66-.78,1.66-.78,1.66-.68,1.56-.59,1.56-.59,1.56-.59,1.46-.49,1.37-.49,1.27-.39,1.27-.39,1.17-.39,1.07-.29.98-.2.88-.29.78-.2.68-.1.49-.1.39-.1.29v.1l-.1.1c-2.83,8.59,13.67-10.64,15.82-12.5M278.17,408.79l-1.56,1.17-1.56,1.27-1.46,1.27-1.56,1.37-1.37,1.46-1.46,1.46-1.37,1.46-1.37,1.56-1.27,1.56-1.27,1.56-1.17,1.56-1.17,1.56-1.17,1.56-1.07,1.46-.98,1.56-.98,1.46-.98,1.46-.88,1.37-.78,1.37-.78,1.27-.78,1.27-.59,1.17-.68,1.07-.49.98-.49.88-.39.78-.39.59-.1.29-.1.29-.2.2-.1.2v.2l-.1.1v.1l-.1.1h0c-4.2,8.01,15.91-8.88,18.26-10.54M306.58,419.44l1.17,2.25,1.07,2.25.98,2.34.88,2.34.78,2.25.78,2.34.68,2.34.59,2.34.59,2.25.49,2.25.39,2.25.39,2.15.29,2.15.29,2.15.2,2.05.2,1.95.2,1.95.1,1.85.1,1.76v1.66l.1,1.66v2.83l-.1,1.37v1.17l-.1,1.07v.98l-.1.78v1.27l-.1.39v.29c-1.07,9.18-9.08-13.57-10.15-15.43M314.29,419.14l1.07,1.56,1.07,1.76,1.07,1.76.98,1.76.88,1.95.88,1.95.78,1.95.78,1.95.78,2.05.68,2.05.59,2.05.59,2.05.59,1.95.49,2.05.49,1.95.49,1.86.39,1.86.39,1.86.29,1.66.29,1.66.29,1.56.29,1.37.2,1.37.2,1.27.1,1.07.2.88v.49l.1.29v.39l.1.29v.49l.1.2v.2h0c.29,9.28-12.01-14.55-13.28-16.21M320.05,416.61l1.37,1.66,1.46,1.56,1.27,1.66,1.27,1.66,1.17,1.76,1.17,1.76,1.17,1.66.98,1.76.98,1.76.98,1.76.88,1.66.88,1.76.78,1.66.78,1.66.68,1.56.59,1.56.68,1.46.49,1.46.59,1.37.39,1.37.49,1.27.39,1.07.29,1.07.29.98.29.88.2.78.2.68.2.59.1.39.1.29v.1h0c2.93,8.59-13.67-10.45-15.72-12.4M322.79,409.28l1.76,1.27,1.66,1.27,1.56,1.37,1.56,1.46,1.46,1.37,1.46,1.46,1.37,1.46,1.37,1.46,1.27,1.46,1.17,1.46,1.17,1.46,1.07,1.46,1.07,1.46.98,1.37.98,1.46.88,1.37.88,1.27.78,1.37.68,1.17.68,1.17.59,1.17.59,1.07.59.98.39.98.49.78.29.78.39.68.2.59.29.49.1.29.1.29.1.1c4.2,8.01-15.13-8.2-17.57-9.86"/>
  <path class="st18" d="M342.22,305.1l.29.1.39.2.29.1.39.2.49.1.39.1.49.2.49.1.49.1.49.1.59.1h.49l.59.1h.59l.59.1.59-.1h1.17l.59-.1.68-.1.59-.1.59-.2.68-.2.59-.2.68-.29.59-.29.59-.39.68-.39.59-.39.59-.49.59-.49.59-.59c6.15-6.05,9.76-16.11,9.76-22.55s-.29-7.42-4.49-12.11c-4.1-4.69-6.15-5.57-6.74-10.25-.59-4.69,1.76-9.47,10.06-16.79,8.2-7.32,15.82-16.31,27.63-25,6.74-4.98,17.09-13.47,27.05-18.45,6.54-3.22,14.06-7.03,21.28-10.64,7.62-3.81,17.67-4.98,20.31-4.98s4.39,0,1.46,3.22c-2.93,3.22-14.74,11.81-17.38,13.28-2.64,1.46-7.42,4.1-7.42,4.1,5.66-.59,8.3.29,9.18,2.64.88,2.34-2.05,7.91-4.39,9.67-2.44,1.76-12.11,6.15-13.86,7.13,4.39,1.07,9.67.88,9.37,4.1-.29,3.22-2.64,5.56-4.98,7.03-2.34,1.46-11.42,5.57-11.42,5.57,4.1.29,6.44.88,7.03,2.93.59,2.05-2.05,5.37-6.15,7.13,4.69,1.46,8.49,2.34,8.2,5.27-.29,2.93-3.81,5.86-6.83,6.74,3.91,1.46,7.13,4.39,6.54,7.03-.59,2.64-2.05,2.93-4.98,4.1,3.52,2.15,5.86,4.49,4.98,6.83-.88,2.34-5.86,3.81-7.91,4.39,4.39,2.34,6.74,4.98,6.15,7.62-.59,2.64-7.03,2.64-9.47,2.64,2.44,3.32,5.96,8.01,4.69,9.37-1.07,1.56-5.18,3.32-7.62,2.73,2.44,3.52,4.1,7.03,2.44,8.79-1.85,1.76-6.54.88-8.88,0-2.34-.88-1.76-.29-1.76-.29,0,0,6.44,5.56,3.81,10.64-.78,1.46-6.15,1.37-7.91.49,2.05,4.2,1.76,7.42.59,8.59-1.27,1.17-6.83,0-8.3-.88,1.76,4.98,2.34,7.62.29,8.79-2.05,1.17-7.32-.29-9.47-2.34,1.56,4.98,1.86,7.03.39,8.2-1.46,1.17-8.01,1.76-10.64-.59,1.46,3.91.59,6.25-1.17,7.32-1.76,1.27-5.56,1.27-8.49-2.34-.29,5.96,0,7.13-2.73,8.3-2.64,1.17-6.74-2.05-8.79-3.81-.88,5.57-.78,7.13-2.93,7.62-3.81.88-7.03-3.03-8.2-5.37-.88,4.1-2.74,5.96-3.62,6.25-.88.29-1.76-1.46-1.76-1.46l-.29-57.9ZM255.9,306.27l-.29.1-.29.2-.39.1-.39.2-.49.1-.39.1-.49.2-.49.1-.49.1-.49.1-.49.1-.59.1h-1.07l-.59.1h-.59l-.59-.1h-.68l-.59-.1-.59-.1-.59-.1-.68-.2-.59-.2-.68-.2-.59-.29-.59-.29-.68-.39-.59-.29-.59-.49-.59-.39-.59-.59-.59-.49c-6.25-6.25-10.64-15.33-10.64-21.77s0-7.91,4.1-12.69c4.1-4.69,6.35-5.56,7.03-10.25.88-5.57-5.27-12.6-10.84-18.55-7.62-8.01-15.62-14.65-25.87-23.53-6.44-5.47-17.97-12.6-28.02-17.57-6.44-3.22-14.06-6.74-21.19-10.35-7.71-3.81-18.26-6.15-20.89-6.15s-2.05,2.34.88,5.66c2.93,3.12,13.86,9.37,16.5,10.84,2.64,1.46,10.35,6.15,10.35,6.15-5.66-.59-11.23-1.76-12.11.59-.88,2.34,2.05,7.91,4.39,9.67,2.34,1.86,10.64,7.03,12.4,8.01-4.49,1.17-9.47,0-9.18,3.22.29,3.22,2.64,5.86,4.98,7.32,2.44,1.46,10.94,5.86,10.94,5.86-4.1.29-6.74,1.46-7.32,3.61-.68,2.05,2.93,4.69,7.03,6.44-4.69,1.46-8.2,3.22-7.91,6.15.2,2.93,4.69,4.39,7.62,5.27-3.81,1.46-8.3,4.39-7.62,7.03.59,2.64,3.22,2.93,6.15,4.2-3.52,2.05-6.83,4.69-5.96,7.03.98,2.34,5.08,3.81,8.88,4.1-4.39,2.34-6.74,4.98-6.15,7.62.59,2.64,6.15,3.61,8.49,3.61-2.34,3.12-4.98,7.03-3.81,8.49,1.17,1.46,5.27,3.22,7.62,2.64-2.34,3.52-4.1,7.03-2.34,8.79,1.85,1.76,6.74,1.27,8.88,0,1.46-.88-1.76,2.34-1.76,2.34,0,0-3.03,2.93-.29,8.01.78,1.46,6.15,1.37,7.91.59-2.05,4.1-1.76,7.32-.59,8.49,1.17,1.17,6.74,0,8.2-.88-1.76,4.98-2.34,7.62-.29,8.79,2.05,1.17,7.42-.29,9.47-2.34-1.46,4.98-1.76,7.03-.29,8.2,1.46,1.27,7.91,1.76,10.54-.59-1.46,3.81-.59,6.15,1.17,7.42,1.86,1.17,5.66,1.17,8.59-2.34.29,5.86,0,7.03,2.64,8.2,2.64,1.17,6.74-2.05,8.79-3.81.88,5.57,1.76,6.25,3.91,7.03,2.34.88,6.74-2.93,7.91-5.27.88,4.1,3.61,6.44,4.39,6.74.88.29.39-1.46.39-1.46l.19-57.9ZM269.18,398.54l-.59.1h-1.85l-.59.1h-4.1l-.39-.1h-.68l-.39-.1-.29-.1h-.29l-.29-.1-.29-.1-.29-.1-.2-.2-.29-.1-.2-.2-.29-.1-.2-.2-.2-.2-.2-.2-.29-.2-.2-.29c-2.05-2.64-1.17-11.72-1.37-16.99-.39-5.37,0-10.94,0-10.94-5.96-.59-11.52,1.76-13.28,4.39-1.76,2.64-.88.88-.88.88,0,0-2.93,0-7.13,4.1-4.1,4.2-5.56,6.83-5.56,6.83-4.98,2.93-7.71,5.86-8.79,7.62-1.17,1.76-1.17,3.81-1.17,3.81-4.49,2.05-6.25,3.52-6.83,4.39-.59.88,0,2.44,2.34,2.44h8.01c-3.71,2.44-5.37,3.52-7.13,5.96-.88,1.07-1.76,2.54,1.76,3.71,3.61,1.17,10.94,2.93,12.69,1.46,1.76-1.46,2.93-2.05,2.93-2.05,0,0,0,1.17,2.64,1.17s8.59-.59,10.94-2.64c4.98.29,9.47-1.56,12.11-3.22M342.8,367.4h.59l.49-.1h2.54l.49.1h.49l.39.1h.49l.39.1.49.1.39.1.39.1.39.1.39.1.39.1.39.2.39.1.29.2.39.1.29.1.39.2.59.29.59.29.59.39.49.29c.88.59,4.1,2.93,4.1,2.93,0,0,1.76-.88,5.86,3.22,4.1,4.2,6.54,7.32,6.54,7.32,4.98,3.03,6.44,4.78,7.62,6.54,1.17,1.76,2.34,4.1,2.34,4.1,4.39,2.05,7.42,4.98,8.01,5.86.49.88-1.76,2.05-4.2,2.05s-7.62-.29-7.62-.29c3.81,2.05,6.74,4.1,7.62,7.03.88,3.03-.88,2.44-4.39,3.61-3.52,1.17-5.57,1.17-8.2.88-2.34-.29-4.49-1.46-4.49-1.46,0,0-2.93.29-5.57.29s-5.27-.59-7.91-2.05c-4.98.29-8.79-1.76-12.4-3.32-2.93-1.17-8.49-4-9.67-5.27-1.27-1.17-3.81-3.22-3.81-3.22,7.03.29,9.96.59,12.01-2.05,2.05-2.64,1.17-11.72,1.46-16.99.29-5.37,0-12.11,0-12.11h0ZM319.27,398.25l.59.59.59.68.49.59.59.68.49.68.29.29.2.29.29.29.2.39.2.29.2.29.2.29.2.29.2.29.1.29.2.29.1.29.1.29.1.29.1.2.1.29v.78l-.1.2-.1.2c-.88,1.76-6.15,1.46-7.62,0,2.34,4.1,4.12,6.5,2.07,8.46-2.05,2.05-4.32.43-6.08-1.04,1.76,4.1,1.46,6.05-.39,7.91-1.17,1.17-6.83-3.22-8.88-9.67.39,5.18.88,11.52-2.93,13.18-2.34.98-3.55-.48-4.42-2.72-.68-1.66-1.24-4.99-1.24-4.99-2.93,4.39-4.88,5.08-7.23,3.03-2.34-2.05-.88-5.08.29-6.83,1.17-1.66,2.05-4.1,2.05-4.1-4.49,4.69-5.37,5.37-7.13,4.39-1.76-.88-1.46-4.1-.29-6.15,1.17-2.05,2.44-3.51,2.44-3.51-3.32,2.93-7.71,3.51-8.3,2.05-.59-1.46-.88-2.64.29-4.39,1.17-1.76,4.1-4.69,4.1-4.69h14.74s3.52-.29,3.52,3.81c1.46-2.05,1.17-3.51,4.1-3.51s15.62-.29,15.62-.29h0ZM285.88,272.79l-.59.39-.59.39-.59.39-.49.39-.59.49-.49.39-.49.39-.29.29-.2.2-.2.2-.2.2-.2.29-.29.2-.1.2-.2.29-.2.2-.2.2-.1.29-.2.2-.1.2-.1.29-.1.2-.1.29-.1.2v.29c-.59,2.64-1.17,2.93-1.17,2.93,0,0-.59.59-2.34,2.05-1.86,1.46-3.61,3.52-4.2,4.39-.59.88-.59,2.34-.59,2.34,0,0-.29.29-2.05,2.64-1.76,2.34-3.22,3.52-2.93,7.13l70.1-.29s.59,0,.59-2.44c0-2.25-4.93-12.57-5.81-14.33-1.66-.29-1.68.08-2.85-1.97-1.17-2.05-1.98-3.62-1.98-4.49s-1.27-2.64-1.27-2.64c-.78,4.69-2.54,4.39-4,4.39s-4.58-5.42-5.17-6.88c-.88,4.39-1.67,8.34-3.33,8.93-1.76.59-3.91-.29-5.08-2.64-1.17-2.34-1.97-5.84-1.97-5.84-.88,3.22-1.55,6.72-3.01,7.89-1.46,1.17-3.61-.93-4.19-2.68-.68-1.76-.66-4.79-.66-4.79-3.61,2.93-7.54,6.01-9.3,5.13-1.76-.88-1.76-2.25-1.76-3.12,0-.98-.39-2.73-.39-2.73h0Z"/>
  <path class="st10" d="M288.12,404.2h-.1l-.1.1h-.1l-.1.1-.1.1-.1.1-.1.1-.1.1-.2.1-.1.1-.2.1-.1.2-.2.1-.29.39-.39.29-.39.39-.39.39-.29.39-.39.39-.39.49-.39.39-.29.49-.39.49-.29.39-.29.49-.29.49-.1.29-.1.2-.1.2-.1.29-.1.2v.2l-.1.29-.1.2v1.07l.1.2v.2l.1.2.1.2.1.1.1.2.2.2c3.12,3.42,7.81-4.39,7.91-4.2.2.29-7.03,10.06-1.27,11.33,3.42.78,6.44-3.81,7.23-4.88M281.48,398.54l-.39.29-.39.29-.39.29-.39.29-.39.39-.29.29-.39.29-.29.39-.29.29-.29.39-.2.29-.29.39-.2.29-.2.39-.2.29-.1.29-.2.39-.1.29-.1.29-.1.39-.1.29v1.07l.1.29v.2l.1.2.1.2.2.2.1.2.2.1c2.15,1.66,7.13.68,10.84-4.59M289.59,399.22l-.2.39-.1.39-.1.49-.1.39-.1.39-.1.49-.1.39v.39l-.1.39v.78l-.1.39v1.46l.1.39v.59l.1.39v.59l.1.2.1.29v.2l.1.29v.2l.1.2.1.2v.1l.1.2.1.1c1.86,2.93,4.88.2,5.66-1.66M296.33,410.65h0v.39l-.1.2v.39l-.1.2v.49l-.1.2v.29l-.1.29v.29l-.1.29v.39l-.1.68v.68l-.1.68-.1.78v3.12l.1.78.1.68.1.39v.39l.1.29.1.39.1.29.1.29.1.29.2.29.1.29.2.2.1.29.2.2.2.2.2.2.2.2.29.2.2.1.29.1.29.1h.29l.29.1h.68l.29-.1c6.35-.98,1.95-16.7,2.15-16.7M319.27,398.54l.2.2.2.2.2.2.2.29.2.2.29.2.2.29.29.29.2.2.29.29.49.59.39.59.29.29.2.29.2.29.2.29.2.29.2.29.2.29.1.29.2.29.1.29.1.29.1.29v1.27l-.1.1v.2c-1.07,2.34-5.27,1.56-8.79-.78M318.2,398.83l.1.2.1.1.2.39.1.1.1.2.1.2.1.2v.2l.1.1.1.2.1.2v.2l.1.2v.2l.1.2v1.07l-.1.2v.2l-.1.1-.1.2v.2l-.2.2-.1.1-.1.2-.1.1-.1.1h-.1v.1c-1.27,1.17-8.49-3.71-5.57-1.56M311.85,401.76l.29.2.29.29.29.29.39.39.29.29.39.39.39.49.39.39.39.39.39.49.39.49.39.49.78.98.39.59.39.49.29.49.39.59.29.49.29.49.29.59.29.49.2.49.2.49.1.39.2.49.1.39v1.37l-.1.2v.1l-.1.2c-1.86,2.44-6.15.39-7.71-.98M309.11,398.93l.2.1.2.2.2.29.2.2.29.2.2.29.2.29.29.2.2.29.2.29.29.29.2.29.2.29.2.39.2.29.2.29.2.29.1.39.1.29.2.29v.29l.1.39v1.17l-.1.1v.2l-.1.1-.1.2v.1l-.1.2-.1.1-.1.1-.1.2-.2.1-.1.1-.2.1c-2.34,1.86-4.2-.2-4.2-.2M304.33,403.42h-.1.1v.1h.1l.1.1v.1l.2.2.1.1.1.2.2.2.2.2.2.2.2.2.2.29.2.2.2.29.29.29.49.59.49.68.49.68.59.68.49.78.59.78.59.78.49.78.49.78.49.88.49.78.39.78.39.78.2.39.1.39.2.39.1.39.1.39.1.29.1.39v.29l.1.39v.88l-.1.29-.1.29-.1.29-.1.2-.1.2-.2.29-.2.2-.2.2c-5.86,4.2-10.15-9.76-9.96-12.11M285.78,298.17c.78,1.66.78,2.44,1.56,2.93M272.99,295.05c0,1.56-1.07,4.2-.29,5.56M283.63,297.97c-1.07,1.56-1.37,2.34-2.64,2.64M287.15,272.49h-.2l-.29.1-.2.1-.29.2-.2.1-.29.2-.39.29-.29.2-.29.2-.39.29-.29.29-.39.29-.29.29-.39.29-.29.39-.39.29-.39.39-.29.29-.29.39-.29.39-.29.29-.29.39-.29.39-.29.39-.2.39-.2.29-.2.39-.1.39-.2.39v.29l-.1.39v.29c0,3.42.29,4.49,1.07,5.27.78.78,9.08-4.88,9.96-8.3-.29,2.64-.2,9.08,2.83,11.52,2.93,2.34,7.13-4.49,7.42-7.71.78,2.64.78,7.71,5.57,9.86,4.78,2.05,5.47-6.44,6.05-8.3,1.07,3.71,4,6.15,6.74,6.35,2.64.29,4.2-5.86,4.2-7.71,1.37,3.52,4.3,4.88,6.44,6.15,2.05,1.37,2.64-2.93,1.86-4.2M296.72,300.9h.2l.1-.1h.59l.2-.1h.29l.2-.1h.2l.2-.1h.39l.1-.1h.2l.1-.1h.2l.1-.1h.2v-.1h.1l.1-.1h0v-.1h-.1l-.1-.1h-.39c-4.98-.59-5.57-6.15-6.05-8.49-.59,1.07-5.86,8.49-9.08,7.13-3.22-1.37-4.3-8.49-4.49-11.42-2.44,1.85-7.23,12.79-8.79,6.35-1.66-6.35,8.88-10.64,7.71-11.62M299.55,299.83h.98l.2-.1h.29l.2-.1h.1l.2-.1.2-.2.29-.1.29-.2.2-.2.29-.29.2-.2.2-.29.2-.2.2-.29.2-.29.2-.29.2-.29.2-.29.1-.29.2-.29.2-.29.1-.29.1-.29.2-.29.1-.2.1-.29.2-.2.1-.29.1-.2.1-.2.1-.1c1.27,3.22,4,6.83,6.64,7.42,2.64.49,6.05-7.23,6.05-8.79,1.86,4,5.08,8.01,8.01,8.01s2.64-9.08,3.22-10.64M331.18,286.26l.29.29.2.29.29.39.29.39.2.49.29.39.29.49.29.49.29.59.29.49.29.59.29.49.49,1.17.29.59.29.59.2.49.29.59.2.59.2.49.2.49.1.59.2.49.1.39.1.49.1.39v.39l.1.1v.39l-.1.1v.39l-.1.1v.1l-.1.1c-1.27,1.56-6.64-2.93-7.42-4.78M270.84,291.34c-1.56,1.86-4.49,6.35-4.78,8.2M343,344.65l.1.29.1.29.2.29.1.29.1.39.2.39.1.39.2.49.1.39.2.49.2.49.1.49.2.49.2.59.29,1.07.39,1.07.39,1.07.39,1.07.2.49.2.49.29.49.2.49.2.49.2.49.29.49.2.39.29.39c5.81,8.38,9.26,5.54,10.64-3.03M382.34,318.77l.59.49.49.49.59.49.59.49,1.07.98,1.17,1.07,1.17.98.59.49.59.59.59.49.59.49.68.49.59.39c3.61,2.64,6.44,4.49,9.08,5.86,3.12,1.56,6.83,1.56,8.01.29,1.56-1.46.29-6.35-.98-8.4M394.06,296.41l.2.1.2.1.2.1.2.1.29.1.2.2.2.1.29.2.2.2.29.1.2.2.29.2.2.2.2.2.29.2.2.2.2.29.2.2.2.2.2.2.2.2.1.2.1.2.2.2.1.2v.2l.1.1v.39h0v.2l-.1.1h0v.1l-.1.1c-1.46,1.86-5.37,2.44-9.86,1.27-5.37-1.27-7.62-2.05-8.88-2.83M391.62,303.83l.2.1.2.1.2.2.2.1.29.2.2.2.2.2.29.2.2.29.29.2.2.2.29.29.2.2.29.29.2.2.2.29.2.29.2.2.2.29.2.2.2.29.1.2.2.29.1.2.1.2.1.2v.88h0l-.1.1v.1c-1.66,2.05-6.25,2.64-10.94.49-5.47-2.44-7.71-3.71-8.88-4.88M388.49,312.23l.59.49.59.39.59.39.59.49.59.49.68.39,1.17.98,1.27.88.59.49.68.39.68.49.59.39.68.49.68.39c3.81,2.34,6.74,3.91,9.57,4.98,3.22,1.37,7.03.88,8.1-.39,1.27-1.56-1.53-7.96-2.99-9.82M393.28,304.03l.29.2.29.2.68.39.68.39.68.39.78.39.68.49.78.39.78.49,1.56.88.78.39.78.39.68.49.78.39.78.29.68.39c4,1.86,7.13,3.12,10.06,4,3.32.98,7.03.2,7.91-1.27,1.17-1.66-.88-6.93-2.54-8.69M396.4,296.61l.29.2.39.1.39.1.39.2.39.2.39.1.39.2.39.2.88.39.88.39.88.39.88.39.98.39.88.39.88.39.88.39.88.39.49.1.39.2.39.1.39.2.39.1.39.1c4.3,1.27,7.52,2.05,10.54,2.44,3.42.39,6.93-.98,7.71-2.44.88-1.95-3.52-7.71-5.37-9.28M357.54,332.73l.1.2.1.1.1.2.1.2.1.29v.2l.1.2v.29l.1.2v.49l.1.2v.78l-.1.2v.78l-.1.2v.2l-.1.2-.1.2-.1.2v.2l-.1.1-.2.2v.1h-.1v.1h-.1l-.1.1h0l-.1.1h-.19v.1c-2.34.59-5.86-2.15-8.69-5.76-3.42-4.39-4.59-8.1-5.08-9.47M349.64,334.88c.2.39,2.64,12.2-6.15,5.56M342.7,305.1l.29.2.29.29.39.2.49.2.49.2.49.1.59.1.59.1.59.1h2.93l.68-.1.78-.1.78-.2.88-.2.78-.2.78-.29.88-.29.78-.39.78-.39.78-.49.78-.49.78-.49.78-.59.68-.68.68-.68.68-.68.68-.88.29-.39.29-.39.29-.49.29-.49c5.86-10.06,8.01-21.77,4.2-26.56-3.71-4.78-14.84-12.2-7.42-21.77s31.05-31.44,43.64-40.32c12.69-9.08,34.76-22.46,51.06-26.07,4.78-1.07,13.67-2.93,11.91,0-5.08,8.79-25.78,18.06-38.27,26.85-2.73,1.95-37.79,20.7-41.2,24.12.49,3.71-4.78,5.86-10.15,9.08,4.3-1.07,7.52,2.64-3.22,8.49,5.08-1.07,7.03,3.22,1.66,7.71,2.93.2,5.57,2.64,2.64,6.64,1.85.78,4.78,3.42,1.85,6.64,1.66.78,4,3.71,0,5.76,3.52,1.07,3.22,4.59.59,5.37,4.49,1.07,2.15,5.66-.59,6.83,1.56,2.25,2.44,5.08-1.27,6.44,1.46,2.54.2,6.15-2.73,5.27,0,1.37,1.07,5.57-3.71,5.08,0,2.15-.98,6.35-4.98,5.57-.29,3.42-3.22,4.49-6.15,3.42-1.86,3.51-3.71,4.59-7.71,2.44-.78,1.27-6.15,5.08-8.79,1.07-.78,1.07-2.64,3.12-2.64,3.12M408.61,221.52l.39-.1.39-.2.39-.1.39-.1.39-.1h.29l.39-.1.39-.1h.39l.39-.1h.29l.39-.1h2.34l.29.1h.39l.29.1h.29l.2.1.29.1.29.1.2.1.29.1.2.1.2.1.2.2.2.1c1.85,1.66-4,8.01-5.57,9.28-1.66,1.37-31.44,14.35-32.22,15.43M403.63,235.77h.29l.2-.1h.29l.2-.1h.29l.29-.1h.29l.29-.1.39-.1h.29l.39-.1h.29l.39-.1h2.73l.29.1h.29l.29.1.29.1.29.1.1.1h.1l.1.1.1.1.1.1.1.1.1.1.1.1.1.1v.1c1.37,2.34-2.93,6.35-5.86,7.91-2.93,1.66-26.56,9.08-27.34,9.57M399.82,247l.29-.1h.2l.29-.1h.59l.29-.1h.98l.39-.1h1.46l.68.1h1.07l.39.1h.29l.29.1h.39l.29.1.2.1.29.1h.2l.2.1.1.1h.1l.1.1h.1v.1l.1.1h0l.1.1c.78,1.27-.78,5.57-6.35,7.71-5.66,2.05-24.51,4.49-24.51,4.49M398.84,256.77h.98l.29.1h.59l.29.1h.29l.29.1.59.1h.29l.39.1.29.1h.29l.2.1.29.1.29.1.2.1.29.1.2.1.2.1.2.1.2.1.1.1h0l.1.1.1.1h0l.1.1v.1h0l.1.1v.1h0v.29c-.29,1.56-3.42,5.76-9.57,6.64-6.15.78-15.72.59-16.5.39M398.55,265.26h.2l.2.1h.39l.29.1h.2l.29.1h.2l.29.1.2.1h.29l.29.1.2.1.29.1.2.1.29.1.2.1.2.1.2.1.2.1.2.1.2.1.1.2.2.1v.1h.1v.1l.1.1h0l.1.1v.1h0v.1l.1.1v.1h0l-.1.1v.2h0c-.98,2.25-4.59,4.49-9.18,4.69-5.86.1-12.69-.39-13.67-.68M398.55,272.68l.2.1h.39l.2.1h.49l.29.1.2.1h.29l.2.1.29.1h.29l.2.1.29.1.2.1.29.1.2.1.2.1.2.1.2.1.2.1.2.2.1.1.2.1v.1h.1v.1l.1.1h0l.1.1v.2h0l.1.1v.1h0l-.1.1v.2h0c-.98,2.25-4.59,4.59-9.18,4.69-5.86.1-11.62-.88-12.6-1.17M397.18,280.39l.2.1h.2l.2.1.29.1.2.1.29.1.2.1.29.1.29.2.2.1.29.2.29.1.2.2.29.1.29.2.2.2.29.2.2.1.2.2.2.2.2.2.2.2.2.2.1.1.1.2.1.1v.1l.1.1v.29h.1v.39h-.1v.2c-1.17,2.05-4.98,3.22-9.57,2.73-5.57-.49-7.81-.88-9.18-1.56M395.82,288.11l.2.1h.29l.2.1.2.1.29.1.2.1.29.2.29.1.2.1.29.2.29.2.29.1.29.2.2.2.29.2.29.2.2.2.29.2.2.2.2.2.2.2.2.2.2.2.2.2.1.2.1.1v.2l.1.1h0v.1l.1.1v.39h-.1v.2c-1.17,2.05-3.42,3.32-8.01,2.93-5.47-.59-10.35-2.73-11.72-3.32M387.91,312.03h.1v.1l.2.1.1.2.2.2.2.2.1.2.2.29.1.2.2.29.1.29.2.2.1.29.1.29.2.29.1.29.1.29.1.29.1.29v.29l.1.29.1.29v.59l.1.2v.29l-.1.2v.39l-.1.1v.2h-.1v.1l-.1.1h0l-.1.1c-1.86,1.46-6.15.29-10.25-1.86-4.88-2.64-6.83-4.98-7.81-6.15M382.34,318.86l.1.2.2.1.1.2.2.1.1.2.2.2.1.2.2.29.1.2.1.2.1.29.2.2.1.29.1.29.1.2.1.29v.29l.1.2.1.29v.49l.1.2v.68l-.1.2v.29l-.1.1v.2h-.1v.1l-.1.1h0l-.1.1h0c-1.95,1.56-5.57.59-9.76-2.44-4.39-3.32-6.83-5.66-7.81-6.83M374.43,323.26h.1l.1.1.1.2.2.1.1.2.1.29.2.2.1.29.1.2.1.29.2.29.1.29.1.29.1.29.1.29v.29l.1.29.1.39v.29l.1.29v.59l.1.2v.29l-.1.29v.59l-.1.1v.2h-.09v.1l-.1.1v.1h-.1v.1l-.1.1h-.1c-2.05,1.27-6.35.49-9.96-2.93-4-3.81-6.44-7.03-7.32-8.2M365.74,328.04l.1.1h.1l.1.2.1.2.1.2.2.2.1.29.1.29.1.2.1.29.1.29.1.29.1.29v.29l.1.39.1.29v.59l.1.29v1.46l-.1.2v.29l-.1.2v.2l-.1.1v.1l-.1.1v.1h-.1v.1l-.1.1h0l-.1.1h-.1c-2.15,1.07-6.83-.1-9.67-3.71-3.91-4.88-6.05-8.88-6.83-10.25M350.12,337.22l.1.29.2.39.2.39.2.39.2.39.2.49.2.59.29.49.29.59.2.59.29.59.29.59.59,1.27.59,1.27.68,1.27.59,1.27.29.59.29.59.29.59.29.59.29.59.29.49.29.49.2.49.29.39.2.39.2.39.2.29c2.05,3.03,6.15,6.64,9.86,5.86,3.81-.78,2.73-7.62,2.44-8.49M367.4,329.8l.1.1.1.1.1.1.1.1.1.2.1.1.1.2.2.2.29.39.39.49.39.49.39.49.39.59.49.59.49.59.49.68.49.59.49.68,1.07,1.37,1.07,1.37.59.68.49.59.49.68.59.59.49.59.49.59.39.59.49.49.39.49.39.39.39.39.1.1.2.2.1.1.2.2.1.1.1.1c1.56,1.17,1.95,7.71-2.05,8.79-5.27,1.37-9.37-5.37-11.52-8.01-2.15-2.64-6.64-10.84-7.71-12.5M380.68,346.01l.59.29.59.39.59.29.59.2.29.2.29.1.29.1.39.1.29.1.29.1.29.1.29.1h.29l.39.1h.29l.29.1h1.86l.29-.1h.29l.29-.1h.29l.29-.1.2-.1c3.03-1.07,1.46-6.64.98-8.79M375.6,324.43l.59.59.49.49.49.49.49.59,1.07,1.07.98,1.17,1.07,1.17.59.49.49.59.59.59.59.49.59.59.59.49c3.32,2.93,5.96,5.08,8.49,6.64,2.93,1.86,6.64,2.15,8.01,1.07,1.56-1.27.78-6.35-.29-8.49M397.18,288.11l.39.2.29.2.39.1.49.2.39.2.49.1.49.2.49.1.49.2.49.1.59.1.49.2,1.17.2,1.07.29,1.17.2,1.17.2,1.07.2,1.07.2.59.1.49.1h.49l.49.1.49.1.39.1h.49l.39.1c4.3.68,8.98,1.27,12.01,1.37,3.52,0,6.83-1.76,7.32-3.32.68-2.05-3.52-6.05-5.57-7.32M397.96,280.4l.39.1h.88l.49.1.49.1h.59l.59.1.59.1.68.1.68.1.68.1.68.1,1.37.2,1.46.2,1.46.29,1.37.2.68.1.78.1.59.1h.68l.68.1.59.1h.59l.59.1h.49l.49.1h.88c4.2,0,7.62-.2,10.74-.68,3.42-.49,6.44-2.83,6.74-4.39.29-2.15-3.61-5.37-5.86-6.25M399.33,272.49h2.73l.59.1h2.34l.68.1h1.27l1.37.1h2.64l1.37.1h5.37c4.39-.2,7.71-.59,10.74-1.17,3.32-.68,6.25-3.12,6.44-4.78.2-2.05-3.91-5.08-6.15-5.96M399.82,264.97h.78l.49-.1h.49l.49-.1h.59l.49-.1.68-.1h.59l.59-.1.68-.1.68-.1,1.27-.2,1.37-.2,1.37-.2,1.37-.2,1.37-.2.59-.1.68-.1.59-.2.59-.1.59-.1h.49l.59-.1.39-.1.49-.1.39-.1c4.3-.78,8.4-1.66,11.23-2.73,3.91-1.46,5.18-5.37,5.27-7.03,0-2.05-5.96-3.42-8.3-4M400.41,256.48h.39l.39-.1.39-.2.49-.1.59-.1.49-.2.59-.1.59-.2.59-.2.68-.2.68-.2.68-.2,1.37-.39,1.37-.49,1.37-.39,1.46-.49.68-.2.59-.2.68-.2.68-.2.59-.2.59-.2.59-.2.59-.1.49-.2.49-.1.39-.2.39-.1c4.3-1.07,6.54-2.44,9.37-3.71,3.12-1.37,4.98-4.88,4.2-6.35-1.07-2.15-4.78-2.15-7.13-2.34M401.48,246.72l.39-.1.49-.2.59-.1.59-.2.68-.2.68-.2.78-.29.78-.2.88-.29.88-.29.88-.29.88-.29,1.85-.59,1.86-.68,1.95-.59.88-.29.88-.39.98-.29.88-.29.78-.29.78-.29.78-.29.78-.29.68-.29.59-.2.59-.2.59-.29.39-.2.49-.1c3.81-1.86,7.42-3.81,10.35-5.08,3.12-1.37,6.54-6.83,6.35-8.49-.2-2.05-7.52-2.64-9.86-2.93M413.2,231l.49-.2.59-.2.59-.2.59-.29.68-.29.68-.29.78-.39.78-.29.78-.39.78-.39.78-.39.88-.39,1.66-.78,1.76-.88,1.66-.78.88-.39.78-.39.78-.39.78-.39.78-.39.68-.39.68-.39.68-.29.59-.39.59-.29.59-.29.49-.2.39-.29.39-.2c3.91-2.15,9.08-4.2,11.23-6.44,3.12-3.12,4.39-7.03,4.2-8.69-.2-2.05-5.57-3.71-9.86-2.93M348.07,358.51v1.46l-.1.2v.2l-.1.2-.1.1v.2l-.1.1-.1.2v.1l-.1.2-.1.1-.1.1-.1.2-.1.1-.2.2-.2.2-.2.29-.1.2-.2.2-.1.1-.1.1c-.78.98-3.03-.2-3.03-.2M206.99,304.91l-.2.1-.2.2-.2.1-.2.2-.2.2-.2.2-.2.29-.2.2-.2.29-.29.2-.2.29-.2.29-.2.29-.2.2-.2.29-.2.29-.2.29-.1.29-.2.29-.1.29-.2.29-.1.29-.1.2-.1.29v.2l-.1.29v.78h.1v.2h.1c1.66,2.15,5.47,1.95,10.06-.2,5.57-2.54,7.81-3.81,8.88-4.98M210.8,313.11l-.1.1h-.1l-.1.2-.2.1-.1.2-.2.2-.2.29-.1.2-.2.29-.1.2-.2.29-.1.29-.1.29-.2.29-.1.29-.1.29-.1.29-.1.29-.1.29-.1.29v.29l-.1.29v.49l-.1.29v.2l.1.29v.39l.1.1h0l.1.1v.2h.1l.1.1v.1c1.95,1.37,6.25.2,10.25-1.95,4.88-2.73,6.74-5.08,7.81-6.25M216.46,319.94l-.2.2-.1.1-.2.2-.2.1-.1.2-.1.2-.2.2-.1.2-.2.29-.1.2-.1.29-.1.2-.1.29-.1.2-.1.29-.1.29-.1.2-.1.29v.29l-.1.2v1.56l.1.1v.2h.1v.1l.1.1v.1h.1v.1h.1c1.95,1.46,5.56.49,9.67-2.54,4.39-3.42,6.83-5.76,7.81-6.83M224.37,324.24h-.1l-.1.1-.1.2-.2.2-.1.2-.1.2-.2.2-.1.29-.1.2-.1.29-.2.29-.1.29-.1.29-.1.29-.1.29v.29l-.1.39-.1.29v.29l-.1.29v1.86l.1.1v.2l.1.1v.1h.1v.1l.1.1v.1h.1v.1h.1c2.05,1.27,6.35.49,9.96-3.03,3.22-3.12,5.76-6.15,7.23-8.3M233.06,328.92l-.1.1-.1.1-.1.1-.1.2-.1.29-.2.2-.1.2-.1.29-.1.29-.1.29-.1.2v.39l-.1.29-.1.29-.1.29v.29l-.1.29v2.34l.1.2v.2l.1.2.1.1v.2l.1.1.1.1h0l.1.1v.1h.2c2.15,1.07,6.83-.1,9.67-3.81,3.81-4.88,5.96-8.89,6.64-10.25M255.81,345.72l-.2.29-.1.39-.2.39-.2.39-.2.39-.1.49-.2.39-.2.49-.2.49-.2.49-.29.98-.39,1.07-.29.98-.39,1.07-.29.98-.39,1.07-.2.39-.2.49-.1.49-.2.39-.2.39-.2.49-.2.29-.1.39-.2.29-.2.39c-2.05,3.42-4.49,4.98-6.05,4.78-4.3-.49-4-6.54-4.3-8.2M249.17,337.22l-.1.39-.2.39-.2.39-.2.49-.29.49-.2.59-.29.49-.2.59-.29.59-.29.68-.29.59-.29.68-.68,1.37-.59,1.37-.68,1.37-.29.59-.29.68-.39.68-.29.59-.29.59-.29.59-.29.59-.29.49-.2.49-.29.49-.2.39-.2.39-.2.29-.2.29c-1.95,3.03-6.05,6.74-9.86,5.96-3.71-.78-2.64-7.71-2.44-8.49M231.4,330.78l-.1.1-.1.1-.1.2-.2.1-.1.2-.2.2-.29.39-.39.49-.29.49-.49.49-.39.59-.49.59-.49.68-.49.59-.49.68-.49.68-.59.59-1.07,1.37-.98,1.37-.59.68-.49.59-.49.68-.49.59-.49.59-.39.49-.49.59-.39.39-.29.49-.39.39-.1.1-.2.2-.1.1-.1.2-.2.1-.1.1-.1.1-.1.1c-1.46,1.07-1.76,7.71,2.25,8.69,5.27,1.37,9.28-5.37,11.42-8.1,2.05-2.64,6.44-10.84,7.52-12.5M218.22,347.09l-.49.29-.59.29-.59.39-.59.2-.68.29-.29.1-.29.1-.29.1-.29.1-.29.1-.39.1h-.29l-.29.1-.29.1h-2.44l-.29-.1h-.29l-.29-.1-.29-.1-.29-.1c-2.93-.98-1.46-6.54-.98-8.69M223.1,325.51l-.49.49-.49.59-.49.49-.49.59-.49.49-.59.59-.98,1.17-1.07,1.07-.49.59-.59.59-.59.59-.49.49-.59.59-.59.49c-3.32,2.93-5.96,5.08-8.49,6.74-2.93,1.95-6.64,2.25-7.91,1.17-1.66-1.37-.88-6.44.2-8.49M255.9,305.79l-.29.29-.29.2-.39.2-.49.2-.49.2-.49.2-.59.1-.59.1-.59.1h-2.93l-.68-.1-.78-.1-.78-.2-.88-.2-.78-.2-.78-.29-.88-.29-.78-.29-.78-.49-.78-.39-.78-.49-.78-.49-.78-.59-.68-.68-.78-.68-.68-.78-.59-.78-.29-.39-.29-.39-.29-.49-.29-.49c-5.96-10.06-8.2-21.68-4.49-26.46,3.61-4.78,14.74-12.4,7.23-21.87-7.52-9.47-31.24-31.15-43.94-39.93-12.89-8.98-43.16-24.6-59.46-27.53-4.78-.88-2.73,4.69-.29,6.54,3.61,2.83,32.61,18.94,35.25,21.09,3.03,2.64,37.69,21.19,41.2,24.7-.49,3.71,4.78,5.76,10.15,8.88-4.3-.98-7.42,2.73,3.32,8.49-5.08-1.07-6.93,3.22-1.56,7.71-2.93.29-5.56,2.73-2.64,6.64-1.86.78-4.69,3.52-1.76,6.64-1.66.78-4,3.81,0,5.86-3.42,1.07-3.12,4.49-.49,5.37-4.49,1.07-2.05,5.66.59,6.83-1.37,2.25-2.34,5.08,1.37,6.35-1.37,2.64-.2,6.15,2.73,5.27.1,1.37-.98,5.66,3.81,5.08,0,2.15,1.17,6.35,5.08,5.47.29,3.51,3.22,4.49,6.15,3.42,1.95,3.52,3.81,4.49,7.71,2.34.88,1.37,6.15,4.98,8.79.98.78,1.07,2.34,2.44,2.34,2.44M189.22,222.79l-.78-.29-.78-.2-.78-.2-.78-.2h-.39l-.39-.1-.39-.1h-.78l-.29-.1h-1.76l-.39.1h-.29l-.29.1h-.29l-.2.1-.29.1-.2.1-.2.2-.2.1-.2.2-.2.1-.1.2-.1.2c-2.25,4.78,3.52,7.52,5.66,9.28,1.56,1.27,31.54,14.06,32.32,15.13M194.39,237.05h-.1l-.2-.1h-.49l-.2-.1h-.29l-.29-.1-.29-.1h-.29l-.39-.1h-.29l-.39-.1h-.68l-.39-.1h-2.34l-.29.1-.39.1h-.2l-.29.1-.29.2h-.1l-.1.1-.1.1h-.1l-.1.1-.1.1-.1.1-.1.1-.1.1v.1c-1.37,2.44,2.93,6.35,5.86,7.91,2.93,1.56,26.75,8.79,27.53,9.37M198.2,248.18l-.2-.1h-.49l-.29-.1h-.59l-.29-.1h-3.61l-.39.1h-.29l-.39.1h-.29l-.39.1h-.29l-.29.1-.2.1h-.29l-.2.1-.2.1-.1.1h-.1l-.1.1h-.1v.1l-.1.1h0l-.1.1c-.78,1.27.88,5.56,6.44,7.62,5.66,2.05,24.51,4.3,24.51,4.3M199.37,258.04h-1.27l-.29.1h-.59l-.29.1h-.29l-.59.1-.39.1h-.29l-.29.1-.29.1-.29.1-.2.1-.29.1h-.29l-.2.1-.2.2-.2.1-.2.1-.2.1-.1.1h0l-.1.1h-.1v.1l-.1.1h0v.1l-.1.1v.1h0v.29c.29,1.56,3.51,5.76,9.57,6.54,6.15.68,15.72.49,16.5.29M199.76,266.44l-.2.1h-.49l-.2.1h-.2l-.29.1h-.2l-.29.1h-.2l-.29.1-.29.1-.2.1-.29.1h-.2l-.29.1-.2.1-.2.1-.29.1-.2.1-.2.2-.2.1-.1.1-.2.1-.1.1-.1.1v.1h-.1v.1l-.1.1h0v.1l-.1.1v.1h0v.29h0v.1l.1.1c.88,2.15,4.59,4.49,9.18,4.59,5.86.1,12.79-.49,13.67-.78M199.76,273.86l-.2.1h-.39l-.2.1h-.29l-.2.1h-.2l-.29.1-.29.1h-.2l-.29.1-.2.1-.29.1-.2.1h-.29l-.2.1-.29.1-.2.1-.2.2-.2.1-.2.1-.1.1-.2.1-.1.2h-.1l-.1.1v.1h-.1v.2h-.1v.2h0v.29h0v.2c.98,2.25,4.69,4.49,9.28,4.59,5.86.1,11.62-.98,12.6-1.27M201.13,281.57l-.1.1h-.2l-.29.1-.2.1-.2.1-.29.1-.2.1-.29.1-.2.1-.29.1-.29.1-.2.2-.29.1-.29.2-.2.1-.29.2-.2.1-.2.2-.2.2-.2.2-.2.2-.2.1-.2.2-.1.2-.1.2-.1.2-.1.1v.1l-.1.1v.78l.1.1c.68,2.34,4.98,3.22,9.57,2.73,5.47-.59,7.81-.98,9.08-1.66M202.59,289.28h-.2l-.2.1-.2.1-.29.1-.2.1-.29.1-.29.1-.2.2-.29.1-.29.2-.29.2-.2.2-.29.1-.29.2-.29.2-.2.2-.29.2-.2.2-.29.2-.2.2-.2.2-.2.2-.1.2-.2.2-.1.2-.1.1v.1l-.1.1v.2l-.1.1v.2h0v.29h.1v.1c1.17,2.15,3.42,3.42,8.01,2.93,5.57-.68,10.35-2.83,11.72-3.52M203.57,297.39l-.2.1-.2.1-.2.1-.2.1-.2.2-.2.1-.2.2-.2.1-.2.2-.2.2-.2.2-.2.2-.2.2-.2.2-.2.2-.2.29-.1.2-.2.2-.2.2-.1.29-.1.2-.1.2-.1.2-.1.2-.1.2v.68h0v.29l.1.1h0l.1.1c1.46,1.86,5.37,2.44,9.86,1.27,5.37-1.37,7.62-2.15,8.79-2.93M216.36,319.84l-.49.49-.59.39-.49.49-.59.59-1.17.98-1.07,1.07-1.17.98-.59.59-.59.49-.59.49-.59.49-.68.49-.59.49c-3.61,2.64-6.35,4.49-9.08,5.86-3.03,1.66-6.83,1.56-8.01.39-1.46-1.46-.29-6.35.98-8.4M210.21,313.4l-.59.39-.59.39-.59.49-.59.49-1.27.88-1.17.88-1.27.98-.59.49-.68.39-.68.49-.59.49-.68.39-.68.39c-3.81,2.34-6.74,3.91-9.57,5.08-3.12,1.37-6.93.98-8.01-.29-1.37-1.56.39-7.42,1.76-9.28M205.43,305.2l-.29.2-.39.2-.68.39-.68.39-.68.39-.68.39-.78.49-.78.39-.78.49-1.46.88-.78.49-.78.39-.78.39-.78.39-.68.39-.78.39c-4,1.86-7.03,3.22-9.96,4.1-3.32.98-7.03.2-7.91-1.17-2.34-3.32,2.93-8.3,3.42-8.88M202.11,297.78l-.29.1-.39.2-.39.1-.29.2-.39.2-.39.1-.39.2-.49.2-.78.39-.88.39-.88.39-.88.49-.98.39-.88.39-.88.39-.88.39-.88.39-.49.1-.39.2-.39.2-.39.1-.39.1-.39.2c-4.3,1.27-6.54,1.95-9.57,2.34-3.42.49-7.91-.78-8.69-2.34-.88-1.86,3.12-7.23,5.08-8.69M201.23,289.29l-.29.2-.39.2-.39.2-.39.1-.49.2-.39.1-.49.2-.49.1-.49.2-.59.1-.49.2-.59.1-1.07.29-1.17.2-1.07.29-1.17.2-1.07.2-1.07.2-.59.1-.49.1-.49.1-.49.1-.49.1h-.39l-.49.1-.39.1c-4.39.78-8.98,1.27-12.01,1.37-3.52.1-6.83-1.66-7.42-3.22-.68-1.95,3.51-6.05,5.57-7.32M200.45,281.57l-.39.1h-.49l-.39.1h-.49l-.59.1-.49.1-.59.1-.68.1-.59.1-.68.1-.68.1-.68.1-1.37.2-1.46.29-1.46.2-1.37.2-.68.1-.78.1-.59.1-.68.1-.68.1-.59.1h-.59l-.59.1h-.49l-.49.1h-.88c-4.2,0-7.52-.1-10.74-.59-3.42-.49-6.15-2.25-6.64-4.49-.29-2.05,3.42-5.27,5.66-6.15M198.98,273.66h-1.17l-.49.1h-1.56l-.59.1h-1.85l-.68.1h-1.27l-1.37.1h-1.37l-1.27.1h-1.95l-.59.1h-4.1c-4.49-.2-7.81-.49-10.74-1.07-3.42-.68-6.35-3.03-6.54-4.69-.29-2.05,4.98-5.57,7.23-6.35M198.4,266.24h-.39l-.39-.1h-.98l-.49-.1-.49-.1h-.59l-.59-.1-.59-.1h-.68l-.59-.1-.68-.1-1.37-.2-1.37-.2-1.37-.2-1.37-.2-1.27-.2-.68-.1-.59-.1-.68-.1-.59-.1-.49-.1-.59-.1h-.49l-.49-.1-.49-.1-.39-.1c-4.2-.78-8.4-1.56-11.23-2.64-4-1.46-5.86-4-4.88-6.35.88-1.95,5.47-4.1,7.71-4.69M197.81,257.75l-.39-.1-.39-.1-.49-.1-.49-.1-.49-.2-.59-.1-.49-.2-.68-.1-.59-.2-.59-.2-.68-.2-.68-.2-1.37-.39-1.46-.49-1.37-.39-1.37-.39-.68-.2-.68-.2-.68-.2-.59-.2-.68-.2-.59-.2-.59-.2-.49-.1-.59-.2-.39-.1-.49-.2-.39-.1c-4.3-1.07-6.54-2.34-9.37-3.61-3.12-1.37-6.25-3.91-5.57-5.47,1.07-2.05,6.05-3.03,8.49-3.32M196.64,247.89l-.39-.1-.59-.1-.49-.2-.68-.1-.68-.2-.68-.29-.78-.2-.78-.2-.78-.29-.88-.29-.88-.29-.98-.29-1.85-.59-1.86-.59-1.86-.59-.98-.39-.88-.29-.88-.29-.88-.29-.88-.29-.78-.29-.78-.29-.78-.29-.68-.2-.59-.29-.59-.2-.59-.2-.39-.2-.39-.2c-3.91-1.76-7.52-3.61-10.45-4.98-3.71-1.56-6.83-4.39-6.44-8.4.2-2.05,6.35-3.42,9.76-3.03M186,232.56h-.1l-.1-.1h-.2l-.1-.1-.2-.1h-.2l-.49-.2-.49-.2-.59-.29-.59-.2-.68-.29-.68-.29-.78-.29-.78-.39-.78-.29-.88-.39-.88-.39-.88-.39-.98-.39-1.76-.78-1.86-.78-1.86-.88-.88-.39-.88-.39-.88-.39-.78-.39-.78-.39-.78-.39-.68-.39-.68-.29-.59-.39-.59-.29c-3.71-2.15-7.03-4.49-9.76-6.05-3.03-1.66-6.05-7.42-5.56-8.98.98-3.42,9.76-1.76,12.11-1.76M250.53,335.27v.1l-.1.1-.1.2-.1.2-.2.2-.1.2-.1.29-.1.2-.1.29-.1.29-.1.29-.1.29v.29l-.1.29-.1.29v.29l-.1.39v.59l-.1.29v.88l.1.2v.29l.1.2v.39l.1.1v.1l.1.1h0l.1.1v.1l.1.1h0l.1.1h.1l.1.1c2.93,1.46,2.05,2.25,5.66-2.64M241.75,333.03l-.1.1v.1l-.1.1-.2.2-.1.29-.1.2-.1.2-.1.29-.1.29-.1.29-.1.2-.1.29-.1.39-.1.29v.29l-.1.29v.29l-.1.29v1.76l.1.29v.2l.1.2v.2l.1.1v.1l.1.1v.1l.1.1h0l.1.1h.1v.1h.1c2.15,1.07,6.74-1.76,9.57-5.47,3.52-4.49,4.1-10.64,5.17-12.4M251.41,357.73c.29,3.91,3.52,6.83,4.3,7.42M353.83,376.96l.29.1.29.2.29.1.29.2.39.1.29.2.68.29.68.29.68.29.78.29.68.29.68.29.68.39.29.2.39.1.29.2.29.2.29.2.29.2.2.1.29.2.2.2.29.2.2.2.2.2c1.85,2.15,2.64,3.52,3.51,5.27.78,1.95.88,2.54.59,3.03-.39.59-2.83.29-3.61,0-.78-.29-3.12-.78-3.91-1.37M343.19,367.3l.88-.1.88-.1h1.66l.78.1.78.1.78.1.68.2.68.1.68.2.68.2.59.29.68.2.59.29.49.2.59.29.49.29.39.29.49.29.39.2.39.29.39.29.29.29.39.2.2.29.29.2.2.2.2.2.2.2.1.1.1.1.1.1c1.56,2.15,1.66,3.42-.29,3.22-2.34-.29-6.35-.78-7.91-.78-1.66.1-.29.78.78,1.66,1.07.78,4,2.05,5.08,4.2,1.07,2.05,1.56,1.27-.78,2.15-2.44.78-5.08-.29-7.23-.49-2.25-.29-.49,0,.59.98,1.07,1.07,4.69,3.61,5.27,5.37.88,2.05,1.66,2.64,1.46,3.61-.29,1.07-2.73,1.37-4.3.88-.29-.1-4.69-.59-5.08-.78,3.61,2.05,4.98,4.1,5.66,5.57,1.17,2.44,0,3.12,0,4.2s-2.64.29-4.78-.2c-3.52-.88-7.42-2.64-8.59-4.2M359.2,372.86l.2.1h.29l.29.1h.2l.29.1.2.1.29.1.2.1.29.1.2.1.29.2.2.1.49.29.49.29.49.29.49.39.49.39.49.29.49.39.49.39.39.39.49.29c2.44,1.86,3.71,3.71,5.08,6.64,1.37,2.93-.2,1.56-1.56,1.56s-3.71-.78-3.71-.78M354.22,383.7l.2.1.29.1.2.2.29.1.2.2.29.2.2.2.29.2.29.2.2.2.29.29.29.2.49.49.49.49.59.49.49.59.39.49.29.2.2.29.2.2.2.2.2.2.2.29.2.2.2.1.2.2.1.2c1.66,1.56,2.05,3.61,2.73,5.56.59,1.66.29,2.34,0,3.12-.29.78-1.07.78-2.64.59-1.56-.29-2.44-.78-3.71-1.56M353.54,393.76l.1.1.1.1.1.2.2.1.1.1.2.2.2.1.2.1.1.2.2.2.2.1.29.2.39.29.39.39.39.39.49.39.39.39.2.2.2.2.1.29.2.2.2.2.1.2.2.29.1.2.2.2.1.2c1.07,2.44.78,2.64,1.37,4.78.49,2.15-1.37,2.34-3.03,2.25-2.64-.2-5.08-1.95-4.98-1.76.98,1.37,1.07,1.66,2.15,3.52,1.07,1.86,0,2.34-2.15,1.86-7.62-1.66-6.64-2.05-10.74-3.71-3.32-1.37-8.88-4.88-11.03-6.93M365.65,383.99l.2.2.29.1.29.2.29.1.29.2.39.2.29.2.29.2.39.29.29.2.39.29.39.2.68.59.68.59.68.59.39.29.29.39.39.29.29.29.29.39.29.29.29.39.29.39.2.29.29.39.2.39.2.29.2.39.2.39c1.07,2.73,0,1.56,0,2.64s-2.73.59-4.59.1c.1,0-9.47-4.39-7.23-2.73M371.99,383.99l.2.1.2.1.2.1.29.2.2.1.29.2.29.1.29.2.29.2.29.2.29.2.29.2.39.2.29.2.68.49.59.49.29.29.39.29.29.29.29.29.29.29.29.29.29.29.29.29.29.39.2.29.2.29.29.39.2.39.2.29c1.17,2.64,1.07,3.42,1.07,3.61-.29,1.07-1.76.2-4.1-1.17-1.46-.78-1.56-.78-2.54-1.07M374.43,396.49l.39.39.29.39.29.29.29.39.29.39.29.39.2.29.2.39.2.39.2.29.2.29.2.39.1.29.2.29.1.29.1.39c.59,1.56-1.07,1.37-3.03,1.07-2.15-.39-3.12-.1-4.69-.59-1.66-.49-6.44-3.61-5.76-3.12,1.37.68,7.62,5.66,8.79,7.71.88,1.66.88,2.73-1.07,2.54-2.73-.1-6.64-1.86-8.01-2.54-1.07-.59-2.64-1.95-3.52-2.34M364.18,407.13l.2.1.1.2.2.1.1.1.2.1.2.1.1.1.1.1.2.1.1.1.29.2.29.2.2.1.29.2.2.2.2.2.29.2.2.2.1.1.1.1.1.1.1.1.1.1.1.1c1.07,1.37,1.56,1.56-1.37,2.15-2.83.59-9.76-.2-11.91-2.54M382.05,394.44l.2.1.2.1.2.1.2.1.29.1.2.1.39.2.39.29.39.2.39.29.39.29.39.29.39.29.39.29.39.39.39.29.39.29.39.29.29.29c1.85,1.56,2.44,2.44,0,2.93-2.34.59-5.86.59-7.52.49-1.66-.1-2.64-.2-2.64-.2M377.95,402.05h.2l.2.1h.29l.2.1.29.1.2.1.29.2.2.1.29.1.29.2.29.1.29.2.2.2.29.2.29.2.29.2.59.39.59.49.49.49.29.2.2.29.29.29.2.2.29.29.2.29.2.2.29.29.2.29.1.29c1.76,2.54,0,2.64-2.34,2.64-.49,0-9.57-3.03-10.35-3.61M385.95,410.74l-.29.2-.29.29-.39.2-.29.2-.39.2-.39.2-.29.1-.39.2-.39.1-.39.1-.29.1-.39.1-.39.1-.39.1-.39.1h-.29l-.78.1-.68.1h-.68l-.68.1h-2.44c-2.54.2-5.37-1.07-6.15-1.56M318.19,398.83l.1.2.1.1.2.39.1.1.1.2.1.2.1.2v.2l.1.1.1.2.1.2v.2l.1.2v.2l.1.2v1.07l-.1.2v.2l-.1.1-.1.2v.2l-.2.2-.1.1-.1.2-.1.1-.1.1h-.1v.1c-1.27,1.17-8.49-3.71-5.57-1.56M319.27,398.54l.2.2.2.2.2.2.2.29.2.2.29.2.2.29.29.29.2.2.29.29.49.59.39.59.29.29.2.29.2.29.2.29.2.29.2.29.2.29.1.29.2.29.1.29.1.29.1.29v1.27l-.1.1v.2c-1.07,2.34-5.27,1.56-8.79-.78M296.13,399.32v1.46l-.1.39v.39l-.1.49v.49l-.1.49v.39l-.1.49v.98l-.1.49v.49l.1.49v.49l.1.39v.49l.1.39.1.2.1.2.1.2v.1l.1.2.1.2.1.2.2.1.1.1.1.2.2.1.1.1.2.1.2.1.1.1.2.1.2.1h.29l.2.1h1.27c4-.39,4.1-5.47,3.42-11.23M304.33,403.42h-.1.1v.1h.1l.1.1v.1l.2.2.1.1.1.2.2.2.2.2.2.2.2.2.2.29.2.2.2.29.29.29.49.59.49.68.49.68.59.68.49.78.59.78.59.78.49.78.49.78.49.88.49.78.39.78.39.78.2.39.1.39.2.39.1.39.1.39.1.29.1.39v.29l.1.39v.88l-.1.29-.1.29-.1.29-.1.2-.1.2-.2.29-.2.2-.2.2c-5.86,4.2-10.15-9.76-9.96-12.11M309.12,398.93l.2.1.2.2.2.29.2.2.29.2.2.29.2.29.29.2.2.29.2.29.29.29.2.29.2.29.2.39.2.29.2.29.2.29.1.39.1.29.2.29v.29l.1.39v1.17l-.1.1v.2l-.1.1-.1.2v.1l-.1.2-.1.1-.1.1-.1.2-.2.1-.1.1-.2.1c-2.34,1.86-4.2-.2-4.2-.2M311.85,401.76l.29.2.29.29.29.29.39.39.29.29.39.39.39.49.39.39.39.39.39.49.39.49.39.49.78.98.39.59.39.49.29.49.39.59.29.49.29.49.29.59.29.49.2.49.2.49.1.39.2.49.1.39v1.37l-.1.2v.1l-.1.2c-1.86,2.44-6.15.39-7.71-.98M296.32,410.65h0v.39l-.1.2v.39l-.1.2v.49l-.1.2v.29l-.1.29v.29l-.1.29v.39l-.1.68v.68l-.1.68-.1.78v3.12l.1.78.1.68.1.39v.39l.1.29.1.39.1.29.1.29.1.29.2.29.1.29.2.2.1.29.2.2.2.2.2.2.2.2.29.2.2.1.29.1.29.1h.29l.29.1h.68l.29-.1c6.35-.98,1.95-16.7,2.15-16.7M289.59,399.22l-.2.39-.1.39-.1.49-.1.39-.1.39-.1.49-.1.39v.39l-.1.39v.78l-.1.39v1.46l.1.39v.59l.1.39v.59l.1.2.1.29v.2l.1.29v.2l.1.2.1.2v.1l.1.2.1.1c1.86,2.93,4.88.2,5.66-1.66M281.48,398.54l-.39.29-.39.29-.39.29-.39.29-.39.39-.29.29-.39.29-.29.39-.29.29-.29.39-.2.29-.29.39-.2.29-.2.39-.2.29-.1.29-.2.39-.1.29-.1.29-.1.39-.1.29v1.07l.1.29v.2l.1.2.1.2.2.2.1.2.2.1c2.15,1.66,7.13.68,10.84-4.59M288.12,404.2h-.1l-.1.1h-.1l-.1.1-.1.1-.1.1-.1.1-.1.1-.2.1-.1.1-.2.1-.1.2-.2.1-.29.39-.39.29-.39.39-.39.39-.29.39-.39.39-.39.49-.39.39-.29.49-.39.49-.29.39-.29.49-.29.49-.1.29-.1.2-.1.2-.1.29-.1.2v.2l-.1.29-.1.2v1.07l.1.2v.2l.1.2.1.2.1.1.1.2.2.2c3.12,3.42,7.81-4.39,7.91-4.2.2.29-7.03,10.06-1.27,11.33,3.42.78,6.44-3.81,7.23-4.88M232.86,412.11c-.88.59-4,2.64-6.93,2.44M227.49,414.26h-1.66l-.39-.1h-.78l-.39-.1h-.49l-.78-.1-.88-.1-.88-.1-.88-.2-.49-.1-.39-.1-.39-.1-.39-.1-.49-.2-.39-.1-.29-.1-.39-.2-.39-.1-.29-.2-.29-.2-.29-.1-.29-.2-.29-.2M246.14,385.07l-.2.1-.29.1-.2.1-.2.2-.29.2-.2.1-.2.2-.29.2-.2.2-.2.2-.49.39-.49.39-.39.49-.49.49-.39.39-.39.49-.39.39-.2.2-.2.2-.2.2-.2.2-.2.2-.1.2-.2.2-.1.1c-1.56,1.66-1.86,3.71-2.64,5.57-.88,1.86,0,2.44,0,3.22s1.07.78,2.64.59c1.56-.29,2.34-.88,3.71-1.66M255.71,368.57h-.49l-.39-.1h-3.22l-.68.1-.68.1-.68.1-.59.2-.59.2-.59.1-.49.2-.59.29-.49.2-.39.2-.39.29-.39.2-.39.29-.39.2-.29.29-.29.2-.29.29-.2.2-.29.29-.2.2-.2.2-.1.2-.2.2-.1.1-.1.2-.1.1-.1.1c-1.56,2.05-1.56,3.32.29,3.12,2.44-.2,6.44-.78,8.01-.78s.2.78-.88,1.66c-.98.78-3.91,2.05-4.98,4.2s-1.66,1.37.78,2.15c2.44.78,5.08-.29,7.13-.59,2.34-.2.59,0-.49,1.07-1.07,1.07-4.69,3.61-5.27,5.37-.78,2.05-1.66,2.64-1.37,3.61.29,1.07,1.27,1.46,3.03,1.46.98,0,3.12,0,3.32-.29-1.17,1.17-2.05,2.34-3.32,4.69-1.37,2.44,0,3.22.68,4,.78.78,3.32.49,5.47,0,1.46-.39,2.64-1.56,6.35-4M241.84,373.64h-.49l-.2.1-.29.1h-.2l-.29.1-.2.1-.29.1-.29.1-.2.2-.29.1-.2.1-.49.29-.49.39-.49.29-.49.39-.49.29-.49.39-.49.39-.39.39-.49.29-.49.39c-2.34,1.86-3.71,3.71-4.98,6.64-1.37,2.93.29,1.56,1.56,1.56s3.71-.78,3.71-.78M244.58,379.5l-.49.1-.49.1-.49.1-.49.1-.39.2-.49.1-.49.2-.49.2-.49.2-.2.1-.29.2-.2.1-.2.1-.29.2-.2.1-.2.1-.2.2-.2.2-.2.1-.2.2-.2.2-.2.2-.2.2c-1.86,2.15-2.64,3.42-3.42,5.27-.88,1.86-.59,2.73-.59,3.22s2.64-.29,3.52-.49c.78-.29,3.12-.59,3.91-1.07M246.63,394.83l-.1.1-.1.1-.1.1-.1.2-.2.1-.1.1-.1.2-.2.1-.1.1-.2.2-.29.29-.29.29-.39.29-.29.39-.29.39-.39.29-.1.2-.2.2-.1.2-.2.29-.1.2-.1.2-.2.2-.1.2-.1.29-.1.2c-1.07,2.34-.78,2.64-1.37,4.78-.49,2.15,1.85,1.56,3.51,1.27,1.56-.2,8.98-4.59,5.57-1.86-1.27,1.07-2.15,2.73-3.22,4.49-.98,1.86,0,2.15,2.15,1.86,7.62-.88,6.25-1.66,10.35-3.91,2.44-1.27,8.59-6.25,10.84-8.01M235.5,384.77l-.29.1-.2.2-.29.1-.29.2-.39.2-.29.2-.29.2-.39.2-.29.29-.39.2-.29.29-.39.2-.68.59-.68.59-.68.59-.39.29-.29.39-.29.29-.39.39-.29.29-.29.39-.2.29-.29.39-.29.29-.2.39-.2.39-.2.39-.2.29-.2.39c-1.07,2.83,0,1.66,0,2.73s2.73.49,4.49,0c2.64-.88,5.57-2.44,6.93-2.15M229.15,384.77l-.2.1-.2.1-.2.1-.29.2-.29.1-.2.2-.29.1-.29.2-.29.2-.29.2-.39.2-.29.2-.29.2-.39.2-.29.29-.29.2-.39.29-.29.2-.29.29-.39.29-.29.29-.29.29-.29.29-.29.29-.29.29-.29.29-.2.39-.29.29-.2.39-.2.29-.2.39-.1.39c-1.56,4-1.56,2.34-1.37,3.42.29,1.07,1.56,1.07,4-.29,1.46-.78,1.86-1.56,2.93-1.86M226.71,397.27l-.2.2-.1.2-.2.2-.2.2-.29.39-.29.39-.2.29-.29.39-.2.39-.29.29-.2.39-.2.29-.2.39-.1.29-.2.29-.1.39-.1.29-.1.29c-.59,1.56.78,2.34,2.64,1.86,1.86-.59,3.52-1.07,5.08-1.37,1.56-.2,7.13-4.2,5.86-3.42-1.37.78-8.01,5.86-8.79,7.91-.78,2.15-1.37,2.93,1.07,2.73,2.64-.29,6.54-1.95,7.91-2.73,1.07-.49,3.22-2.05,4-1.76M237.06,407.82l-.1.2-.2.1-.1.2-.2.1-.1.1-.2.1-.1.1-.1.2-.2.1-.1.1-.29.1-.29.2-.2.2-.29.1-.2.2-.29.2-.2.2-.1.1h-.1l-.1.1-.1.2-.1.1-.2.1-.1.1-.1.1c-1.07,1.37-1.56,1.66,1.37,2.15,2.93.59,9.86-.29,12.01-2.64M219,395.9l-.39.2-.39.1-.39.2-.39.2-.39.2-.39.2-.39.29-.39.2-.39.29-.39.2-.39.29-.39.29-.39.2-.29.29-.39.29-.39.29c-1.86,1.56-2.34,2.44,0,2.93,2.44.59,7.13.49,8.69.49M217.53,406.45l.2-.2.2-.1.1-.1.2-.2.2-.1.2-.1.29-.2.2-.1.2-.2.29-.1.49-.29.39-.29.29-.2.2-.1.29-.2.2-.1.2-.2.2-.1.2-.1.2-.1.2-.1.2-.1.1-.1.2-.1h0l.1-.1h.1l.1-.1h.1c-2.64,1.17-6.15,3.22-8.01,6.05-1.66,2.64,0,2.73,2.44,2.73s6.64-1.07,10.35-3.81"/>
  <path class="st19" d="M271.23,251.89h0v.1h0v.2l-.1.1v2.83l-.1.39v1.95l-.1.39v1.56l-.1.29v.98l-.1.2v.39c-.29,1.76-4.3,4.39-5.27,4.98-1.07.59-3.12.68-4.59,1.27-1.46.59-4.3.88-5.76.29-1.46-.59-3.71-2.64-3.81-4.98-.2-2.34-.29-5.86-2.83-7.32-2.93-1.76-5.76-4.88-6.44-6.15-.78-1.37-2.25-4.49,1.46-5.66,3.61-1.07,5.08-2.15,5.76-2.93.49-.68,2.44-2.64,2.44-2.64-6.15-9.96-15.62-15.04-25.29-21.48-12.11-7.91-33.29-11.52-36.61-12.3-3.42-.78-4.3-2.34-5.08-5.17-.68-2.73-.29-8.49-.29-8.49-2.83-.59-9.08-5.76-11.52-8.79-2.25-3.12-.98-6.93-.1-8.4.88-1.46,3.81-4.59,4.3-6.35.39-1.76,1.46-8.98,2.64-11.72,1.17-2.83,1.37-2.83,3.91-3.81,2.73-1.07,7.91.88,7.91,5.37,0,3.32-4,9.76-6.05,12.69,0,0,2.64,1.76,4.39,2.54,1.76.68,5.27,1.86,12.79,5.08,4.88,2.05,5.17,7.32,4.59,8.98-.88,2.25-1.76,4.39-2.34,7.32,12.11,2.83,31.44,10.45,41.59,19.72,8.3,7.52,12.99,10.54,18.26,18.26,3.22,4.59,2.25,7.62-.29,7.91-2.44.29-4.49,1.76-5.37,2.64-.98.88-2.64,2.93-2.83,4.1-.29,1.76-.2,1.76-2.34,2.44,0,0,2.44,1.86,4.39,4.2,1.86,2.34,1.07,3.81,1.46,6.64.39,2.73,1.37,3.52,3.42,2.64.39-1.37.29-4.39.1-8.69-.1-4.3,2.93-6.15,5.86-7.13,0,0,0,4.78,2.05,5.57h0ZM324.74,260.09l-.1.2-.1.2-.1.1v.29l-.1.1v.39l-.1.1v1.07l.1.2v.49l.1.2v.2l.1.2v.2l.1.2.1.2c.68,2.15-.68,5.66-.88,6.44-.29.88.68,1.56.68,2.93s.2,1.37.2,1.37c0,0,.49.59.88,1.27.29.78,1.46,4.3,1.86,5.17.49.88.59,3.61,4.78,3.81,4.1.1,8.69-.78,9.86-2.15,1.17-1.56,1.56-6.54,1.56-8.1,0-1.66,3.22-5.96,4.78-7.13,1.37-1.17,5.37-4.1,5.96-5.08.59-1.07.2-2.73-.88-3.91-.98-1.07-2.15-3.91-.29-8.2,1.95-4.2,1.07-7.13-.29-8.69-1.27-1.46-3.52-.68-4.98.2-1.46.88-3.42-.88-4.1-1.76-.78-.88-1.66-2.83,1.27-5.47s12.4-10.64,18.55-15.33c5.66-4.2,14.74-9.18,24.02-12.2,4.59-1.27,17.09-4.78,19.43-5.37,2.34-.59,3.12-1.17,3.71-1.46.59-.29.98-.68-.2-2.93-.59-1.17.2-4,.2-6.05v-1.95s2.44-1.76,4.1-2.73c1.66-1.07,6.74-5.17,7.62-7.23.88-2.05,2.64-4.39,0-8.1-2.64-3.61-3.22-4.1-3.22-7.91s-2.93-9.67-4.78-11.52c-1.95-1.76-7.13.39-8.01,1.95-.88,1.66-2.64,3.42-.39,5.76,2.15,2.34,4.1,7.81,3.22,9.67-.98,1.95-1.07,1.17-1.07,1.17,0,0-4.2,2.54-6.74,3.22-2.54.78-10.06,2.54-11.81,6.25-1.76,3.61-.88,3.32-.29,4.78.59,1.46,1.76,4.69,1.76,5.37v1.07s-4.1,1.17-5.96,1.86c-1.95.59-12.6,4.49-15.72,6.25-3.03,1.86-16.4,10.64-16.4,10.64-3.42,2.44-12.01,9.47-15.13,12.79-3.32,3.22-4,4.49-6.54,7.03-2.54,2.54-5.27,5.17-4,6.15,1.37,1.07,4.59,2.83,5.76,4,1.17,1.17,2.05,3.42,3.52,5.17,1.46,1.66,3.91,4.39,5.76,2.54,1.95-1.66.88-.98.88-.98,0,0,1.46-.1,2.54.59.98.78,2.34,1.76,2.93,2.34.59.59.68,1.17.68,1.17,0,0-4.39,4-6.15,5.76-1.76,1.76-6.35,8.2-6.64,11.13-.29,3.03-1.46,6.64-1.46,8.4s.29,4.39.29,4.39c0,0-2.05-4.69-2.83-6.15-.68-1.46-5.57-10.74-6.25-11.72-.78-1.07-1.76-2.83-1.76-2.83h0ZM287.15,248.67h-.1v-.1h-.59l-.1-.1h-.49l-.2-.1h-.49l-.2-.1h-.49l-.2-.1h-.39l-.2-.1h-.49l-.2-.1c-2.34-.2-3.52-.49-3.52-.49.88,3.52.59,9.08,0,11.13s-4.1,8.49-4.1,11.72.49,8.59,2.93,10.64c0,0,1.17-2.34,2.34-3.81,1.17-1.46,2.64-2.64,2.64-2.64,0-4.49.59-7.71,1.76-10.64,1.17-2.93,3.22-7.62,3.22-9.37s-1.17-5.86-1.17-5.86h0Z"/>
  <path class="st10" d="M207.09,180.71v.39l.1.49v.49l.1.49v.49l.1.49v.49l.1.49v1.37l-.1.2v.49l-.1.2v.29l-.1.2-.1.2-.1.2-.1.2-.1.2c-1.37,2.15-1.56,5.17-1.56,5.17M178.83,158.47l-.16.66-.2.59-.1.59-.2.59-.1.59-.1.59-.1.59-.1.59-.1.59-.1.59-.1.68-.1.59-.1.68c-.31,1.49-3.44,5.24-4.49,7.42-1.56,2.44-.59,5.57.49,8.01,1.93,2.14,3.81,6.35,12.01,8.69M191.46,157.37c-.59,3.42-4.78,11.62-5.66,12.2M268.99,246.32h-.29l-.2.1h-.2l-.2.1-.2.1-.29.1-.2.1-.2.1-.29.2-.2.1-.2.2-.29.1-.2.2-.2.2-.2.2-.2.2-.2.2-.2.29-.2.2-.2.29-.1.2-.2.29-.1.29-.2.39-.1.29-.1.29v.39l-.1.39v.39l-.1.39v.88c.29,4.78.39,12.6-2.93,13.77-5.47,1.95-9.08-1.76-9.28-6.05-.29-6.35-4.49-6.35-6.64-8.49-1.26-1.35-7.81-8.2,0-9.37,1.86-.2,4.78,2.44,5.08,3.52.2,1.07,5.57,3.71,6.64-.29,1.07-4,4.78-6.83,7.42-7.13,2.64-.29,5.27-3.52.29-9.57-8.4-10.15-23.92-23.34-37.2-28.9-12.01-5.08-30.66-10.45-39.64-11.52-4.59-.49-.59-4.98,1.27-4.69,2.93,0,11.52,1.56,13.57,1.27,2.15-.2,8.01-4,2.44-7.71-5.57-3.71-16.5-6.64-18.94-8.69-2.34-2.15-9.76-5.57-6.05-14.16,3.71-8.49,12.2-2.93,11.91.59-.2,3.42-3.71,7.13-6.93,3.42-1.56,2.64-1.86,4.98-2.93,6.35M185.61,188.13l-.2.29-.1.29-.1.39v.29l-.1.29-.1.29v.39l-.1.29v2.93l.1.59v1.17l.1.49v1.07l-.1.29v.2c-.29,2.64,1.17,6.44,6.25,7.03,5.76.68,23.43,5.17,32.9,10.45,6.93,4,17.97,11.33,21.77,15.72,3.42,4,8.79,9.86,9.28,12.69.59,3.03-.51,4.84-1.88,5.33M254.15,248.38l.2.2.2.1.2.2.2.1.29.2.2.2.2.2.2.2.29.2.2.2.49.49.49.39.39.49.2.2.2.29.2.2.2.2.2.29.2.2.2.2.1.2.2.29.1.2.1.2.1.2v.2l.1.1v.39c0,1.56,0,3.91.29,5.27.29,1.37,1.66,2.93,3.52,1.86M251.98,238.31l-.86.89-.2.1h-.1l-.1.1-.1.1-.1.1-.1.1-.1.1-.1.1-.1.1-.2.2-.2.2-.1.2-.2.2-.1.1-.1.1-.1.1-.1.1-.1.1-.1.1-.1.1-.1.1-.1.1-.2.1-.1.1h-.2l-.1.1-.2.1c-1.37.49-3.84.73-4.92,2.1M272.11,249.74v.49l-.1.29v.68l-.1.39v.88l-.1.49v.39l-.1.49v.49l-.1.98-.1,1.07-.2.98v.49l-.1.49v.39l-.1.49-.1.39v.49l-.1.39-.1.39-.1.29v.29l-.1.29-.1.29-.1.2v.1l-.1.1c-.42.68-2.93,3.52-9.57,4.78M413.98,164.99v-.2l-.1-.2-.1-.2v-.29l-.1-.2v-.29l-.1-.29-.1-.29-.1-.59-.1-.49-.2-.59v-.29l-.1-.29-.1-.29v-.29l-.1-.2v-.29l-.1-.2v-.2l-.1-.2v-.2l-.1-.2v-.2h0v-.2h0l-.1-.1h0v-.1h0c-1.17,3.32-9.57,3.12-6.93-2.15,2.64-5.27,9.57-5.86,11.13-.59,1.66,5.37-5.27,13.86-10.06,16.5-4.78,2.64-13.77,4.3-15.91,6.93-1.56,1.86-5.47,7.52,5.76,5.86,10.64-1.66,13.86-4.3,13.86.49s-8.49,3.71-14.94,5.27c-5.27,1.37-17.57,4.59-29,11.42-12.01,7.23-27.34,19.43-31.05,24.21-3.71,4.78-11.13,8.79-6.35,11.13,7.42,3.71,6.83,9.57,10.64,10.64M416.61,155.43l.2.39.1.29.2.39.1.29.2.29.1.29.1.29.2.29.2.59.2.59.2.49.2.59.2.49.1.49.2.59.1.49.1.59v.49l.1.29v.88c0,3.12,1.56,5.27,3.71,8.01,2.15,2.64.49,5.76-1.56,8.98-2.15,3.22-10.64,8.49-10.64,8.49M410.27,185.2l.1.2.1.2.1.2.1.2v.2l.1.2v.2l.1.2v.49l.1.2v2.34l-.1.39v1.95c0,2.64-1.07,4.78.49,6.93,1.56,2.05-6.44,3.52-10.06,4.69-5.18,1.66-20.6,6.15-29,11.33-8.59,5.37-21.19,14.45-30.85,24.02-1.56,1.46-4.69,5.37-1.86,8.79,2.64,3.12,6.35-5.66,10.06-6.44,4-.78,6.35,4.3,2.64,7.42-3.71,3.22-14.35,10.64-15.91,20.8-1.66,10.06-1.66,6.83-.59,11.62,1.07,4.78-6.83,5.86-8.49,0-1.56-5.76-2.64-6.35-2.64-6.35M389.57,184.72c.78,3.32,2.64,4.88,1.56,7.13M405.97,159.72c1.66,2.15,4.1,8.46,3.51,10.12M343.29,246.81c3.51,0,6.35,4.2,6.35,4.2M344.07,236.66c-1.27,1.07-.29,6.35,4,5.57M354.22,244.96v.39l.1.39v1.27l-.1.39-.1.39-.1.49-.1.39-.1.49-.29.88-.29.88-.29.88-.1.39-.1.49-.2.49-.1.39v.49l-.1.49-.1.39v.98l.1.39.1.49.1.49.1.39.1.2.1.29.1.2.2.2.1.29.1.2c3.22,4.78-.49,4.2-2.64,6.93-2.15,2.64-8.01,5.76-7.42,12.69.49,6.93-5.86,6.35-10.64,6.93M335.77,281.28c-2.05-5.27-9.57-20.11-11.13-21.19M278.17,280.79l-.29-.29-.29-.39-.2-.39-.2-.29-.39-.68-.39-.78-.29-.68-.2-.78-.2-.68-.2-.78-.1-.78v-.78l-.1-.68v-.78l.1-.78.1-.78.1-.68.1-.78.2-.68.1-.68.2-.78.2-.68.2-.59.2-.68.29-.59.2-.68.2-.59.29-.49.2-.59.2-.49.2-.39.2-.49.2-.39.2-.39c.98-2.34,1.07-11.23.49-12.2M287.93,254.23v1.46l-.1.39v.29l-.1.39-.1.39v.39l-.1.39-.1.39-.29.78-.2.78-.29.78-.2.78-.29.78-.2.39-.1.39-.2.29-.1.39-.1.29-.2.29-.1.29-.2.29-.1.29-.1.2c-1.37,2.44-1.66,6.35-1.37,8.49"/>
  <path d="M377.95,208.54h.1l.1-.1h.1v-.1h.2v-.1h.1v-.1h.1v-.1h0v-.1h0c.1-.2.1-.39,0-.68l-2.25-5.17c-.1-.29-.29-.39-.49-.49-.1,0-.39,0-.78.2l-.2-.29,2.83-1.17,4.2,4.1h.1v-5.96l2.64-1.17.2.29c-.39.2-.59.39-.68.49-.1.2,0,.49.2.88l2.05,4.78c.1.39.29.59.49.68.2.1.49,0,.78-.1l.2.29-3.61,1.56-.1-.29c.29-.2.49-.29.68-.49.1-.2.1-.39-.1-.78l-2.25-5.27-.1.1.1,7.42-.29.2-5.37-5.08h0l2.05,4.88c.2.39.39.59.59.68.2.1.49.1.98-.1l.2.29-2.54,1.07-.19-.29ZM367.6,205.32l.1.2c-.39.29-.59.49-.68.68-.1.2,0,.49.29.88l1.95,3.42c.29.49.59.88.88,1.07.49.39,1.07.39,1.76,0,.78-.39,1.17-1.07,1.07-1.76-.1-.39-.29-.88-.59-1.46l-1.76-3.12c-.2-.39-.49-.59-.68-.59-.2-.1-.49,0-.88.2l-.2-.29,2.25-1.27.2.29c-.39.2-.49.39-.59.59,0,.1.1.39.2.68l1.95,3.22c.49.88.68,1.66.49,2.44-.1.68-.68,1.27-1.56,1.76-1.17.68-2.15.88-3.03.39-.39-.29-.78-.68-1.17-1.27l-1.95-3.42c-.2-.39-.39-.59-.59-.59-.1,0-.39,0-.78.2l-.1-.29,3.42-1.95ZM357.84,220.65h.1l.1-.1h.1v-.1h.1v-.1h.1v-.1h0l.1-.1h0v-.1h0v-.1c0-.2,0-.39-.2-.59l-3.03-4.69c-.49-.2-.78-.29-.88-.29s-.29,0-.39.1l-.2-.29,2.15-1.27,6.05,1.95.1-.1-1.95-2.83c-.2-.39-.39-.59-.59-.68-.2,0-.59,0-.88.29l-.2-.29,2.05-1.37.2.29c-.2.2-.39.39-.49.59,0,.1.1.39.29.68l3.71,5.86-.29.1-7.71-2.44h-.1l2.44,3.91c.2.29.39.49.59.49.29.2.59.1.98-.1l.2.2-2.25,1.46-.2-.29ZM347.1,219.77l.29.2c-.39.29-.59.49-.59.78-.1.2.1.39.29.78l2.54,3.03c.39.49.78.78,1.07.98.59.29,1.07.2,1.66-.29.68-.59.98-1.17.78-1.95-.1-.39-.29-.78-.78-1.27l-2.25-2.83c-.29-.29-.49-.49-.78-.49-.2-.1-.49,0-.88.29l-.2-.2,2.05-1.66.2.29c-.29.29-.39.49-.49.59,0,.2.2.39.39.68l2.34,2.93c.68.78.98,1.56.98,2.25,0,.78-.49,1.46-1.27,2.05-1.07.88-2.05,1.17-2.93.88-.49-.2-.88-.59-1.37-1.07l-2.54-3.03c-.2-.29-.49-.49-.59-.49-.2,0-.39,0-.78.29l-.2-.29,3.03-2.44ZM254.15,230.8l.2.29c-.59.68-.78,1.27-.88,1.86,0,.59.2,1.07.49,1.46.39.39.68.59,1.07.59.29,0,.59-.1.88-.29.2-.2.39-.49.39-.78,0-.2-.1-.59-.2-1.07l-.2-.88c-.2-.78-.2-1.37-.2-1.95.2-.39.39-.88.78-1.17.39-.39.98-.59,1.66-.59.59,0,1.27.29,1.76.88.29.39.49.78.68,1.07.2.39.2.68.29.68.1.1.1.2.2.1.1,0,.2,0,.29-.1l.29.29-1.95,1.66-.2-.2c.29-.49.59-1.07.59-1.66.1-.59,0-1.07-.39-1.46-.29-.29-.59-.49-.88-.49s-.59,0-.78.2c-.29.29-.49.59-.49.78,0,.29.1.88.29,1.66l.29.88c0,.49.1.78.1,1.17-.1.59-.39,1.17-.88,1.56-.39.39-.98.49-1.66.49s-1.37-.29-2.05-1.07c-.2-.2-.29-.39-.39-.59-.2-.2-.29-.49-.39-.68l-.1-.2v-.2l-.1-.1q-.1-.1-.29-.1s-.1,0-.2.1l-.29-.29,2.25-1.86ZM253.46,222.6l-.2.2c-.39-.29-.59-.49-.78-.49s-.49.2-.78.49l-2.64,2.93c-.39.39-.68.78-.78,1.17-.29.59-.1,1.07.49,1.56.59.68,1.27.88,1.95.59.39-.2.78-.49,1.27-.98l2.44-2.64c.29-.29.39-.59.39-.78,0-.29-.2-.49-.49-.88l.29-.2,1.86,1.76-.2.2c-.39-.2-.59-.29-.78-.29-.1,0-.29.1-.59.39l-2.54,2.73c-.68.78-1.37,1.17-2.05,1.27-.78.1-1.56-.29-2.34-.98-.98-.88-1.37-1.76-1.17-2.73.1-.49.39-.98.88-1.46l2.64-2.93c.29-.29.49-.59.39-.68,0-.2-.1-.49-.39-.78l.2-.2,2.93,2.73ZM245.75,220.06h.2v-.1h.2v-.1h.2v-.1h.1v-.1h.1l.1-.1h0v-.1h.1v-.1h.1v-.1h0c.29-.39.49-.68.49-1.07.1-.29-.1-.59-.39-.88-.2-.2-.39-.29-.49-.2-.1,0-.29,0-.39.2l-1.66,2.05c.59.49,1.07.68,1.37.68h0ZM242.14,222.4v.1h0v.1h0v.1h.1v.1h.1v.1h.1v.1h0c.49.29.88.49,1.27.29.29,0,.68-.29,1.07-.78.49-.59.59-1.17.39-1.76-.2-.29-.49-.68-.98-1.07l-1.86,2.34c-.1.2-.2.29-.2.39h0ZM239.6,220.84h0l.1.1h.1v.1h.2v.1h.2c.29.1.49,0,.68-.29l3.52-4.49c.2-.29.29-.49.2-.78,0-.1-.2-.29-.49-.49l.2-.2,2.83,2.15c.59.49.98.88,1.27,1.27.49.78.49,1.46,0,2.15-.29.39-.68.59-1.07.59-.49,0-.88-.1-1.27-.29l-.1.1c.29.29.49.68.68,1.07.2.68.2,1.27-.29,1.86-.39.49-.98.68-1.66.68-.78-.1-1.56-.39-2.25-.98l-3.03-2.34.19-.29ZM234.91,217.62h.1v.1h.1l.1.1h.1v.1h.2c.29.1.49-.1.68-.29l3.52-4.59c.2-.2.2-.49.2-.78-.1-.1-.29-.29-.59-.49l.2-.2,3.32,2.44-.2.2c-.39-.2-.59-.29-.68-.29-.29-.1-.49.1-.68.29l-3.52,4.59c-.2.29-.2.49-.2.68.1.2.29.39.59.59l-.2.29-3.22-2.54.2-.2ZM232.67,211.37h.29v-.1h.2v-.1h.1l.1-.1h.1v-.1h0l.1-.1h0v-.1h.1l.1-.1h0v-.1l.1-.1h0v-.1c.29-.39.39-.78.39-.98,0-.49-.2-.98-.68-1.17-.29-.2-.49-.29-.59-.29s-.29.1-.29.29l-1.56,2.54c.68.39,1.27.59,1.56.59h0ZM226.71,212.54h0v.1h.2l.1.1h.49c.2,0,.39-.2.59-.59l2.64-4.49c.2-.39.29-.68.2-.88,0-.1-.2-.29-.49-.59l.2-.2,3.22,1.95c.68.29,1.17.78,1.46,1.17.68.68.78,1.46.39,2.25-.39.59-.78.88-1.37.88-.39.1-.88.1-1.17,0l.2,3.91v.29c.1.1.2.2.29.2l-.2.29-2.05-1.17-.2-4.49-.29-.2-1.17,2.05c-.2.39-.29.59-.2.78,0,.2.2.49.59.59l-.2.29-3.42-1.95.2-.29ZM211.77,206.49h.29l.1.1h.29c.29-.1.39-.2.59-.59l1.95-5.27c.1-.39.1-.59-.1-.78-.1-.1-.29-.2-.59-.39l.1-.29,3.81,1.46-.1.2c-.39-.1-.78-.2-.98-.1-.1.1-.29.29-.49.78l-1.95,5.17c-.1.29-.1.49,0,.59.2.1.39.2.78.39.68.2,1.27.29,1.86.2.49-.2,1.07-.59,1.76-1.37l.29.1-1.37,2.44-6.35-2.44.1-.2ZM225.15,203.46l-.1.29c-.49-.2-.78-.2-.98-.2-.2.1-.29.29-.49.68l-1.56,3.71c-.2.49-.29.98-.29,1.37,0,.59.29,1.07.98,1.37.88.39,1.56.29,2.15-.2.29-.29.49-.78.78-1.37l1.37-3.32c.2-.39.2-.68.1-.88,0-.2-.29-.39-.68-.68l.1-.2,2.34.98-.1.29c-.39-.1-.59-.1-.78-.1-.1.1-.29.29-.39.59l-1.46,3.52c-.39.88-.88,1.56-1.56,1.86-.59.29-1.46.29-2.34-.1-1.27-.49-2.05-1.27-2.15-2.15-.1-.49,0-1.07.29-1.66l1.46-3.71c.2-.39.2-.68.2-.78-.1-.2-.29-.39-.68-.59l.1-.29,3.71,1.56ZM209.82,201.61h.2v-.1h.2v-.1h.1v-.1h.1v-.1h.1v-.1h0l.1-.1h0v-.1h0l.1-.1v-.1h0v-.1h.1v-.2h0l.1-.1c.2-.49.2-.98.1-1.37-.1-.29-.39-.59-.78-.78-.29,0-.49-.1-.59,0-.1,0-.2.1-.2.2l-.98,3.03c.68.2,1.17.29,1.37.2h0ZM204.55,204.05h.2l.1.1h.49v-.1h.1c.1-.1.29-.29.39-.68l1.56-4.98c.2-.39.2-.68.1-.88-.1-.1-.29-.29-.68-.39l.1-.39,3.61,1.17c.98.29,1.66.68,2.05,1.17.39.49.49,1.07.29,1.86-.2.39-.39.68-.68.88-.29.29-.68.49-1.17.49-.39.1-.78,0-1.17-.1-.29,0-.88-.2-1.46-.39l-.68,2.15c-.1.39-.1.68-.1.78.2.2.39.39.78.49l-.1.29-3.81-1.17.1-.29ZM190.49,201.12l.1-.29c.39.1.59.1.78,0,.2-.1.39-.2.39-.59l1.07-5.57c.1-.39,0-.59-.2-.78-.1-.1-.29-.2-.68-.29l.1-.29,6.64,1.37-.39,2.25h-.29c0-.78-.2-1.37-.49-1.76-.29-.29-.88-.49-1.86-.68-.39-.1-.59-.1-.68-.1-.1.1-.2.29-.29.49l-.49,2.64c.68.1,1.17.1,1.46-.1.29-.2.49-.59.78-1.17h.29l-.78,3.91-.29-.1c.1-.68,0-1.17-.2-1.46-.2-.29-.68-.59-1.27-.68l-.59,2.83c0,.2,0,.39.1.49.1.1.39.29.78.29.68.1,1.37.1,1.86-.1.49-.2,1.07-.68,1.56-1.37l.29.1-.88,2.34-6.84-1.37Z"/>
  <path class="st15" d="M269.67,251.3v.1l-.1.1h-.2v-.2h0v-.1l-.1-.1v-.49l-.1-.1v-.98l-.1-.29v-3.22h0v-.29h0v-.1h0v-.1h0c.29-1.76.68-3.12,3.22-5.17,2.05-1.66,6.35-3.51,10.64-4.2.39-1.37,3.03-1.27,4.69-1.27,1.07,0,2.05.2,2.44,1.27.49.88.59,5.37,2.83,8.79,2.05,3.03,2.05,5.17,2.54,6.15.39,1.07-.88,4.88-1.95,6.35-1.86-2.54-10.15-5.66-13.77-6.83-3.42-1.17-7.52-.29-7.52-.29,0,0-1.46-1.27-2.54.98Z"/>
  <path class="st10" d="M280.22,250.82c-1.56-.29-5.47-1.27-7.81-.68M293.79,241.44h.1l.1-.1h.2l.1-.1h.39l.2-.1h.29l.2.1h.68l.2.1h.39l.39.1h.49l.39.1h1.56l.2-.1c-1.07.2,5.96-.98,7.42-.2,2.15.98,2.93,2.64,2.93,3.42M286.37,244.18l-1.85-1.66M287.44,248.86v.1l.1.1v.1l.1.1v.29l.1.1v.39l.1.2v.88l.1.2v2.93c1.07.78,4.3,2.54,5.37,3.61s-.29,5.56-1.37,6.35c-1.07.78-4.3,7.32-4.98,8.4-.88,1.07-.88,4.2.98,5.76,1.86,1.66,8.79-4.59,10.15-5.96-.59,3.22,0,8.79,1.86,9.18,2.34.59,4.98-10.25,5.57-11.81-.59,2.15,3.22,13.28,6.15,11.81,3.12-1.56,3.32-10.54,3.61-11.81,0,1.27,4.88,12.4,7.81,9.47,2.93-2.93,1.37-6.64.78-8.01,1.07-1.27,1.07-5.56,1.07-6.35s-1.37-2.64-.29-4.78c1.07-2.15,1.37-9.18,1.07-11.23-.29-2.05-1.07-2.73-.78-3.91,0-.1,4.1-1.76,1.56-3.22-6.74-3.81-13.77-5.86-22.07-7.42-8.1-1.56-13.47.1-14.65,1.37-4.1-.2-6.35-.29-7.03,1.56-2.37.04-19.23,2.25-12.11,14.65,1.07-2.73,2.93-5.37,10.64-4.3,7.71,1.07,11.42,4,13.08,4.49-1.86-1.86-.78-3.91-5.66-6.05"/>
  <path d="M295.94,241.93h.29l.2-.1h1.17l.2-.1h.49l.39-.1h.49l.49-.1h.68l.29-.1h.78l.2-.1h.68c1.37,1.37,2.93,2.44.59,3.51-2.44.98-7.71-2.93-6.93-2.93Z"/>
  <path class="st5" d="M245.75,127.01l-.2-.39-.1-.49-.2-.39-.1-.49-.1-.39-.1-.49-.1-.39-.1-.49v-.78l-.1-.88.1-.78.1-.78.1-.78.2-.78.29-.78.29-.68.39-.68.39-.59.39-.68.49-.59.59-.49.59-.49.59-.49.59-.39.68-.39.78-.39.78-.2.78-.29.78-.2h.39l.49-.1h.39l.49-.1h1.37l.39.1h.49l.49.1.49.1.49.1.49.1.49.1c-1.86-7.81,7.91-17.57,18.06-9.86,1.56-8.59,13.18-13.47,20.41-3.61,4.39-8.49,19.14-8.01,20.31,3.61,3.81-5.08,20.21-4.98,18.55,9.96,4.88-3.91,20.31,1.37,14.35,15.04,10.54-1.17,16.21,11.03,8.69,19.04,6.93,1.27,13.67,13.86,1.66,20.99,10.06,8.98,2.93,19.43-4.78,20.41,5.57,10.84-2.73,18.55-12.01,17.48,1.37,10.54-7.13,17.38-16.79,12.5-1.17,10.45-12.11,13.77-19.63,6.83-5.17,9.86-16.79,8.69-20.8-.68-6.35,7.52-18.84,4.1-19.72-6.64-8.1,4-18.65-1.17-16.21-13.28-9.86,1.46-16.6-7.91-11.33-17.09-8.1-1.37-13.86-12.11-4.69-20.02-7.71-3.71-9.37-15.82,1.27-20.6-6.44-7.81-1.95-18.36,8.4-18.84Z"/>
  <path class="st8" d="M247.31,128.28l-.1-.39-.2-.39-.1-.49-.1-.39-.1-.49-.1-.39-.2-.78v-.88l-.1-.78.1-.78.1-.78.1-.78.2-.68.29-.68.29-.68.29-.68.39-.59.39-.59.49-.59.49-.59.59-.39.59-.49.68-.39.59-.39.68-.29.78-.29.78-.2.78-.2.39-.1h.39l.39-.1h1.76l.49.1h.39l.49.1.49.1h.49l.49.2.39.1c-1.76-7.52,7.71-16.99,17.48-9.57,1.46-8.3,12.69-12.89,19.63-3.42,4.3-8.2,18.45-7.81,19.63,3.51,3.71-4.88,19.53-4.88,17.77,9.57,4.78-3.81,19.72,1.27,13.86,14.45,10.25-1.17,15.62,10.64,8.4,18.36,6.64,1.17,13.28,13.38,1.66,20.21,9.67,8.69,2.83,18.84-4.59,19.72,5.27,10.45-2.64,17.87-11.62,16.89,1.37,10.06-6.83,16.79-16.21,12.01-1.07,10.15-11.62,13.28-18.84,6.54-5.08,9.57-16.31,8.3-20.11-.59-6.05,7.23-18.16,4-19.04-6.44-7.81,3.81-17.97-1.17-15.62-12.79-9.47,1.46-16.01-7.62-10.94-16.5-7.71-1.27-13.38-11.62-4.49-19.23-7.42-3.71-8.98-15.33,1.27-19.92-6.25-7.52-1.95-17.77,8.01-18.16Z"/>
  <path class="st1" d="M255.22,132.97l.2.78.2.68.2.68.2.78.1.68.1.68v1.27l-.1.59v.68l-.2.59-.1.59-.2.59-.2.49-.2.59-.2.49-.29.49-.29.49-.39.49-.29.39-.39.39-.39.49-.39.29-.39.39-.39.39-.49.29-.39.29-.49.29-.49.2-.49.29-.49.2-.49.2c5.27,5.17,3.51,13.38-1.37,16.89,6.15,4,7.71,10.45,4.1,16.31,8.49,1.66,10.84,8.98,9.18,14.55,6.05-1.27,13.47,3.61,13.18,10.84,5.17-3.51,13.86-1.27,16.21,5.96,4.98-5.27,12.11-5.76,17.28-.1,2.64-6.44,11.33-9.08,16.11-5.47,0-6.93,7.71-12.79,14.45-9.96-3.03-8.3,4.2-14.45,9.37-14.74-4.3-5.47-2.15-14.45,4.88-16.99-6.35-3.32-7.13-12.6-1.56-17.48-8.79-2.44-10.06-11.13-7.03-16.01-5.08,1.37-13.86-4.49-12.11-12.89-6.74,2.93-14.25-1.56-15.43-8.1-5.17,4.98-14.65,2.83-16.99-2.44-2.34,4.39-9.47,8.49-17.18,2.93-.98,5.86-7.42,10.84-14.94,8.4.49,8.1-5.66,13.08-11.42,12.6Z"/>
  <path class="st3" d="M326.01,160.01l19.92-1.37M290.57,129.06l-3.42-10.25M287.15,140.29l-9.57-17.48M274.94,136.87l-7.71-8.49M267.72,142.73l-9.76-6.64M267.72,151.81l-11.91-3.81M273.58,159.43h-18.55M275.24,165.58l-19.72,3.71M268.01,176.22l-9.86,4.69M272.01,184.42l-7.42,7.42M283.83,181.98l-10.54,14.65M289.3,184.91l-6.35,18.06M309.51,185.5l6.93,16.7M316.15,183.35l10.25,13.08M327.86,183.84l7.71,7.22M331.57,176.22l11.33,5.37M325.42,166.07l18.36,3.22M331.28,152.3l12.01-5.37M330.5,141.95l9.08-6.35M319.37,140.1l10.35-11.13M311.36,139.8l9.28-16.7M310.58,117.74l-2.93,10.35M298.86,114.32v9.57M292.81,198.48l-1.66,10.35M303.16,198.19l2.64,10.06"/>
  <path class="st16" d="M298.86,154.06l1.46,4.69h4.88l-3.52,2.83,1.66,5.27-4.2-2.83-4.59,2.73,1.76-4.88-3.81-3.12h4.78l1.56-4.69ZM299.16,125.94l1.37,4.59h4.98l-3.52,2.93,1.56,5.27-4.2-2.93-4.49,2.73,1.76-4.88-3.81-3.12h4.78l1.56-4.59ZM275.33,139.61l1.46,4.69h4.88l-3.52,2.93,1.56,5.27-4.1-2.93-4.59,2.73,1.76-4.88-3.81-3.12h4.78l1.56-4.69ZM291.83,139.61l1.37,4.69h4.98l-3.52,2.93,1.56,5.27-4.2-2.93-4.49,2.73,1.76-4.88-3.81-3.12h4.78l1.56-4.69ZM308.14,139.61l1.46,4.69h4.88l-3.52,2.93,1.56,5.27-4.2-2.93-4.49,2.73,1.76-4.88-3.81-3.12h4.78l1.56-4.69ZM324.35,139.61l1.46,4.69h4.88l-3.52,2.93,1.56,5.27-4.2-2.93-4.49,2.73,1.76-4.88-3.81-3.12h4.78l1.56-4.69ZM299.84,182.86l1.46,4.69h4.88l-3.42,2.83,1.56,5.27-4.2-2.83-4.59,2.73,1.86-4.88-3.81-3.12h4.69l1.56-4.69ZM275.04,169l1.37,4.69h4.98l-3.52,2.83,1.56,5.27-4.2-2.83-4.49,2.73,1.76-4.88-3.81-3.12h4.78l1.56-4.69ZM291.44,169l1.37,4.69h4.88l-3.42,2.83,1.56,5.27-4.2-2.83-4.59,2.73,1.86-4.88-3.91-3.12h4.88l1.56-4.69ZM308.63,169l1.46,4.69h4.88l-3.52,2.83,1.66,5.27-4.2-2.83-4.59,2.73,1.76-4.88-3.81-3.12h4.78l1.56-4.69ZM325.23,169l1.46,4.69h4.98l-3.52,2.83,1.56,5.27-4.2-2.83-4.59,2.73,1.86-4.88-3.81-3.12h4.69l1.56-4.69ZM316.24,154.55l1.37,4.59h4.98l-3.52,2.93,1.56,5.27-4.2-2.93-4.49,2.73,1.76-4.88-3.81-3.12h4.78l1.56-4.59ZM282.75,154.55l1.37,4.59h4.98l-3.52,2.93,1.56,5.27-4.2-2.93-4.49,2.73,1.76-4.88-3.81-3.12h4.78l1.56-4.59Z"/>
  <path class="st11" d="M342.31,301.39l.2,90.9c0,3.91-1.46,6.35-6.15,6.35-3.22.29-32.42,0-32.42,0-3.91,0-2.73,1.76-4.3,3.61-1.07-1.86-.49-3.61-4.2-3.61h-32.51c-4.59.2-6.44-1.86-7.23-5.37,0-3.03-.1-91.88-.1-91.88h86.7Z"/>
  <path class="st13" d="M262.64,397.63h6.83v-63.24h-6.83v63.24ZM276.31,397.63h6.74v-63.24h-6.74v63.24ZM289.49,397.63h6.74v-63.24h-6.74v63.24ZM303.36,397.63h6.74v-63.24h-6.74v63.24ZM316.34,397.63h6.74v-63.24h-6.74v63.24ZM329.23,397.63h6.83v-63.24h-6.83v63.24Z"/>
  <rect class="st20" x="256.65" y="302.39" width="84.7" height="32.39"/>
</svg>